<svg width="334" height="296" viewBox="0 0 334 296" fill="none" xmlns="http://www.w3.org/2000/svg">
<path d="M287.377 43.0092C264.586 18.2673 228.973 5.05619 195.279 1.81397C185.401 0.886144 175.496 0.485806 165.564 0.612951C67.7347 1.60778 39.0838 41.9525 45.3534 61.3853C51.6229 80.818 69.2604 92.7662 43.8105 119.663C18.3607 146.559 -10.3073 186.883 4.24889 227.239C18.8051 267.594 79.1797 298.964 166.624 293.985C254.068 289.006 310.767 288.506 328.982 251.166C347.196 213.826 307.387 188.177 301.78 156.162C298.318 136.307 307.22 116.297 307.865 96.5033C308.545 75.0964 300.481 57.2513 287.377 43.0092Z" fill="#E7F0FF"/>
<path d="M203.134 196.285C203.134 196.285 203.784 203.502 200.63 215.63L197.553 225.424C197.553 225.424 209.092 223.507 213.878 223.934C213.878 223.934 207.04 203.002 207.284 196.265L207.711 73.4366H204.232C204.517 93.402 204.576 113.874 204.408 134.853C204.24 155.832 203.815 176.31 203.134 196.285Z" fill="#B4C9F7"/>
<path d="M172.641 50.1975C170.283 28.9118 183.549 9.48349 202.271 6.80345C220.992 4.12324 238.079 19.2063 240.436 40.492C242.793 61.7779 229.527 81.2053 210.807 83.8855C192.085 86.5657 174.998 71.4841 172.641 50.1975Z" fill="#E2810E"/>
<path d="M169.712 50.1975C167.355 28.9118 180.619 9.48345 199.342 6.80342C218.062 4.12339 235.15 19.2062 237.507 40.4922C239.864 61.7779 226.6 81.2053 207.877 83.8855C189.157 86.5657 172.069 71.4841 169.712 50.1975Z" fill="#FFB93E"/>
<path d="M199.941 12.399C183.872 14.6864 172.445 31.3265 174.467 49.4926C176.491 67.6589 191.211 80.5775 207.279 78.2898C223.348 76.0021 234.775 59.3626 232.751 41.1964C230.727 23.0303 216.009 10.1118 199.941 12.399ZM207.511 80.3799C199.234 81.5588 191.046 79.0212 184.455 73.2381C177.864 67.4537 173.661 59.1141 172.619 49.7557C171.577 40.3975 173.82 31.1405 178.937 23.69C184.053 16.2395 191.43 11.4873 199.707 10.309C207.986 9.13076 216.174 11.6672 222.763 17.4515C229.354 23.2355 233.557 31.5749 234.6 40.9331C235.643 50.2914 233.398 59.5486 228.283 66.9992C223.166 74.4493 215.79 79.2009 207.511 80.3799Z" fill="#FFA412"/>
<path d="M208.872 54.9138C208.868 54.1518 208.769 53.4818 208.578 52.9027C208.385 52.3236 208.073 51.7998 207.642 51.3316C207.21 50.8636 206.655 50.4325 205.975 50.0387C205.295 49.6455 204.466 49.2621 203.487 48.8889C201.804 48.2314 200.274 47.5403 198.9 46.8171C197.522 46.0932 196.344 45.2548 195.362 44.301C194.379 43.3472 193.613 42.2288 193.065 40.9451C192.518 39.6613 192.237 38.1304 192.226 36.3523C192.217 34.8105 192.447 33.4023 192.921 32.128C193.392 30.8548 194.071 29.7424 194.956 28.7914C195.841 27.8408 196.902 27.0654 198.141 26.4656C199.381 25.8661 200.77 25.4779 202.312 25.3024L202.274 19.4784L206.387 19.4448L206.425 25.3502C207.899 25.5563 209.239 25.9901 210.444 26.6512C211.647 27.3126 212.672 28.1753 213.518 29.2387C214.364 30.303 215.02 31.5628 215.483 33.0194C215.946 34.4766 216.183 36.1123 216.195 37.9261L208.766 37.9866C208.753 35.8097 208.318 34.1846 207.464 33.1119C206.608 32.04 205.469 31.5087 204.046 31.5203C203.276 31.5267 202.613 31.6548 202.057 31.9042C201.502 32.1534 201.046 32.4934 200.689 32.9219C200.332 33.3518 200.068 33.8571 199.901 34.4393C199.733 35.0212 199.652 35.648 199.656 36.3193C199.659 36.9906 199.749 37.5975 199.924 38.1402C200.098 38.6833 200.397 39.1842 200.82 39.6436C201.243 40.1027 201.803 40.5336 202.5 40.936C203.196 41.3388 204.061 41.7536 205.092 42.1806C206.757 42.8747 208.274 43.5881 209.642 44.3206C211.008 45.0539 212.183 45.9016 213.167 46.8637C214.149 47.8266 214.914 48.9502 215.462 50.2336C216.011 51.5177 216.289 53.0395 216.3 54.7993C216.311 56.3956 216.076 57.8313 215.595 59.1047C215.114 60.3788 214.431 61.4823 213.546 62.4144C212.661 63.3473 211.591 64.1001 210.334 64.6727C209.079 65.2453 207.68 65.6194 206.138 65.7955L206.173 71.2102L202.085 71.2442L202.052 65.8557C200.628 65.7043 199.25 65.3614 197.919 64.8284C196.588 64.2946 195.406 63.52 194.37 62.503C193.336 61.4865 192.505 60.2005 191.879 58.6449C191.252 57.0897 190.931 55.2234 190.918 53.0464L198.346 52.9861C198.354 54.2741 198.519 55.3481 198.842 56.2068C199.164 57.0661 199.594 57.7522 200.128 58.2649C200.662 58.7776 201.269 59.1358 201.947 59.3387C202.624 59.5419 203.315 59.6403 204.018 59.6346C204.824 59.628 205.529 59.5046 206.137 59.2637C206.743 59.0229 207.251 58.6924 207.66 58.2713C208.068 57.8508 208.374 57.3538 208.576 56.7806C208.778 56.2074 208.877 55.5856 208.872 54.9138Z" fill="#FFA412"/>
<path d="M153.08 163.143C152.187 155.08 157.212 147.721 164.304 146.705C171.395 145.69 177.867 151.404 178.76 159.466C179.653 167.529 174.628 174.888 167.537 175.903C160.445 176.918 153.973 171.206 153.08 163.143Z" fill="#E2810E"/>
<path d="M151.971 163.143C151.078 155.08 156.102 147.721 163.194 146.705C170.285 145.69 176.758 151.403 177.651 159.466C178.544 167.529 173.519 174.888 166.427 175.903C159.336 176.918 152.864 171.206 151.971 163.143Z" fill="#FFB93E"/>
<path d="M163.421 148.825C157.334 149.691 153.006 155.994 153.772 162.876C154.539 169.757 160.114 174.65 166.201 173.784C172.288 172.917 176.616 166.614 175.849 159.733C175.083 152.852 169.508 147.959 163.421 148.825ZM166.289 174.575C163.153 175.022 160.052 174.061 157.555 171.87C155.059 169.679 153.467 166.52 153.072 162.975C152.677 159.43 153.527 155.924 155.465 153.102C157.403 150.28 160.197 148.48 163.333 148.033C166.469 147.587 169.57 148.548 172.066 150.739C174.563 152.93 176.155 156.089 176.55 159.633C176.945 163.178 176.094 166.685 174.157 169.507C172.218 172.329 169.425 174.129 166.289 174.575Z" fill="#FFA412"/>
<path d="M166.804 164.929C166.803 164.64 166.765 164.387 166.693 164.167C166.62 163.948 166.502 163.75 166.338 163.572C166.175 163.395 165.964 163.232 165.707 163.082C165.449 162.933 165.135 162.788 164.764 162.647C164.127 162.398 163.547 162.136 163.027 161.862C162.505 161.588 162.059 161.27 161.687 160.909C161.315 160.548 161.024 160.124 160.817 159.638C160.609 159.152 160.503 158.572 160.499 157.898C160.496 157.314 160.583 156.781 160.762 156.298C160.941 155.816 161.198 155.394 161.533 155.034C161.868 154.674 162.27 154.38 162.739 154.153C163.209 153.926 163.735 153.779 164.319 153.713L164.305 151.507L165.863 151.494L165.877 153.731C166.436 153.809 166.943 153.973 167.4 154.224C167.855 154.474 168.243 154.801 168.564 155.204C168.884 155.607 169.133 156.084 169.308 156.636C169.484 157.188 169.573 157.807 169.578 158.494L166.764 158.517C166.759 157.693 166.594 157.077 166.271 156.671C165.947 156.265 165.515 156.063 164.976 156.068C164.684 156.07 164.433 156.119 164.223 156.213C164.013 156.308 163.84 156.436 163.704 156.599C163.569 156.762 163.469 156.953 163.406 157.174C163.342 157.394 163.312 157.631 163.313 157.886C163.315 158.14 163.348 158.37 163.415 158.575C163.481 158.781 163.594 158.971 163.754 159.145C163.915 159.319 164.126 159.482 164.391 159.634C164.654 159.787 164.982 159.944 165.372 160.106C166.003 160.369 166.578 160.639 167.096 160.916C167.613 161.194 168.058 161.515 168.431 161.88C168.803 162.244 169.093 162.67 169.3 163.156C169.508 163.643 169.614 164.219 169.618 164.886C169.622 165.49 169.533 166.034 169.351 166.517C169.169 166.999 168.91 167.417 168.575 167.77C168.239 168.124 167.834 168.409 167.358 168.626C166.883 168.843 166.353 168.984 165.769 169.051L165.782 171.102L164.233 171.115L164.221 169.074C163.681 169.016 163.16 168.886 162.655 168.685C162.151 168.482 161.703 168.189 161.311 167.804C160.919 167.419 160.605 166.932 160.367 166.342C160.13 165.753 160.008 165.046 160.004 164.222L162.817 164.199C162.82 164.687 162.883 165.094 163.005 165.419C163.127 165.744 163.29 166.004 163.492 166.198C163.694 166.393 163.924 166.528 164.181 166.605C164.437 166.682 164.699 166.719 164.966 166.717C165.271 166.715 165.538 166.668 165.768 166.577C165.998 166.486 166.19 166.36 166.345 166.201C166.5 166.042 166.616 165.853 166.692 165.636C166.769 165.419 166.806 165.184 166.804 164.929Z" fill="#FFA412"/>
<path d="M227.948 99.0548C226.56 85.5094 234.374 73.1459 245.402 71.4404C256.429 69.7348 266.494 79.3331 267.882 92.8786C269.271 106.424 261.457 118.787 250.43 120.493C239.402 122.198 229.337 112.601 227.948 99.0548Z" fill="#E2810E"/>
<path d="M226.223 99.0548C224.835 85.5094 232.648 73.1459 243.676 71.4404C254.703 69.7349 264.769 79.3331 266.157 92.8787C267.546 106.424 259.732 118.787 248.704 120.493C237.677 122.198 227.612 112.601 226.223 99.0548Z" fill="#FFB93E"/>
<path d="M244.029 75.0012C234.564 76.4568 227.833 87.046 229.024 98.6063C230.216 110.167 238.887 118.388 248.352 116.932C257.817 115.476 264.548 104.887 263.356 93.3268C262.164 81.7666 253.494 73.5457 244.029 75.0012ZM248.488 118.262C243.613 119.012 238.79 117.397 234.907 113.717C231.025 110.036 228.55 104.729 227.935 98.7737C227.322 92.8185 228.643 86.9277 231.657 82.1864C234.671 77.4452 239.016 74.4211 243.892 73.6712C248.768 72.9214 253.591 74.5356 257.473 78.2164C261.355 81.8972 263.831 87.2041 264.445 93.1593C265.059 99.1146 263.737 105.006 260.724 109.747C257.71 114.488 253.365 117.512 248.488 118.262Z" fill="#FFA412"/>
<path d="M249.29 102.056C249.287 101.571 249.229 101.145 249.117 100.776C249.003 100.408 248.819 100.074 248.566 99.7765C248.311 99.4787 247.984 99.2043 247.584 98.9538C247.183 98.7035 246.695 98.4596 246.118 98.2221C245.127 97.8037 244.225 97.3639 243.416 96.9036C242.605 96.443 241.911 95.9094 241.332 95.3025C240.753 94.6955 240.302 93.9838 239.979 93.1669C239.657 92.35 239.492 91.3757 239.485 90.2442C239.48 89.2631 239.615 88.367 239.894 87.556C240.172 86.7458 240.571 86.0379 241.093 85.4327C241.614 84.8278 242.239 84.3344 242.969 83.9527C243.699 83.5712 244.518 83.3242 245.426 83.2125L245.404 79.5063L247.826 79.4849L247.849 83.2429C248.717 83.3741 249.506 83.6501 250.216 84.0708C250.925 84.4917 251.528 85.0407 252.027 85.7174C252.525 86.3947 252.912 87.1964 253.184 88.1233C253.457 89.0506 253.596 90.0915 253.604 91.2457L249.227 91.2843C249.22 89.8989 248.963 88.8648 248.46 88.1822C247.957 87.5 247.286 87.1619 246.448 87.1693C245.994 87.1734 245.603 87.2549 245.275 87.4136C244.949 87.5722 244.68 87.7885 244.47 88.0613C244.259 88.3348 244.104 88.6564 244.006 89.0268C243.907 89.3972 243.859 89.7961 243.862 90.2232C243.863 90.6504 243.916 91.0366 244.019 91.382C244.122 91.7276 244.298 92.0463 244.547 92.3387C244.797 92.6309 245.126 92.9051 245.537 93.1611C245.946 93.4175 246.456 93.6814 247.063 93.9532C248.044 94.3949 248.938 94.8488 249.743 95.315C250.548 95.7816 251.24 96.321 251.82 96.9333C252.399 97.546 252.849 98.261 253.172 99.0778C253.495 99.8949 253.659 100.863 253.666 101.983C253.672 102.999 253.534 103.913 253.25 104.723C252.967 105.534 252.565 106.236 252.043 106.829C251.522 107.423 250.891 107.902 250.151 108.266C249.412 108.631 248.588 108.869 247.68 108.981L247.7 112.427L245.292 112.448L245.273 109.019C244.434 108.923 243.623 108.705 242.838 108.365C242.055 108.026 241.358 107.533 240.748 106.886C240.139 106.239 239.649 105.42 239.28 104.43C238.911 103.441 238.722 102.253 238.715 100.868L243.09 100.829C243.095 101.649 243.192 102.332 243.382 102.879C243.572 103.426 243.825 103.862 244.139 104.189C244.454 104.515 244.811 104.743 245.211 104.872C245.61 105.001 246.017 105.064 246.431 105.06C246.905 105.056 247.321 104.977 247.679 104.824C248.036 104.671 248.335 104.461 248.576 104.193C248.817 103.925 248.997 103.609 249.116 103.244C249.235 102.879 249.293 102.484 249.29 102.056Z" fill="#FFA412"/>
<path d="M219.468 214.579C219.468 214.579 222.52 197.285 222.52 194.961C222.52 194.961 202.279 172.11 211.998 164.946C211.998 164.946 218.357 157.374 223.293 180.652C223.302 180.699 223.326 180.741 223.359 180.769C223.392 180.796 223.433 180.808 223.473 180.802C223.513 180.795 223.55 180.771 223.576 180.734C223.602 180.696 223.615 180.649 223.614 180.6C223.566 178.086 223.393 175.579 223.097 173.09C223.075 172.922 223.094 172.75 223.152 172.595C223.21 172.44 223.305 172.309 223.424 172.219C223.543 172.128 223.681 172.081 223.822 172.083C223.963 172.086 224.1 172.139 224.216 172.234C225.661 173.466 227.533 176.456 226.05 183.353C226.05 183.353 230.43 171.884 235.965 177.538C236.03 177.606 236.081 177.69 236.115 177.785C236.149 177.88 236.165 177.983 236.162 178.087C236.159 178.19 236.136 178.291 236.096 178.383C236.056 178.474 236 178.554 235.931 178.615C233.96 180.373 227.315 186.559 225.409 191.502C225.409 191.502 225.571 193.244 227.494 191.306C227.494 191.306 231.67 183.755 242.427 193.44C242.427 193.44 248.529 197.698 239.7 200.409C239.7 200.409 228.46 202.538 223.161 201.182C223.161 201.182 221.716 212.337 221.396 214.584L219.468 214.579Z" fill="#B4C9F7"/>
<path d="M211.998 164.946C211.998 164.946 223.139 179.079 222.52 194.961C222.52 194.961 202.121 172.306 211.998 164.946Z" fill="#739AF0"/>
<path d="M240.709 191.966C240.709 191.966 240.756 194.981 235.512 194.342C235.084 194.291 234.657 194.208 234.255 194.115C232.973 193.832 227.417 193.157 221.746 200.971L219.468 214.579H221.396L223.161 201.177C223.161 201.177 245.538 203.481 244.384 195.94C244.405 195.919 243.978 194.126 240.709 191.966Z" fill="#739AF0"/>
<path d="M243.072 144.807C243.072 144.807 239.653 182.079 230.768 215.058L233.524 215.429C233.524 215.429 245.581 150.539 247.397 142.678C247.397 142.678 258.628 146.353 268.15 141.714C268.15 141.714 266.137 124.926 255.145 124.704C255.145 124.704 251.299 123.822 246.722 134.425C246.722 134.425 247.209 124.029 247.269 120.792H245.26L245.444 134.647C245.444 134.647 232.99 121.931 224.93 135.575C224.93 135.575 219.849 138.214 218.75 162.776C218.763 162.781 234.601 154.966 243.072 144.807Z" fill="#B4C9F7"/>
<path d="M218.763 162.781C218.763 162.781 223.174 151.147 233.43 147.023C233.43 147.023 244.786 141.492 246.128 137.152C246.128 137.152 257.342 140.894 265.47 132.616C265.47 132.616 266.641 135.24 268.167 141.719C268.167 141.719 260.543 146.24 247.414 142.683L233.524 215.429L230.768 215.058C230.768 215.058 243.093 161.013 243.072 144.807C243.072 144.807 239.738 151.286 218.763 162.781Z" fill="#739AF0"/>
<path d="M176.778 215.873C176.778 215.873 175.334 185.033 169.423 175.719C169.404 175.69 169.392 175.655 169.389 175.618C169.386 175.582 169.392 175.545 169.406 175.512C169.42 175.48 169.442 175.452 169.468 175.434C169.495 175.416 169.525 175.407 169.556 175.409C170.09 175.435 171.103 175.25 172.12 173.755C172.12 173.755 173.975 177.904 178.53 215.471L176.778 215.873Z" fill="#B4C9F7"/>
<path d="M173.962 182.481C173.962 182.481 174.013 171.095 181.706 171.425L177.783 181.337C177.291 182.587 177.035 183.953 177.035 185.337V190.847C177.041 190.95 177.073 191.048 177.126 191.129C177.179 191.209 177.251 191.269 177.332 191.3C177.413 191.331 177.501 191.332 177.582 191.303C177.664 191.274 177.737 191.216 177.791 191.136C179.834 187.693 185.843 179.198 193.702 182.765C194.305 183.032 194.802 183.565 195.091 184.258C195.379 184.95 195.439 185.748 195.258 186.492C194.689 188.775 192.796 192.265 187.108 196.285L177.047 203.625C177.047 203.625 175.21 189.002 173.962 182.481Z" fill="#B4C9F7"/>
<path d="M171.325 179.791C171.325 179.791 162.662 173.662 158.504 179.791C158.504 179.791 170.316 186.538 173.428 187.523C173.423 187.523 172.415 182.409 171.325 179.791Z" fill="#B4C9F7"/>
<path d="M158.739 179.749C160.282 179.497 168.996 178.378 172.842 184.904L173.419 187.507L158.718 179.899C158.706 179.89 158.697 179.878 158.692 179.863C158.687 179.848 158.685 179.832 158.687 179.816C158.69 179.8 158.696 179.785 158.705 179.773C158.714 179.761 158.726 179.753 158.739 179.749Z" fill="#739AF0"/>
<path d="M174.902 196.115C174.902 196.115 165.008 179.363 151.354 188.755C151.354 188.755 137.49 202.156 144.089 208.826C144.089 208.826 147.422 213.584 162.222 201.491C162.222 201.491 170.551 197.409 175.321 199.399L174.902 196.115Z" fill="#B4C9F7"/>
<path opacity="0.2" d="M156.709 165.018L174.885 156.167C175.532 157.154 176.044 158.259 176.402 159.44L157.675 168.966C157.675 168.966 157.149 168.26 156.709 165.018Z" fill="white"/>
<path d="M151.726 169.399C151.726 169.399 153.816 142.24 167.303 136.456L188.116 149.667C188.116 149.667 186.894 160.858 172.24 163.657C172.24 163.657 156.123 165.873 151.726 169.399Z" fill="#B4C9F7"/>
<path d="M151.726 169.399C151.726 169.399 160.884 147.899 177.005 144.807C177.005 144.807 184.33 150.405 188.116 149.667C188.116 149.667 187.014 161.451 172.24 163.657C172.24 163.657 155.88 166.306 151.726 169.399Z" fill="#739AF0"/>
<path d="M129.665 266.707C135.494 254.336 163.333 200.455 199.207 218.522C199.207 218.522 221.584 209.048 248.675 219.465C248.675 219.465 282.83 225.135 295.002 269.186C295.002 269.186 275.372 298.567 193.715 295.232C193.715 295.232 140.383 293.928 129.695 272.166C129.291 271.34 129.076 270.4 129.071 269.441C129.066 268.483 129.271 267.539 129.665 266.707Z" fill="white"/>
<path opacity="0.2" d="M162.94 222.574C162.94 222.574 137.131 253.042 152.683 267.934C152.683 267.934 173.099 291.274 249.841 274.929C249.841 274.929 275.984 270.532 290.48 256.491C290.48 256.491 293.826 264.119 295.006 269.191C295.006 269.191 274.026 295.222 210.814 295.48C210.814 295.48 163.051 297.954 136.379 280.155C136.379 280.155 126.344 273.32 129.652 266.753C129.665 266.707 145.636 233.434 162.94 222.574Z" fill="#0057FF"/>
<path d="M135.729 138.178C135.729 138.178 144.157 106.596 174.744 108.575C174.744 108.575 200.019 107.689 204.416 133.317L204.275 146.137C204.275 146.137 191.236 158.255 171.727 140.817C170.895 140.061 170.097 139.254 169.333 138.4C166.389 135.152 154.726 124.735 135.729 138.178Z" fill="#B4C9F7"/>
<path d="M135.729 138.178C135.729 138.178 169.162 102.534 204.416 133.317L204.275 146.137C204.275 146.137 190.711 158.657 171.462 140.616C170.769 139.967 170.111 139.271 169.47 138.554C166.671 135.42 154.311 123.766 135.729 138.178Z" fill="#739AF0"/>
<path d="M71.9272 185.853H58.8711L67.4185 208.775C67.4185 208.775 81.8337 209.419 93.5522 206.198C93.5522 206.198 91.8427 216.507 93.5522 232.414L94.7702 257.156H105.027C105.027 257.156 114.797 188.084 105.027 186.904L71.9272 185.853Z" fill="#283D70"/>
<path opacity="0.2" d="M71.9272 185.853H58.8711L67.4185 208.775C67.4185 208.775 81.8337 209.419 93.5522 206.198C93.5522 206.198 91.8427 216.507 93.5522 232.414L94.7702 257.156H105.027C105.027 257.156 114.797 188.084 105.027 186.904L71.9272 185.853Z" fill="#2B408B"/>
<path d="M115.04 107.075C115.04 107.075 120.122 101.921 120.532 98.7919C120.532 98.7919 120.801 94.1528 122.707 94.993C122.707 94.993 124.066 96.1219 122.707 100.983C122.707 100.983 125.272 102.431 130.866 92.658C130.866 92.658 133.31 90.2611 131.815 95.6734C131.815 95.6734 133.328 99.6115 132.302 102.235C132.302 102.235 132.768 107.008 121.618 110.034L119.438 112.4L115.04 107.075Z" fill="#F9B499"/>
<path d="M126.784 101.251L130.998 96.7507" stroke="#F7A48B" stroke-miterlimit="10"/>
<path d="M127.601 103.055L131.545 99.0033" stroke="#F7A48B" stroke-miterlimit="10"/>
<path d="M127.601 105.297C127.737 105.513 130.592 102.91 132.088 100.276" stroke="#F7A48B" stroke-miterlimit="10"/>
<path d="M53.4306 115.606C53.4306 115.606 41.7763 118.034 38.2975 129.08C38.2975 129.08 35.5495 133.719 34.8187 156.25V185.853H71.9272C71.9272 185.853 73.6923 152.064 77.5813 142.039C77.7045 141.723 77.8923 141.449 78.127 141.245C78.3617 141.04 78.6357 140.911 78.9233 140.869C83.8765 140.111 108.412 135.26 119.438 112.379C118.16 110.192 116.568 108.298 114.737 106.787C114.573 106.646 114.375 106.576 114.174 106.588C113.973 106.6 113.781 106.694 113.63 106.854C110.903 109.735 97.6848 123.013 85.5219 123.091C83.9961 123.099 82.4835 122.749 81.0687 122.06C77.4659 120.317 69.363 116.56 67.4185 117.178L53.4306 115.606Z" fill="#A4C8FC"/>
<path d="M53.6443 116.596L59.354 126.353C59.354 126.353 61.0891 125.065 62.7003 120.622C62.7126 120.591 62.7317 120.565 62.7555 120.547C62.7793 120.529 62.8068 120.52 62.8349 120.52C62.863 120.52 62.8906 120.529 62.9144 120.547C62.9382 120.565 62.9573 120.591 62.9696 120.622C63.3585 121.652 64.5765 124.621 66.2261 125.889C66.2261 125.889 67.7518 122.101 67.192 115.627C67.144 115.056 66.9655 114.513 66.6765 114.058C66.3874 113.603 65.9992 113.254 65.5551 113.049H65.5209L56.5462 112.421C56.5462 112.421 55.1102 112.421 53.6358 114.998C53.5055 115.235 53.4367 115.514 53.4382 115.798C53.4398 116.083 53.5115 116.361 53.6443 116.596Z" fill="#0071F2"/>
<path opacity="0.2" d="M53.6443 116.596L59.354 126.353C59.354 126.353 61.0891 125.065 62.7003 120.622C62.7126 120.591 62.7317 120.565 62.7555 120.547C62.7793 120.529 62.8068 120.52 62.8349 120.52C62.863 120.52 62.8906 120.529 62.9144 120.547C62.9382 120.565 62.9573 120.591 62.9696 120.622C63.3585 121.652 64.5765 124.621 66.2261 125.889C66.2261 125.889 67.7518 122.101 67.192 115.627C67.144 115.056 66.9655 114.513 66.6765 114.058C66.3874 113.603 65.9992 113.254 65.5551 113.049H65.5209L56.5462 112.421C56.5462 112.421 55.1102 112.421 53.6358 114.998C53.5055 115.235 53.4367 115.514 53.4382 115.798C53.4398 116.083 53.5115 116.361 53.6443 116.596Z" fill="white"/>
<path d="M103.343 173.605C103.1 173.538 97.3985 171.904 96.189 165.415C95.6674 162.685 96.0086 159.819 97.1459 157.377C98.2832 154.935 100.135 153.092 102.339 152.209C104.259 151.389 106.364 151.457 108.245 152.399L107.92 153.353C106.228 152.507 104.335 152.448 102.608 153.188C100.606 153.99 98.9232 155.665 97.8901 157.884C96.8571 160.104 96.5477 162.708 97.0224 165.188C98.1122 171.028 103.48 172.574 103.536 172.574L103.343 173.605Z" fill="#2F2E41"/>
<path d="M34.8187 185.853C34.8187 185.853 31.0322 189.389 47.6398 219.435L62.5336 244.176L27.8568 241.522C27.8568 241.522 25.1516 249.254 27.5918 252.501L64.2431 263.908C64.2431 263.908 81.0601 268.918 82.1072 253.388C82.2857 250.379 81.8315 247.365 80.7866 244.625L58.8711 185.863L34.8187 185.853Z" fill="#2B478B"/>
<path d="M94.7702 257.135V268.697H118.156C118.156 268.697 119.985 265.527 114.126 262.913L105.027 257.135H94.7702Z" fill="#233862"/>
<path d="M27.8568 241.522C27.8568 241.522 21.0787 239.975 21.0787 244.176C21.0787 244.176 20.3736 266.264 26.7713 268.697C26.7713 268.697 33.5366 270.382 30.9723 264.681L31.5493 253.589L27.8568 252.424C27.8568 252.424 25.8439 251.687 27.8568 241.522Z" fill="#233862"/>
<path d="M56.5547 100.225V113.111C56.5543 113.559 56.671 113.996 56.8881 114.359C57.8326 115.931 60.5977 120.204 62.8413 120.266C62.8413 120.266 65.3415 120.926 65.5252 113.049V109.482L57.3838 99.8074L56.5547 100.225Z" fill="#F9B499"/>
<path d="M65.5252 108.462V112.658C65.5252 112.658 57.9779 110.962 58.3283 104.374L65.5252 108.462Z" fill="#F7A48B"/>
<path d="M64.0807 109.627C68.2372 109.627 71.6067 103.862 71.6067 96.7507C71.6067 89.6395 68.2372 83.8746 64.0807 83.8746C59.9242 83.8746 56.5547 89.6395 56.5547 96.7507C56.5547 103.862 59.9242 109.627 64.0807 109.627Z" fill="#F9B499"/>
<path d="M56.1402 104.704C56.1402 104.704 46.785 92.3333 52.1571 87.7715C52.1571 87.7715 52.6443 75.8387 65.709 81.586C65.709 81.586 71.8161 77.4623 74.2564 83.8798C74.2564 83.8798 76.4531 91.359 70.5938 92.3642C70.5938 92.3642 67.6621 93.292 67.4313 88.1323C67.4232 87.7473 67.3391 87.3702 67.186 87.0322C67.0329 86.6943 66.8151 86.4052 66.5509 86.189C65.9227 85.7096 64.9141 85.5602 63.3884 86.8849C63.3884 86.8849 61.8028 88.2096 62.0464 93.5137C62.0464 93.5137 58.1659 92.2972 56.871 100.122L56.5547 100.225V105.379L56.1402 104.704Z" fill="#2F2E41"/>
<path d="M56.1402 100.73C57.351 100.73 58.3326 99.4446 58.3326 97.8589C58.3326 96.2733 57.351 94.9879 56.1402 94.9879C54.9293 94.9879 53.9478 96.2733 53.9478 97.8589C53.9478 99.4446 54.9293 100.73 56.1402 100.73Z" fill="#F9B499"/>
<path d="M41.554 122.993C41.554 122.993 47.2722 123.41 49.3493 134.307L54.0803 154.41C54.1947 154.895 54.4347 155.324 54.7652 155.634C55.0957 155.943 55.4996 156.118 55.9179 156.131L82.7953 157.054C83.2877 157.07 83.7555 157.317 84.0995 157.742C84.4434 158.168 84.6363 158.738 84.6372 159.332V166.466C84.6372 167.072 84.4378 167.653 84.0827 168.081C83.7276 168.509 83.2461 168.75 82.744 168.75H53.4307C53.4307 168.75 47.0201 169.93 42.8746 154.905L36.7418 134.657C36.7418 134.657 37.6692 127.73 41.554 122.993Z" fill="#739AF0"/>
<path opacity="0.2" d="M41.554 122.993C41.554 122.993 47.2722 123.41 49.3493 134.307L54.0803 154.41C54.1947 154.895 54.4347 155.324 54.7652 155.634C55.0957 155.943 55.4996 156.118 55.9179 156.131L82.7953 157.054C83.2877 157.07 83.7555 157.317 84.0995 157.742C84.4434 158.168 84.6363 158.738 84.6372 159.332V166.466C84.6372 167.072 84.4378 167.653 84.0827 168.081C83.7276 168.509 83.2461 168.75 82.744 168.75H53.4306C53.4306 168.75 47.0201 169.93 42.8746 154.905L36.7418 134.657C36.7418 134.657 37.6692 127.73 41.554 122.993Z" fill="#2B478B"/>
<path d="M84.6372 158.317H91.4751C91.4751 158.317 95.6548 153.095 97.6763 153.621C97.6763 153.621 98.6849 154.136 99.8388 152.229C100.052 151.89 100.311 151.596 100.604 151.358C101.459 150.683 102.352 152.255 101.531 153.018C100.369 154.095 98.6293 155.971 99.8217 156.575C99.8217 156.575 102.847 156.404 102.416 158.317C102.416 158.317 102.271 159.533 99.9627 159.348C99.9627 159.348 100.39 162.306 98.8131 163.698C98.8131 163.698 98.0908 167.523 94.4838 166.827L84.6244 166.476L84.6372 158.317Z" fill="#F9B499"/>
<path d="M116.271 149.966C116.271 149.966 102.429 149.966 101.706 166.92C101.706 166.92 101.997 185.476 117.716 183.533L141.507 182.141C141.507 182.141 144.247 181.275 145.114 182.657L146.059 184.363C146.085 184.405 146.118 184.44 146.157 184.464C146.196 184.488 146.239 184.5 146.283 184.5C146.327 184.5 146.37 184.488 146.409 184.464C146.448 184.44 146.482 184.405 146.508 184.363L149.952 179.208C149.994 179.136 150.019 179.051 150.026 178.964C150.033 178.876 150.021 178.787 149.992 178.707C149.962 178.626 149.916 178.556 149.857 178.503C149.799 178.45 149.73 178.416 149.657 178.404L127.088 176.724C128.191 174.691 128.951 172.414 129.322 170.026C129.693 167.637 129.669 165.184 129.25 162.806L116.271 149.966Z" fill="#2B478B"/>
<path opacity="0.2" d="M116.271 149.966C116.271 149.966 102.429 149.966 101.706 166.92C101.706 166.92 101.997 185.476 117.716 183.533L141.507 182.141C141.507 182.141 144.247 181.275 145.114 182.657L146.059 184.363C146.085 184.405 146.118 184.44 146.157 184.464C146.196 184.488 146.239 184.5 146.283 184.5C146.327 184.5 146.37 184.488 146.409 184.464C146.448 184.44 146.482 184.405 146.508 184.363L149.952 179.208C149.994 179.136 150.019 179.051 150.026 178.964C150.033 178.876 150.021 178.787 149.992 178.707C149.962 178.626 149.916 178.556 149.857 178.503C149.799 178.45 149.73 178.416 149.657 178.404L127.088 176.724C128.191 174.691 128.951 172.414 129.322 170.026C129.693 167.637 129.669 165.184 129.25 162.806L116.271 149.966Z" fill="#233862"/>
<path d="M115.374 174.208C114.826 174.405 114.244 174.421 113.69 174.255C113.04 174.071 112.434 173.707 111.921 173.193L111.066 174.317L110.331 173.507L111.185 172.368C110.55 171.578 110.135 170.569 109.997 169.482C109.946 168.989 109.985 168.49 110.113 168.018C110.241 167.547 110.454 167.115 110.737 166.755L112.446 168.657C112.226 168.946 112.099 169.32 112.087 169.712C112.076 170.104 112.18 170.489 112.382 170.796L114.391 168.152C114.034 167.523 113.714 166.865 113.433 166.183C113.223 165.632 113.133 165.025 113.173 164.42C113.242 163.692 113.517 163.015 113.951 162.502C114.224 162.122 114.564 161.819 114.946 161.617C115.328 161.415 115.743 161.317 116.16 161.332C117.081 161.38 117.964 161.791 118.673 162.502L119.528 161.384L120.263 162.193L119.408 163.317C120.029 164.057 120.434 165.022 120.562 166.064C120.601 166.553 120.558 167.046 120.436 167.514C120.314 167.983 120.116 168.417 119.853 168.791L118.13 166.904C118.307 166.625 118.41 166.287 118.425 165.936C118.44 165.584 118.367 165.236 118.216 164.935L116.228 167.549C116.588 168.193 116.914 168.862 117.207 169.554C117.419 170.099 117.511 170.701 117.472 171.301C117.407 172.025 117.135 172.7 116.703 173.208C116.341 173.678 115.882 174.023 115.374 174.208ZM114.117 171.971C114.447 171.939 114.753 171.754 114.972 171.456C115.081 171.326 115.166 171.17 115.22 170.997C115.275 170.825 115.298 170.64 115.288 170.456C115.249 170.025 115.133 169.61 114.946 169.239L113.109 171.662C113.408 171.896 113.762 172.004 114.117 171.971ZM115.378 165.27C115.406 165.695 115.514 166.105 115.694 166.471L117.511 164.074C117.241 163.833 116.91 163.711 116.575 163.729C116.241 163.771 115.934 163.969 115.72 164.281C115.612 164.408 115.526 164.561 115.467 164.729C115.409 164.897 115.378 165.078 115.378 165.26V165.27Z" fill="white"/>
<path d="M166.043 239.816C166.043 239.816 216.079 203.218 260.154 245.697C260.154 245.697 220.776 198.301 166.043 239.816Z" fill="#739AF0"/>
<path opacity="0.2" d="M166.043 239.816C166.043 239.816 216.079 203.218 260.154 245.697C260.154 245.697 220.776 198.301 166.043 239.816Z" fill="#98FF96"/>
<path d="M207.489 137.652C207.489 137.652 204.861 114.008 222.34 104.55C222.34 104.55 237.208 95.4878 261.714 101.792C261.714 101.792 250.602 103.565 247.337 117.555C247.337 117.555 238.05 156.374 207.489 137.652Z" fill="#B4C9F7"/>
<path d="M207.489 137.652C207.489 137.652 222.37 104.354 258.773 101.101L261.701 101.792C257.1 102.9 253 106.021 250.192 110.555C249.035 112.483 248.154 114.631 247.585 116.91C245.606 124.565 235.828 154.394 207.489 137.652Z" fill="#739AF0"/>
<path d="M150.042 184.523C150.356 184.725 150.66 184.948 150.952 185.193" stroke="#293E75" stroke-miterlimit="10"/>
<path d="M152.675 186.791C156.623 190.852 163.919 201.064 166.701 222.873" stroke="#293E75" stroke-miterlimit="10" stroke-dasharray="5.09 5.09"/>
<path d="M166.859 224.161L167 225.44" stroke="#293E75" stroke-miterlimit="10"/>
<path d="M150.042 180.822C150.042 180.822 169.175 195.832 169.919 222.79" stroke="#293E75" stroke-miterlimit="10" stroke-dasharray="5 5"/>
<path d="M147.589 184.523C147.589 184.523 162.867 201.131 164.021 226.537" stroke="#293E75" stroke-miterlimit="10" stroke-dasharray="5 5"/>
</svg>
