<svg width="349" height="319" viewBox="0 0 349 319" fill="none" xmlns="http://www.w3.org/2000/svg">
<path d="M289.064 57.4193C266.272 32.6774 230.659 19.4662 196.965 16.224C187.087 15.2962 177.182 14.8958 167.25 15.023C69.421 16.0178 40.7702 56.3626 47.0397 75.7953C53.3092 95.228 70.9468 107.176 45.4969 134.073C20.047 160.969 -8.62101 201.293 5.93522 241.649C20.4914 282.004 80.866 313.374 168.31 308.395C255.754 303.416 312.454 302.916 330.668 265.576C348.883 228.236 309.073 202.587 303.466 170.572C300.004 150.717 308.906 130.707 309.552 110.913C310.231 89.5064 302.167 71.6613 289.064 57.4193Z" fill="#E7F0FF"/>
<path d="M269.967 41.2643C272.377 27.8903 281.479 17.5098 290.296 18.079C299.112 18.6478 304.305 29.9509 301.895 43.3248C299.485 56.6988 290.384 67.0788 281.567 66.51C272.75 65.9409 267.557 54.6388 269.967 41.2643Z" fill="#E2810E"/>
<path d="M268.656 40.9173C271.066 27.5434 280.167 17.1627 288.984 17.7319C297.801 18.3009 302.994 29.6039 300.584 42.9779C298.174 56.3519 289.073 66.732 280.256 66.1629C271.44 65.594 266.246 54.2918 268.656 40.9173Z" fill="#FFB93E"/>
<path d="M288.342 21.2452C280.776 20.7488 272.952 29.632 270.9 41.047C268.848 52.4624 273.334 62.1535 280.899 62.6496C288.465 63.1458 296.289 54.2631 298.34 42.8477C300.392 31.4325 295.907 21.7416 288.342 21.2452ZM280.663 63.9629C276.766 63.7076 273.513 61.1765 271.505 56.838C269.496 52.4988 268.972 46.8705 270.029 40.9899C271.087 35.1095 273.598 29.6804 277.101 25.7031C280.604 21.7257 284.68 19.6762 288.577 19.9318C292.475 20.1877 295.727 22.7181 297.735 27.057C299.744 31.396 300.268 37.0242 299.211 42.9048C298.154 48.7854 295.642 54.2144 292.139 58.1919C288.636 62.169 284.561 64.2183 280.663 63.9629Z" fill="#FFA412"/>
<path d="M285.418 48.4578C285.54 47.9885 285.605 47.5646 285.614 47.1857C285.622 46.8066 285.567 46.4475 285.451 46.1084C285.333 45.7692 285.155 45.4383 284.915 45.1155C284.675 44.7931 284.366 44.459 283.988 44.1134C283.342 43.5096 282.769 42.9031 282.272 42.2954C281.773 41.6869 281.382 41.0316 281.098 40.3284C280.814 39.6253 280.653 38.8465 280.616 37.9918C280.58 37.1373 280.704 36.1623 280.989 35.0671C281.235 34.1175 281.568 33.2785 281.987 32.5506C282.405 31.8232 282.89 31.2193 283.441 30.739C283.992 30.2592 284.593 29.9078 285.246 29.6856C285.898 29.4637 286.584 29.3895 287.302 29.4641L288.234 25.8768L290.08 26.3434L289.136 29.9808C289.762 30.2822 290.291 30.7077 290.723 31.2572C291.154 31.8066 291.472 32.4587 291.678 33.2131C291.883 33.9681 291.972 34.8209 291.942 35.7718C291.912 36.7231 291.752 37.7574 291.462 38.8747L288.126 38.0318C288.475 36.6911 288.545 35.6398 288.337 34.8787C288.129 34.1179 287.705 33.6562 287.066 33.4948C286.72 33.4074 286.403 33.4077 286.113 33.4952C285.824 33.5828 285.565 33.7379 285.335 33.9593C285.105 34.1814 284.905 34.4611 284.735 34.7994C284.566 35.1375 284.427 35.5135 284.32 35.927C284.212 36.3403 284.153 36.7243 284.143 37.0789C284.133 37.4336 284.185 37.7772 284.3 38.1099C284.414 38.4425 284.595 38.7738 284.841 39.1039C285.087 39.4342 285.407 39.7918 285.799 40.1766C286.431 40.8009 286.994 41.4195 287.487 42.0322C287.979 42.6451 288.367 43.3058 288.651 44.0142C288.934 44.723 289.093 45.5047 289.13 46.3592C289.166 47.2142 289.044 48.1834 288.762 49.2673C288.507 50.2506 288.168 51.106 287.745 51.8324C287.323 52.5593 286.837 53.1572 286.289 53.6257C285.741 54.0948 285.139 54.4311 284.484 54.6345C283.829 54.8381 283.141 54.9025 282.423 54.8282L281.557 58.1633L279.721 57.7L280.584 54.3812C279.971 54.1193 279.41 53.7452 278.901 53.2595C278.392 52.7736 277.989 52.1569 277.691 51.4086C277.393 50.6608 277.231 49.7712 277.204 48.74C277.176 47.709 277.336 46.5229 277.685 45.1821L281.02 46.025C280.814 46.8183 280.713 47.4985 280.717 48.065C280.722 48.6319 280.803 49.1048 280.958 49.4835C281.114 49.8622 281.327 50.1544 281.598 50.3595C281.868 50.5647 282.161 50.7071 282.477 50.7869C282.838 50.8783 283.174 50.8859 283.485 50.8097C283.796 50.7334 284.077 50.5902 284.329 50.3796C284.58 50.1694 284.798 49.8998 284.982 49.5711C285.165 49.2425 285.311 48.8716 285.418 48.4578Z" fill="#FFA412"/>
<path d="M108.498 96.0798C108.463 96.031 108.431 95.9795 108.401 95.9256L108.155 95.4585C108.051 95.2623 107.922 94.9914 107.789 94.7157C107.656 94.4401 107.494 94.0805 107.349 93.6927C107.281 93.4965 107.2 93.3003 107.119 93.0855C107.039 92.8706 106.974 92.651 106.894 92.4034C106.733 91.9363 106.604 91.4318 106.462 90.8993C105.871 88.5666 105.639 86.1314 105.777 83.7054C105.803 83.1766 105.851 82.6497 105.922 82.1265C105.943 81.8928 105.974 81.6605 106.015 81.4305C106.055 81.225 106.088 80.9634 106.132 80.7765C106.188 80.3654 106.293 79.9964 106.362 79.6741C106.421 79.3955 106.494 79.1211 106.579 78.8519C106.652 78.6277 106.692 78.4736 106.733 78.3381C106.746 78.2767 106.767 78.2183 106.797 78.1653C106.793 78.2292 106.78 78.2921 106.761 78.3521C106.724 78.4829 106.68 78.6604 106.628 78.8706C106.575 79.0808 106.499 79.3705 106.438 79.6928C106.378 80.0151 106.281 80.3888 106.221 80.7999C106.188 81.0101 106.152 81.225 106.116 81.4492C106.079 81.6734 106.063 81.9163 106.027 82.1452C105.967 82.6124 105.938 83.1589 105.898 83.7148C105.849 84.9174 105.875 86.1226 105.975 87.321C106.1 88.5172 106.302 89.7008 106.579 90.8619C106.72 91.3851 106.841 91.8943 106.982 92.3567C107.055 92.5903 107.124 92.8239 107.2 93.0434L107.422 93.646C107.559 94.0384 107.712 94.3701 107.825 94.669C107.938 94.968 108.071 95.2249 108.172 95.4305L108.393 95.8976C108.438 95.9499 108.474 96.0118 108.498 96.0798Z" fill="white"/>
<path d="M121.939 77.0255C121.818 76.5942 121.79 76.1358 121.858 75.6895C121.898 75.6895 121.943 75.9744 121.967 76.3388C122.007 76.5668 121.997 76.8028 121.939 77.0255Z" fill="white"/>
<path d="M126.707 104.694C126.605 104.745 126.5 104.788 126.392 104.82C126.101 104.923 125.805 105.006 125.506 105.067C124.525 105.294 123.526 105.392 122.527 105.357C121.513 105.319 120.507 105.148 119.527 104.848C119.161 104.722 118.858 104.619 118.657 104.521C118.551 104.484 118.448 104.436 118.35 104.376C118.46 104.392 118.568 104.421 118.673 104.465C118.878 104.54 119.181 104.633 119.556 104.736C120.525 105.005 121.514 105.162 122.51 105.203C123.508 105.236 124.505 105.156 125.489 104.965C125.868 104.885 126.171 104.815 126.384 104.764C126.488 104.722 126.597 104.698 126.707 104.694Z" fill="white"/>
<path d="M249.701 277.944C250.332 282.73 249.724 287.626 247.955 292.012C246.185 296.399 243.332 300.078 239.758 302.586C236.183 305.094 232.047 306.317 227.873 306.1C223.699 305.884 219.673 304.238 216.306 301.371C212.939 298.504 210.381 294.544 208.956 289.993C207.531 285.441 207.302 280.502 208.3 275.799C209.297 271.097 211.475 266.843 214.558 263.576C217.642 260.308 221.492 258.173 225.623 257.441H225.663C231.197 256.468 236.837 258.081 241.345 261.926C245.852 265.771 248.858 271.532 249.701 277.944Z" fill="#F5F5F5"/>
<path d="M244.731 278.794C245.211 282.441 244.748 286.171 243.4 289.512C242.051 292.854 239.878 295.657 237.155 297.568C234.431 299.478 231.28 300.41 228.1 300.245C224.92 300.08 221.853 298.827 219.288 296.642C216.722 294.458 214.774 291.441 213.688 287.973C212.602 284.506 212.428 280.743 213.187 277.16C213.947 273.578 215.606 270.337 217.955 267.847C220.305 265.357 223.238 263.731 226.385 263.173H226.413C230.629 262.432 234.927 263.661 238.362 266.59C241.797 269.519 244.087 273.909 244.731 278.794Z" fill="#EBEBEB"/>
<path d="M244.65 278.21C244.338 277.528 244.091 276.809 243.912 276.066C243.301 274.164 242.443 272.381 241.369 270.778C239.758 268.407 237.675 266.525 235.298 265.294C234.616 264.948 233.912 264.662 233.193 264.439C231.669 263.93 230.087 263.696 228.501 263.743C227.674 263.767 226.849 263.864 226.034 264.033C222.901 264.69 220.013 266.435 217.754 269.036C215.906 271.162 214.533 273.779 213.755 276.659C213.231 278.602 212.969 280.626 212.977 282.662C213.05 283.427 213.05 284.199 212.977 284.965C212.688 284.255 212.53 283.484 212.514 282.699C212.306 280.571 212.443 278.416 212.917 276.346C213.619 273.233 215.009 270.385 216.948 268.083C218.092 266.722 219.404 265.566 220.842 264.654C221.603 264.165 222.399 263.751 223.22 263.416C225.244 262.56 227.394 262.181 229.545 262.301C231.697 262.42 233.806 263.036 235.749 264.112C237.087 264.846 238.332 265.789 239.45 266.915C240.418 267.886 241.287 268.983 242.038 270.185C243.122 271.915 243.921 273.863 244.392 275.93C244.613 276.661 244.701 277.438 244.65 278.21Z" fill="#E0E0E0"/>
<path d="M232.04 292.233L232.5 295.442L230.025 295.91L229.582 292.794C227.373 293.13 225.128 292.743 223.099 291.677L223.962 287.94C225.546 288.816 227.299 289.2 229.049 289.057L228.368 284.269C225.51 284.016 222.293 283.549 221.713 279.462C221.285 276.426 222.809 273.455 226.647 272.193L226.195 269.064L228.666 268.596L229.11 271.717C230.895 271.491 232.701 271.76 234.379 272.502L233.637 276.239C232.363 275.684 231.006 275.425 229.646 275.477L230.339 280.34C233.185 280.564 236.354 281.045 236.93 285.077C237.35 288.034 235.822 290.972 232.04 292.233ZM227.759 280.055L227.183 275.986C225.921 276.589 225.522 277.514 225.655 278.458C225.788 279.401 226.619 279.892 227.759 280.083V280.055ZM233 286.165C232.859 285.161 232.065 284.764 230.94 284.535L231.504 288.482C232.689 287.94 233.129 287.085 233 286.165Z" fill="#E0E0E0"/>
<path d="M289.891 52.7719L269.687 167.14H183.006L203.919 52.7719H289.891Z" fill="#E6E7E8"/>
<path d="M158.984 267.387H238.321C239.753 267.387 240.913 266.042 240.913 264.383V144.18C240.913 142.522 239.753 141.177 238.321 141.177H158.984C157.553 141.177 156.392 142.522 156.392 144.18V264.383C156.392 266.042 157.553 267.387 158.984 267.387Z" fill="#2B478B"/>
<path d="M152.417 267.387H231.754C233.186 267.387 234.346 266.042 234.346 264.383V144.18C234.346 142.522 233.186 141.177 231.754 141.177H152.417C150.986 141.177 149.825 142.522 149.825 144.18V264.383C149.825 266.042 150.986 267.387 152.417 267.387Z" fill="#A4C8FC"/>
<g opacity="0.2">
<path d="M152.417 267.387H231.754C233.186 267.387 234.346 266.042 234.346 264.383V144.18C234.346 142.522 233.186 141.177 231.754 141.177H152.417C150.986 141.177 149.825 142.522 149.825 144.18V264.383C149.825 266.042 150.986 267.387 152.417 267.387Z" fill="white"/>
</g>
<path d="M156.231 168.784H228.175C228.711 168.784 229.146 168.28 229.146 167.658V151.603C229.146 150.981 228.711 150.477 228.175 150.477H156.231C155.694 150.477 155.259 150.981 155.259 151.603V167.658C155.259 168.28 155.694 168.784 156.231 168.784Z" fill="white"/>
<g opacity="0.2">
<path d="M194.611 197.321H207.277C207.814 197.321 208.249 196.817 208.249 196.196V181.518C208.249 180.897 207.814 180.392 207.277 180.392H194.611C194.075 180.392 193.64 180.897 193.64 181.518V196.196C193.64 196.817 194.075 197.321 194.611 197.321Z" fill="white"/>
</g>
<path d="M193.055 197.321H205.721C206.258 197.321 206.693 196.817 206.693 196.196V181.518C206.693 180.896 206.258 180.392 205.721 180.392H193.055C192.519 180.392 192.084 180.896 192.084 181.518V196.196C192.084 196.817 192.519 197.321 193.055 197.321Z" fill="#6589DC"/>
<path d="M200.194 162.184C200.428 162.38 200.713 162.477 201.001 162.459C201.191 162.474 201.382 162.426 201.55 162.321C201.718 162.216 201.857 162.058 201.952 161.866C202.195 161.229 202.299 160.533 202.254 159.839C202.099 160.089 201.885 160.282 201.638 160.395C201.363 160.528 201.068 160.594 200.771 160.591C200.397 160.597 200.027 160.501 199.691 160.31C199.37 160.124 199.104 159.834 198.925 159.474C198.73 159.059 198.634 158.592 198.647 158.12C198.624 157.776 198.666 157.431 198.77 157.108C198.873 156.785 199.036 156.492 199.247 156.248C199.457 156.005 199.711 155.818 199.99 155.699C200.269 155.58 200.567 155.532 200.864 155.56C201.206 155.524 201.551 155.594 201.863 155.763C202.174 155.932 202.442 156.194 202.637 156.522C202.989 157.164 203.164 158.146 203.161 159.47C203.177 160.222 203.111 160.974 202.964 161.707C202.87 162.222 202.63 162.686 202.283 163.025C201.89 163.344 201.415 163.5 200.936 163.468C200.384 163.51 199.841 163.297 199.425 162.875C199.071 162.481 198.86 161.947 198.832 161.38H199.791C199.836 161.696 199.979 161.982 200.194 162.184ZM201.827 159.175C202.048 158.885 202.162 158.506 202.146 158.12C202.167 157.704 202.047 157.294 201.811 156.98C201.692 156.842 201.55 156.734 201.393 156.663C201.236 156.592 201.068 156.56 200.9 156.569C200.731 156.559 200.562 156.591 200.405 156.663C200.247 156.736 200.106 156.847 199.989 156.989C199.776 157.297 199.66 157.679 199.66 158.073C199.66 158.467 199.776 158.849 199.989 159.157C200.119 159.303 200.274 159.416 200.444 159.488C200.614 159.559 200.796 159.588 200.977 159.572C201.135 159.581 201.292 159.55 201.439 159.481C201.586 159.413 201.718 159.308 201.827 159.175Z" fill="#2F2E41"/>
<path d="M204.85 156.639C205.209 155.947 205.822 155.602 206.697 155.602C207.571 155.602 208.184 155.947 208.543 156.639C208.939 157.524 209.124 158.516 209.079 159.512C209.126 160.517 208.941 161.518 208.543 162.413C208.324 162.739 208.044 163.002 207.724 163.184C207.404 163.365 207.053 163.46 206.697 163.46C206.34 163.46 205.989 163.365 205.669 163.184C205.349 163.002 205.069 162.739 204.85 162.413C204.455 161.517 204.27 160.516 204.314 159.512C204.27 158.516 204.455 157.525 204.85 156.639ZM207.958 158.04C207.905 157.679 207.765 157.342 207.555 157.069C207.313 156.828 207.004 156.695 206.685 156.695C206.365 156.695 206.056 156.828 205.814 157.069C205.605 157.343 205.466 157.68 205.411 158.04C205.34 158.522 205.308 159.009 205.314 159.498C205.306 159.998 205.338 160.498 205.407 160.992C205.455 161.357 205.595 161.697 205.81 161.969C206.054 162.21 206.364 162.343 206.685 162.343C207.005 162.343 207.316 162.21 207.559 161.969C207.774 161.697 207.914 161.357 207.963 160.992C208.028 160.498 208.058 159.998 208.051 159.498C208.058 159.014 208.027 158.531 207.958 158.054V158.04Z" fill="#2F2E41"/>
<path d="M211.47 162.025L210.361 164.954H209.684L210.333 162.025H211.47Z" fill="#2F2E41"/>
<path d="M212.784 156.639C213.143 155.947 213.755 155.602 214.63 155.602C214.99 155.563 215.353 155.639 215.678 155.821C216.004 156.004 216.28 156.287 216.476 156.639C216.871 157.524 217.056 158.516 217.012 159.512C217.057 160.516 216.872 161.517 216.476 162.413C216.258 162.739 215.978 163.002 215.658 163.184C215.338 163.365 214.986 163.46 214.63 163.46C214.274 163.46 213.922 163.365 213.602 163.184C213.282 163.002 213.002 162.739 212.784 162.413C212.386 161.518 212.201 160.517 212.248 159.512C212.203 158.516 212.388 157.524 212.784 156.639ZM215.888 158.04C215.833 157.68 215.693 157.343 215.485 157.069C215.371 156.938 215.234 156.838 215.084 156.773C214.934 156.709 214.774 156.682 214.614 156.695C214.454 156.681 214.294 156.707 214.143 156.772C213.993 156.836 213.857 156.938 213.743 157.069C213.535 157.344 213.395 157.68 213.34 158.04C213.273 158.522 213.242 159.01 213.247 159.498C213.241 159.998 213.27 160.498 213.336 160.992C213.384 161.357 213.525 161.697 213.739 161.969C213.983 162.21 214.293 162.343 214.614 162.343C214.935 162.343 215.245 162.21 215.489 161.969C215.703 161.697 215.843 161.357 215.892 160.992C215.961 160.498 215.992 159.998 215.984 159.498C215.99 159.014 215.957 158.531 215.888 158.054V158.04Z" fill="#2F2E41"/>
<path d="M218.653 156.639C218.85 156.286 219.127 156.003 219.453 155.82C219.779 155.637 220.143 155.562 220.503 155.602C221.378 155.602 221.991 155.947 222.35 156.639C222.746 157.524 222.931 158.516 222.886 159.512C222.932 160.517 222.747 161.518 222.35 162.413C222.131 162.739 221.851 163.002 221.531 163.184C221.211 163.365 220.86 163.46 220.503 163.46C220.147 163.46 219.796 163.365 219.476 163.184C219.156 163.002 218.876 162.739 218.657 162.413C218.261 161.517 218.076 160.516 218.121 159.512C218.076 158.516 218.259 157.525 218.653 156.639ZM221.761 158.04C221.708 157.679 221.568 157.342 221.358 157.069C221.244 156.938 221.108 156.836 220.958 156.772C220.807 156.707 220.647 156.681 220.487 156.695C220.328 156.682 220.167 156.709 220.017 156.773C219.867 156.838 219.731 156.938 219.617 157.069C219.408 157.343 219.268 157.68 219.213 158.04C219.143 158.522 219.111 159.009 219.117 159.498C219.111 159.998 219.142 160.498 219.209 160.992C219.258 161.357 219.398 161.697 219.613 161.969C219.728 162.099 219.865 162.199 220.016 162.264C220.166 162.328 220.327 162.355 220.487 162.342C220.648 162.356 220.809 162.329 220.959 162.265C221.11 162.2 221.247 162.099 221.362 161.969C221.577 161.697 221.717 161.357 221.765 160.992C221.832 160.498 221.863 159.998 221.858 159.498C221.863 159.014 221.831 158.531 221.761 158.054V158.04Z" fill="#2F2E41"/>
<g opacity="0.2">
<path d="M213.187 197.321H225.853C226.389 197.321 226.824 196.817 226.824 196.196V181.518C226.824 180.897 226.389 180.392 225.853 180.392H213.187C212.65 180.392 212.215 180.897 212.215 181.518V196.196C212.215 196.817 212.65 197.321 213.187 197.321Z" fill="white"/>
</g>
<path d="M211.627 197.321H224.293C224.829 197.321 225.264 196.817 225.264 196.196V181.518C225.264 180.896 224.829 180.392 224.293 180.392H211.627C211.09 180.392 210.655 180.896 210.655 181.518V196.196C210.655 196.817 211.09 197.321 211.627 197.321Z" fill="#6589DC"/>
<g opacity="0.2">
<path d="M175.786 197.321H188.452C188.988 197.321 189.423 196.817 189.423 196.196V181.518C189.423 180.897 188.988 180.392 188.452 180.392H175.786C175.249 180.392 174.814 180.897 174.814 181.518V196.196C174.814 196.817 175.249 197.321 175.786 197.321Z" fill="white"/>
</g>
<path d="M174.226 197.321H186.892C187.428 197.321 187.863 196.817 187.863 196.196V181.518C187.863 180.896 187.428 180.392 186.892 180.392H174.226C173.689 180.392 173.254 180.896 173.254 181.518V196.196C173.254 196.817 173.689 197.321 174.226 197.321Z" fill="#6589DC"/>
<path d="M198.735 191.903C198.969 192.098 199.254 192.195 199.541 192.178C199.732 192.192 199.922 192.144 200.09 192.039C200.258 191.934 200.398 191.777 200.493 191.585C200.735 190.948 200.839 190.252 200.795 189.558C200.64 189.811 200.424 190.005 200.174 190.118C199.901 190.251 199.608 190.318 199.312 190.314C198.937 190.321 198.566 190.224 198.231 190.029C197.909 189.846 197.642 189.555 197.465 189.193C197.271 188.778 197.175 188.311 197.187 187.839C197.173 187.497 197.218 187.156 197.319 186.836C197.42 186.515 197.575 186.22 197.776 185.97C197.99 185.734 198.244 185.551 198.521 185.433C198.798 185.314 199.093 185.261 199.388 185.279C199.731 185.241 200.075 185.31 200.387 185.479C200.699 185.647 200.966 185.908 201.162 186.236C201.513 186.876 201.69 187.862 201.69 189.184C201.706 189.936 201.639 190.688 201.492 191.422C201.395 191.935 201.156 192.397 200.811 192.739C200.419 193.059 199.944 193.216 199.465 193.183C198.913 193.225 198.369 193.011 197.953 192.589C197.6 192.195 197.387 191.662 197.357 191.095H198.332C198.377 191.412 198.52 191.699 198.735 191.903ZM200.372 188.894C200.59 188.602 200.702 188.224 200.686 187.839C200.709 187.423 200.59 187.014 200.356 186.699C200.236 186.56 200.093 186.452 199.936 186.381C199.778 186.31 199.609 186.278 199.441 186.288C199.272 186.278 199.103 186.311 198.946 186.384C198.789 186.456 198.647 186.567 198.53 186.708C198.3 187.01 198.18 187.404 198.195 187.806C198.182 188.198 198.299 188.58 198.522 188.876C198.65 189.023 198.804 189.136 198.974 189.208C199.144 189.28 199.325 189.308 199.505 189.291C199.662 189.297 199.818 189.265 199.963 189.197C200.108 189.128 200.239 189.025 200.348 188.894H200.372Z" fill="white"/>
<g opacity="0.2">
<path d="M157.061 197.321H169.727C170.264 197.321 170.699 196.817 170.699 196.196V181.518C170.699 180.897 170.264 180.392 169.727 180.392H157.061C156.525 180.392 156.09 180.897 156.09 181.518V196.196C156.09 196.817 156.525 197.321 157.061 197.321Z" fill="white"/>
</g>
<path d="M155.501 197.321H168.167C168.704 197.321 169.139 196.817 169.139 196.196V181.518C169.139 180.896 168.704 180.392 168.167 180.392H155.501C154.965 180.392 154.53 180.896 154.53 181.518V196.196C154.53 196.817 154.965 197.321 155.501 197.321Z" fill="#6589DC"/>
<g opacity="0.2">
<path d="M194.611 219.104H207.277C207.814 219.104 208.249 218.6 208.249 217.978V203.301C208.249 202.679 207.814 202.175 207.277 202.175H194.611C194.075 202.175 193.64 202.679 193.64 203.301V217.978C193.64 218.6 194.075 219.104 194.611 219.104Z" fill="white"/>
</g>
<path d="M193.055 219.104H205.721C206.258 219.104 206.693 218.6 206.693 217.978V203.301C206.693 202.679 206.258 202.175 205.721 202.175H193.055C192.519 202.175 192.084 202.679 192.084 203.301V217.978C192.084 218.6 192.519 219.104 193.055 219.104Z" fill="#6589DC"/>
<g opacity="0.2">
<path d="M213.187 219.104H225.853C226.389 219.104 226.824 218.6 226.824 217.978V203.301C226.824 202.679 226.389 202.175 225.853 202.175H213.187C212.65 202.175 212.215 202.679 212.215 203.301V217.978C212.215 218.6 212.65 219.104 213.187 219.104Z" fill="white"/>
</g>
<path d="M211.627 219.104H224.293C224.829 219.104 225.264 218.6 225.264 217.978V203.301C225.264 202.679 224.829 202.175 224.293 202.175H211.627C211.09 202.175 210.655 202.679 210.655 203.301V217.978C210.655 218.6 211.09 219.104 211.627 219.104Z" fill="#6589DC"/>
<g opacity="0.2">
<path d="M175.786 219.104H188.452C188.988 219.104 189.423 218.6 189.423 217.978V203.301C189.423 202.679 188.988 202.175 188.452 202.175H175.786C175.249 202.175 174.814 202.679 174.814 203.301V217.978C174.814 218.6 175.249 219.104 175.786 219.104Z" fill="white"/>
</g>
<path d="M174.226 219.104H186.892C187.428 219.104 187.863 218.6 187.863 217.978V203.301C187.863 202.679 187.428 202.175 186.892 202.175H174.226C173.689 202.175 173.254 202.679 173.254 203.301V217.978C173.254 218.6 173.689 219.104 174.226 219.104Z" fill="#6589DC"/>
<path d="M200.223 208.304C200.007 208.127 199.745 208.041 199.481 208.061C199.268 208.048 199.056 208.1 198.867 208.212C198.677 208.325 198.516 208.493 198.401 208.701C198.117 209.36 197.987 210.095 198.026 210.831C198.189 210.514 198.431 210.262 198.719 210.107C199.029 209.938 199.368 209.851 199.711 209.855C200.084 209.847 200.452 209.951 200.779 210.158C201.088 210.361 201.339 210.665 201.501 211.032C201.671 211.454 201.759 211.914 201.759 212.379C201.759 212.845 201.671 213.305 201.501 213.727C201.34 214.119 201.08 214.445 200.755 214.661C200.391 214.894 199.981 215.008 199.566 214.993C199.041 215.034 198.52 214.869 198.086 214.526C197.713 214.178 197.449 213.699 197.332 213.162C197.177 212.444 197.105 211.706 197.119 210.966C197.119 208.375 197.906 207.08 199.481 207.08C200.008 207.045 200.527 207.251 200.924 207.654C201.267 208.022 201.487 208.518 201.545 209.056H200.59C200.546 208.763 200.416 208.498 200.223 208.304ZM198.534 211.261C198.398 211.4 198.292 211.574 198.222 211.768C198.152 211.962 198.121 212.172 198.131 212.382C198.121 212.593 198.148 212.805 198.211 213.004C198.273 213.203 198.369 213.385 198.493 213.54C198.627 213.69 198.786 213.806 198.96 213.881C199.134 213.956 199.32 213.988 199.505 213.975C199.674 213.985 199.842 213.953 199.999 213.881C200.157 213.809 200.299 213.699 200.416 213.559C200.647 213.256 200.767 212.86 200.751 212.456C200.77 212.038 200.653 211.627 200.424 211.303C200.302 211.154 200.153 211.039 199.988 210.965C199.823 210.89 199.646 210.859 199.469 210.873C199.127 210.866 198.794 211.004 198.534 211.261Z" fill="white"/>
<g opacity="0.2">
<path d="M157.061 219.104H169.727C170.264 219.104 170.699 218.6 170.699 217.978V203.301C170.699 202.679 170.264 202.175 169.727 202.175H157.061C156.525 202.175 156.09 202.679 156.09 203.301V217.978C156.09 218.6 156.525 219.104 157.061 219.104Z" fill="white"/>
</g>
<path d="M155.501 219.104H168.167C168.704 219.104 169.139 218.6 169.139 217.978V203.301C169.139 202.679 168.704 202.175 168.167 202.175H155.501C154.965 202.175 154.53 202.679 154.53 203.301V217.978C154.53 218.6 154.965 219.104 155.501 219.104Z" fill="#6589DC"/>
<path d="M215.102 207.897C215.378 207.608 215.737 207.448 216.109 207.448C216.482 207.448 216.841 207.608 217.117 207.897C217.368 208.236 217.506 208.668 217.506 209.114C217.506 209.561 217.368 209.992 217.117 210.331C216.842 210.623 216.483 210.785 216.109 210.785C215.736 210.785 215.377 210.623 215.102 210.331C214.851 209.992 214.713 209.561 214.713 209.114C214.713 208.668 214.851 208.236 215.102 207.897ZM215.505 209.112C215.505 209.733 215.698 210.046 216.081 210.046C216.163 210.052 216.245 210.033 216.32 209.994C216.394 209.954 216.459 209.893 216.509 209.817C216.624 209.607 216.677 209.36 216.662 209.112C216.662 208.489 216.468 208.178 216.081 208.178C215.718 208.187 215.525 208.495 215.525 209.112H215.505ZM220.278 207.594L216.621 214.979H215.597L219.294 207.594H220.278ZM218.806 212.237C219.083 211.949 219.442 211.789 219.814 211.789C220.186 211.789 220.545 211.949 220.822 212.237C221.073 212.576 221.211 213.007 221.211 213.454C221.211 213.9 221.073 214.332 220.822 214.671C220.548 214.965 220.188 215.128 219.814 215.128C219.44 215.128 219.08 214.965 218.806 214.671C218.555 214.332 218.417 213.9 218.417 213.454C218.417 213.007 218.555 212.576 218.806 212.237ZM219.209 213.451C219.209 214.068 219.399 214.386 219.786 214.386C220.173 214.386 220.362 214.077 220.362 213.451C220.362 212.826 220.169 212.517 219.786 212.517C219.403 212.517 219.246 212.835 219.246 213.451H219.209Z" fill="white"/>
<g opacity="0.2">
<path d="M194.611 240.886H207.277C207.814 240.886 208.249 240.382 208.249 239.76V225.083C208.249 224.461 207.814 223.957 207.277 223.957H194.611C194.075 223.957 193.64 224.461 193.64 225.083V239.76C193.64 240.382 194.075 240.886 194.611 240.886Z" fill="white"/>
</g>
<path d="M193.055 240.886H205.721C206.258 240.886 206.693 240.382 206.693 239.76V225.083C206.693 224.461 206.258 223.957 205.721 223.957H193.055C192.519 223.957 192.084 224.461 192.084 225.083V239.76C192.084 240.382 192.519 240.886 193.055 240.886Z" fill="#6589DC"/>
<g opacity="0.2">
<path d="M213.187 240.886H225.853C226.389 240.886 226.824 240.382 226.824 239.76V225.083C226.824 224.461 226.389 223.957 225.853 223.957H213.187C212.65 223.957 212.215 224.461 212.215 225.083V239.76C212.215 240.382 212.65 240.886 213.187 240.886Z" fill="white"/>
</g>
<path d="M211.627 240.886H224.293C224.829 240.886 225.264 240.382 225.264 239.76V225.083C225.264 224.461 224.829 223.957 224.293 223.957H211.627C211.09 223.957 210.655 224.461 210.655 225.083V239.76C210.655 240.382 211.09 240.886 211.627 240.886Z" fill="#6589DC"/>
<g opacity="0.2">
<path d="M175.786 240.886H188.452C188.988 240.886 189.423 240.382 189.423 239.76V225.083C189.423 224.461 188.988 223.957 188.452 223.957H175.786C175.249 223.957 174.814 224.461 174.814 225.083V239.76C174.814 240.382 175.249 240.886 175.786 240.886Z" fill="white"/>
</g>
<path d="M174.226 240.886H186.892C187.428 240.886 187.863 240.382 187.863 239.76V225.083C187.863 224.461 187.428 223.957 186.892 223.957H174.226C173.689 223.957 173.254 224.461 173.254 225.083V239.76C173.254 240.382 173.689 240.886 174.226 240.886Z" fill="#6589DC"/>
<path d="M197.856 229.395C198.298 229.014 198.838 228.82 199.388 228.843C199.771 228.832 200.15 228.923 200.497 229.11C200.787 229.265 201.033 229.515 201.202 229.829C201.361 230.142 201.444 230.499 201.44 230.861C201.449 231.265 201.343 231.661 201.138 231.987C200.958 232.277 200.706 232.495 200.416 232.613V232.655C200.758 232.767 201.056 233.013 201.259 233.351C201.472 233.735 201.577 234.185 201.561 234.641C201.567 235.031 201.48 235.415 201.311 235.752C201.14 236.09 200.884 236.358 200.577 236.523C200.215 236.72 199.817 236.816 199.416 236.803C198.836 236.829 198.267 236.621 197.804 236.215C197.589 236.009 197.416 235.751 197.297 235.459C197.179 235.166 197.118 234.847 197.119 234.524H198.127C198.131 234.701 198.167 234.876 198.232 235.036C198.298 235.197 198.391 235.341 198.505 235.458C198.76 235.708 199.088 235.835 199.421 235.813C199.577 235.825 199.734 235.8 199.882 235.738C200.029 235.677 200.164 235.582 200.279 235.458C200.383 235.335 200.463 235.188 200.515 235.028C200.567 234.867 200.59 234.695 200.581 234.524C200.599 234.322 200.572 234.119 200.501 233.934C200.43 233.749 200.319 233.588 200.178 233.468C199.796 233.228 199.362 233.119 198.929 233.155H198.691V232.165H198.937C199.329 232.187 199.72 232.088 200.07 231.88C200.199 231.791 200.305 231.662 200.376 231.508C200.447 231.354 200.481 231.181 200.473 231.006C200.478 230.856 200.455 230.705 200.406 230.566C200.356 230.426 200.282 230.301 200.186 230.198C199.962 229.98 199.673 229.871 199.38 229.895C199.088 229.869 198.798 229.979 198.574 230.198C198.387 230.392 198.267 230.657 198.235 230.946H197.22C197.221 230.649 197.279 230.356 197.389 230.088C197.499 229.82 197.659 229.583 197.856 229.395Z" fill="white"/>
<g opacity="0.2">
<path d="M157.061 240.886H169.727C170.264 240.886 170.699 240.382 170.699 239.76V225.083C170.699 224.461 170.264 223.957 169.727 223.957H157.061C156.525 223.957 156.09 224.461 156.09 225.083V239.76C156.09 240.382 156.525 240.886 157.061 240.886Z" fill="white"/>
</g>
<path d="M155.501 240.886H168.167C168.704 240.886 169.139 240.382 169.139 239.76V225.083C169.139 224.461 168.704 223.957 168.167 223.957H155.501C154.965 223.957 154.53 224.461 154.53 225.083V239.76C154.53 240.382 154.965 240.886 155.501 240.886Z" fill="#6589DC"/>
<path d="M219.842 232.305V233.323H216.069V232.305H219.842Z" fill="white"/>
<g opacity="0.2">
<path d="M194.611 262.01H207.277C207.814 262.01 208.249 261.506 208.249 260.884V246.207C208.249 245.585 207.814 245.081 207.277 245.081H194.611C194.075 245.081 193.64 245.585 193.64 246.207V260.884C193.64 261.506 194.075 262.01 194.611 262.01Z" fill="white"/>
</g>
<path d="M193.055 262.01H205.721C206.258 262.01 206.693 261.506 206.693 260.884V246.207C206.693 245.585 206.258 245.081 205.721 245.081H193.055C192.519 245.081 192.084 245.585 192.084 246.207V260.884C192.084 261.506 192.519 262.01 193.055 262.01Z" fill="#6589DC"/>
<path d="M199.396 255.732C199.237 255.736 199.078 255.704 198.93 255.635C198.782 255.567 198.647 255.465 198.534 255.335C198.421 255.207 198.332 255.054 198.273 254.886C198.213 254.717 198.184 254.536 198.187 254.354C198.184 254.168 198.213 253.985 198.272 253.813C198.332 253.641 198.421 253.485 198.534 253.354C198.647 253.223 198.781 253.12 198.93 253.051C199.078 252.982 199.237 252.948 199.396 252.952C199.554 252.952 199.711 252.987 199.857 253.058C200.003 253.128 200.135 253.232 200.246 253.363C200.356 253.493 200.444 253.648 200.502 253.818C200.56 253.988 200.589 254.17 200.586 254.354C200.588 254.598 200.533 254.838 200.428 255.05C200.323 255.254 200.175 255.425 199.997 255.545C199.816 255.671 199.608 255.735 199.396 255.732Z" fill="white"/>
<g opacity="0.2">
<path d="M213.187 262.01H225.853C226.389 262.01 226.824 261.506 226.824 260.884V246.207C226.824 245.585 226.389 245.081 225.853 245.081H213.187C212.65 245.081 212.215 245.585 212.215 246.207V260.884C212.215 261.506 212.65 262.01 213.187 262.01Z" fill="white"/>
</g>
<path d="M211.627 262.01H224.293C224.829 262.01 225.264 261.506 225.264 260.884V246.207C225.264 245.585 224.829 245.081 224.293 245.081H211.627C211.09 245.081 210.655 245.585 210.655 246.207V260.884C210.655 261.506 211.09 262.01 211.627 262.01Z" fill="#6589DC"/>
<g opacity="0.2">
<path d="M175.786 262.01H188.452C188.988 262.01 189.423 261.506 189.423 260.884V246.207C189.423 245.585 188.988 245.081 188.452 245.081H175.786C175.249 245.081 174.814 245.585 174.814 246.207V260.884C174.814 261.506 175.249 262.01 175.786 262.01Z" fill="white"/>
</g>
<path d="M174.226 262.01H186.892C187.428 262.01 187.863 261.506 187.863 260.884V246.207C187.863 245.585 187.428 245.081 186.892 245.081H174.226C173.689 245.081 173.254 245.585 173.254 246.207V260.884C173.254 261.506 173.689 262.01 174.226 262.01Z" fill="#6589DC"/>
<path d="M178.225 253.545H180.075V251.35H181.047V253.545H182.897V254.587H181.047V256.787H180.075V254.587H178.225V253.545Z" fill="white"/>
<g opacity="0.2">
<path d="M157.061 262.01H169.727C170.264 262.01 170.699 261.506 170.699 260.884V246.207C170.699 245.585 170.264 245.081 169.727 245.081H157.061C156.525 245.081 156.09 245.585 156.09 246.207V260.884C156.09 261.506 156.525 262.01 157.061 262.01Z" fill="white"/>
</g>
<path d="M155.501 262.01H168.167C168.704 262.01 169.139 261.506 169.139 260.884V246.207C169.139 245.585 168.704 245.081 168.167 245.081H155.501C154.965 245.081 154.53 245.585 154.53 246.207V260.884C154.53 261.506 154.965 262.01 155.501 262.01Z" fill="#6589DC"/>
<path d="M220.399 252.336V253.354H215.525V252.336H220.399ZM220.399 254.746V255.764H215.525V254.746H220.399Z" fill="white"/>
<path d="M297.716 47.5401H201.835V52.7719H297.716V47.5401Z" fill="#BCBEC0"/>
<path d="M289.891 52.7719L251.979 267.387H257.695L295.305 52.7719H289.891Z" fill="#BCBEC0"/>
<path d="M295.305 52.7719L324.495 268.947H317.872L292.193 70.5276L295.305 52.7719Z" fill="#D1D3D4"/>
<path d="M272.545 182.644H310.051V187.357H271.719L272.545 182.644Z" fill="#BCBEC0"/>
<path d="M198.59 139.117C198.544 139.115 198.499 139.097 198.461 139.065C198.421 139.025 198.395 138.968 198.39 138.906C198.385 138.844 198.4 138.783 198.433 138.734L216.573 113.018C216.595 112.988 216.623 112.964 216.655 112.949C216.686 112.935 216.721 112.93 216.755 112.935C216.788 112.94 216.821 112.955 216.848 112.979C216.876 113.002 216.897 113.033 216.912 113.069L223.116 128.989L253.256 84.8546C253.281 84.8178 253.314 84.7905 253.353 84.7763C253.391 84.7621 253.432 84.7617 253.47 84.7752C253.508 84.7868 253.542 84.8113 253.568 84.8454C253.594 84.8795 253.61 84.9217 253.615 84.9667L258.396 128.821L267.93 120.156C267.972 120.123 268.023 120.11 268.073 120.12C268.123 120.129 268.168 120.159 268.199 120.205C268.231 120.251 268.246 120.309 268.242 120.367C268.239 120.425 268.216 120.48 268.18 120.52L258.364 129.442C258.337 129.469 258.304 129.486 258.269 129.492C258.234 129.498 258.199 129.492 258.166 129.475C258.133 129.461 258.103 129.435 258.081 129.402C258.059 129.369 258.045 129.33 258.041 129.288L253.252 85.5786L223.208 129.583C223.186 129.614 223.158 129.638 223.125 129.653C223.093 129.668 223.057 129.672 223.023 129.667C222.989 129.662 222.956 129.647 222.929 129.623C222.901 129.599 222.879 129.568 222.866 129.531L216.658 113.607L198.735 139.033C198.717 139.058 198.695 139.078 198.67 139.092C198.645 139.107 198.618 139.115 198.59 139.117Z" fill="#0071F2"/>
<path d="M268.603 122.351C269.749 122.351 270.679 121.274 270.679 119.946C270.679 118.617 269.749 117.54 268.603 117.54C267.456 117.54 266.527 118.617 266.527 119.946C266.527 121.274 267.456 122.351 268.603 122.351Z" fill="#0071F2"/>
<path d="M264.455 109.954C265.601 109.954 266.531 108.877 266.531 107.548C266.531 106.219 265.601 105.142 264.455 105.142C263.308 105.142 262.379 106.219 262.379 107.548C262.379 108.877 263.308 109.954 264.455 109.954Z" fill="#2F2E41"/>
<path d="M204.177 139.117C204.139 139.115 204.101 139.101 204.069 139.076C204.037 139.051 204.012 139.016 203.997 138.975C203.981 138.934 203.976 138.888 203.981 138.844C203.987 138.8 204.003 138.758 204.028 138.724L231.355 104.96C231.38 104.928 231.412 104.905 231.448 104.894C231.484 104.882 231.521 104.883 231.557 104.895C231.592 104.905 231.624 104.926 231.649 104.957C231.674 104.988 231.691 105.026 231.698 105.067L237.362 134.964L245.259 126.831C245.284 126.804 245.316 126.785 245.35 126.776C245.383 126.767 245.419 126.768 245.452 126.78C245.485 126.792 245.515 126.814 245.539 126.843C245.563 126.873 245.581 126.909 245.589 126.948L247.294 135.001L263.495 108.477C263.511 108.452 263.53 108.431 263.553 108.414C263.575 108.398 263.6 108.387 263.626 108.381C263.653 108.376 263.68 108.377 263.706 108.384C263.731 108.391 263.756 108.404 263.778 108.421C263.821 108.458 263.85 108.513 263.859 108.574C263.868 108.635 263.856 108.697 263.826 108.748L247.367 135.688C247.346 135.726 247.315 135.755 247.279 135.771C247.243 135.788 247.203 135.792 247.165 135.781C247.127 135.773 247.092 135.753 247.064 135.722C247.037 135.691 247.017 135.652 247.008 135.609L245.275 127.415L237.374 135.552C237.348 135.581 237.316 135.601 237.282 135.61C237.247 135.619 237.211 135.618 237.177 135.605C237.144 135.593 237.113 135.57 237.09 135.54C237.066 135.509 237.05 135.471 237.043 135.431L231.4 105.595L204.334 139.037C204.316 139.064 204.292 139.085 204.264 139.099C204.237 139.113 204.207 139.119 204.177 139.117Z" fill="#2F2E41"/>
<path d="M220.822 189.768H215.102C215.048 189.767 214.998 189.742 214.96 189.698C214.923 189.655 214.901 189.596 214.9 189.534C214.9 189.472 214.921 189.413 214.959 189.369C214.997 189.325 215.048 189.301 215.102 189.301H220.822C220.875 189.301 220.927 189.325 220.964 189.369C221.002 189.413 221.023 189.472 221.023 189.534C221.023 189.596 221.002 189.656 220.964 189.699C220.927 189.743 220.875 189.768 220.822 189.768Z" fill="white"/>
<path d="M217.964 193.066C218.393 193.066 218.742 192.662 218.742 192.164C218.742 191.666 218.393 191.263 217.964 191.263C217.534 191.263 217.186 191.666 217.186 192.164C217.186 192.662 217.534 193.066 217.964 193.066Z" fill="white"/>
<path d="M217.964 187.909C218.393 187.909 218.742 187.505 218.742 187.007C218.742 186.509 218.393 186.106 217.964 186.106C217.534 186.106 217.186 186.509 217.186 187.007C217.186 187.505 217.534 187.909 217.964 187.909Z" fill="white"/>
<path d="M68.3843 188.399L72.8669 189.801C72.8669 189.801 82.2232 202.175 74.04 226.022H50.5344C47.0761 226.026 43.6823 224.938 40.7171 222.876C37.752 220.813 35.3277 217.854 33.7044 214.316C30.2739 206.809 28.1615 196.303 33.7648 184.625L56.5367 171.723L68.3843 188.399Z" fill="#2B478B"/>
<path d="M66.8121 101.662C66.8121 101.662 65.9212 102.919 65.3448 107.786L54.6865 112.925L55.1621 105.918C55.1621 105.918 58.8788 102.12 61.882 94.7531C61.882 94.7391 62.7004 99.5693 66.8121 101.662Z" fill="#F9B499"/>
<path d="M66.8121 101.662C65.9431 103.555 65.4423 105.645 65.3448 107.786C65.3448 107.786 62.785 104.451 62.3134 96.2526C62.3134 96.2526 63.7565 100.116 66.8121 101.662Z" fill="#F7A48B"/>
<path d="M62.4473 87.9408C60.386 93.1293 62.3439 99.2713 66.8203 101.659C71.2967 104.047 76.5965 101.777 78.6578 96.5888L83.2987 84.9071C85.36 79.7187 83.4021 73.5766 78.9257 71.1885C74.4493 68.8005 69.1495 71.0706 67.0882 76.2591L62.4473 87.9408Z" fill="#F9B499"/>
<path d="M69.255 79.7722C69.255 79.7722 88.4755 83.4438 86.7582 72.4989C86.7582 72.4989 84.5491 52.7392 62.5915 58.4242C62.5915 58.4242 52.2879 59.849 47.503 77.7589C47.503 77.7589 46.0316 89.4138 35.0064 94.5289C35.0064 94.5289 25.3317 98.266 23.7192 115.587C23.1747 120.682 24.0445 125.846 26.2024 130.33C28.1971 134.397 31.2826 137.598 34.9903 139.448L47.0152 114.148C47.0152 114.148 51.784 107.324 55.1621 105.904C55.1621 105.904 59.0844 101.914 61.882 94.7391C61.882 94.7391 60.9347 91.7308 62.4383 87.9423L65.1352 81.1502L69.255 79.7722Z" fill="#2F2E41"/>
<path d="M69.0468 81.054C69.7843 78.1967 68.7238 75.3057 66.6783 74.5968C64.6327 73.8879 62.3767 75.6295 61.6393 78.4868C60.9019 81.3442 61.9623 84.2352 64.0079 84.9441C66.0534 85.6529 68.3094 83.9113 69.0468 81.054Z" fill="#F9B499"/>
<path d="M71.065 122.178C71.065 122.178 84.3274 142.732 80.8566 150.762C80.8566 150.762 79.5545 154.836 74.4995 161.829C73.039 163.848 71.9425 166.186 71.2746 168.705C70.3837 172.073 69.4525 177.001 69.7347 182.2C69.8106 183.242 69.9534 184.276 70.162 185.293C70.4966 187.105 69.5331 192.001 47.6521 188.684C47.6521 188.684 39.7188 187.68 36.8648 184.232L49.9861 132.666L71.065 122.178Z" fill="#A4C8FC"/>
<path d="M33.7648 142.578L27.186 159.666C27.186 159.666 22.1148 172.166 30.4754 182.364C30.4754 182.364 35.861 188.829 50.9859 185.522C50.9859 185.522 78.1316 182.794 91.1481 175.754C91.1481 175.754 96.2273 180.925 103.915 171.157L107.914 175.684C108.266 176.087 108.741 176.312 109.236 176.312C109.731 176.312 110.206 176.087 110.558 175.684C110.903 175.283 111.101 174.742 111.109 174.176C111.118 173.61 110.936 173.062 110.602 172.647L105.362 166.164C104.744 165.385 104.16 164.571 103.612 163.725C102.701 162.324 100.17 159.932 94.498 162.842L86.8711 167.009L55.2266 156.489L55.8635 155.088L33.7648 142.578Z" fill="#F9B499"/>
<path d="M55.2266 156.489L49.0187 166.112C49.0187 166.112 57.5929 159.773 64.0911 159.423L55.2266 156.489Z" fill="#F7A48B"/>
<path d="M75.1606 194.327C75.1606 194.327 107.676 193.299 120.035 195.686C120.035 195.686 131.024 196.28 136.692 208.416C142.36 220.552 158.323 250.794 158.323 250.794L141.67 263.332C141.67 263.332 119.866 238.658 115.573 224.733L74.052 226.013C74.052 226.013 80.643 208.112 75.1606 194.327Z" fill="#F9B499"/>
<path d="M115.573 224.751C115.372 222.568 115.372 220.367 115.573 218.184C115.573 218.184 109.732 222.981 99.0895 225.261L115.573 224.751Z" fill="#F7A48B"/>
<path d="M141.67 263.351C145.028 267.284 154.461 273.669 154.461 273.669V275.253C173.166 285.474 177.882 280.718 177.882 280.718C166.018 272.441 158.323 250.822 158.323 250.822L141.67 263.351Z" fill="#E1E1E2"/>
<path d="M161.153 287.595C164.392 288.021 167.565 288.965 170.582 290.397C173.319 292.691 180.317 295.508 180.317 295.508C191.261 298.68 190.197 292.336 190.197 292.336C191.261 285.637 177.882 280.704 177.882 280.704C177.882 280.704 173.166 285.46 154.461 275.239C150.809 287.754 161.153 287.595 161.153 287.595Z" fill="#233862"/>
<path d="M62.3738 194.122H118.612V187.918H62.3738V194.122Z" fill="#0071F2"/>
<g opacity="0.2">
<path d="M62.3738 194.121H118.612V187.918H62.3738V194.121Z" fill="black"/>
</g>
<path d="M118.608 194.11L138.521 136.652L133.553 134.34L113.64 191.798L118.608 194.11Z" fill="#0071F2"/>
<g opacity="0.2">
<path d="M118.608 194.11L138.521 136.652L133.553 134.34L113.64 191.798L118.608 194.11Z" fill="white"/>
</g>
<path d="M115.573 193.127C116.575 193.127 117.387 192.185 117.387 191.024C117.387 189.863 116.575 188.922 115.573 188.922C114.571 188.922 113.759 189.863 113.759 191.024C113.759 192.185 114.571 193.127 115.573 193.127Z" fill="white"/>
<path d="M36.8527 238.597H111.11V225.256H36.8527V238.597Z" fill="#0071F2"/>
<g opacity="0.2">
<path d="M36.8527 238.597H111.11V225.256H36.8527V238.597Z" fill="white"/>
</g>
<g opacity="0.2">
<path d="M36.8527 229.764H111.11V225.256H36.8527V229.764Z" fill="black"/>
</g>
<g opacity="0.2">
<path d="M83.2511 238.597H97.606V225.256H83.2511V238.597Z" fill="white"/>
</g>
<g opacity="0.2">
<path d="M52.4734 238.597H56.6859V225.256H52.4734V238.597Z" fill="white"/>
</g>
<g opacity="0.2">
<path d="M46.7733 238.597H49.0025V225.256H46.7733V238.597Z" fill="white"/>
</g>
<path d="M46.7693 251.943H121.027V238.602H46.7693V251.943Z" fill="#0071F2"/>
<g opacity="0.2">
<path d="M46.7693 251.943H121.027V238.602H46.7693V251.943Z" fill="white"/>
</g>
<g opacity="0.2">
<path d="M46.7693 243.105H121.027V238.597H46.7693V243.105Z" fill="black"/>
</g>
<g opacity="0.2">
<path d="M93.1677 251.943H107.523V238.602H93.1677V251.943Z" fill="white"/>
</g>
<g opacity="0.2">
<path d="M62.39 251.943H66.6025V238.602H62.39V251.943Z" fill="white"/>
</g>
<g opacity="0.2">
<path d="M56.6899 251.943H58.9191V238.602H56.6899V251.943Z" fill="white"/>
</g>
<path d="M36.8527 265.284H111.11V251.943H36.8527V265.284Z" fill="#0071F2"/>
<g opacity="0.2">
<path d="M36.8527 265.284H111.11V251.943H36.8527V265.284Z" fill="white"/>
</g>
<g opacity="0.2">
<path d="M36.8527 256.446H111.11V251.938H36.8527V256.446Z" fill="black"/>
</g>
<g opacity="0.2">
<path d="M83.2511 265.284H97.606V251.943H83.2511V265.284Z" fill="white"/>
</g>
<g opacity="0.2">
<path d="M52.4734 265.284H56.6859V251.943H52.4734V265.284Z" fill="white"/>
</g>
<g opacity="0.2">
<path d="M46.7733 265.284H49.0025V251.943H46.7733V265.284Z" fill="white"/>
</g>
<path d="M40.2671 278.63H114.525V265.289H40.2671V278.63Z" fill="#0071F2"/>
<g opacity="0.2">
<path d="M40.2671 278.63H114.525V265.289H40.2671V278.63Z" fill="white"/>
</g>
<g opacity="0.2">
<path d="M40.2671 269.792H114.525V265.284H40.2671V269.792Z" fill="black"/>
</g>
<g opacity="0.2">
<path d="M86.6615 278.63H101.016V265.289H86.6615V278.63Z" fill="white"/>
</g>
<g opacity="0.2">
<path d="M55.8837 278.63H60.0962V265.289H55.8837V278.63Z" fill="white"/>
</g>
<g opacity="0.2">
<path d="M50.1877 278.63H52.4169V265.289H50.1877V278.63Z" fill="white"/>
</g>
<path d="M46.7693 291.621H121.027V278.28H46.7693V291.621Z" fill="#0071F2"/>
<g opacity="0.2">
<path d="M46.7693 291.621H121.027V278.28H46.7693V291.621Z" fill="white"/>
</g>
<g opacity="0.2">
<path d="M46.7693 282.788H121.027V278.28H46.7693V282.788Z" fill="black"/>
</g>
<g opacity="0.2">
<path d="M93.1677 291.621H107.523V278.28H93.1677V291.621Z" fill="white"/>
</g>
<g opacity="0.2">
<path d="M62.39 291.621H66.6025V278.28H62.39V291.621Z" fill="white"/>
</g>
<g opacity="0.2">
<path d="M56.6899 291.621H58.9191V278.28H56.6899V291.621Z" fill="white"/>
</g>
<path d="M55.8474 155.088L33.7648 142.578L47.0152 114.148C47.0152 114.148 54.9888 98.5089 66.5178 108.744C66.5178 108.744 75.8419 115.284 68.1303 132.483L55.8474 155.088Z" fill="#2B478B"/>
<g opacity="0.2">
<path d="M55.8474 155.088L33.7648 142.578L47.0152 114.148C47.0152 114.148 54.9888 98.5089 66.5178 108.744C66.5178 108.744 75.8419 115.284 68.1303 132.483L55.8474 155.088Z" fill="#2B478B"/>
</g>
<path d="M164.753 186.386L162.205 193.192H161.153L163.729 186.512H160.339V185.484H164.753V186.386Z" fill="white"/>
<path d="M159.407 213.367V212.456L162.483 207.318H163.749V212.298H164.6V213.349H163.749V214.96H162.721V213.349L159.407 213.367ZM162.769 208.57L160.609 212.307H162.769V208.57Z" fill="white"/>
<path d="M160.383 230.128V229.026H162.29V236.761H161.246V230.128H160.383Z" fill="white"/>
<path d="M161.056 251.046C161.415 250.355 162.028 250.014 162.902 250.014C163.777 250.014 164.39 250.355 164.749 251.046C165.145 251.932 165.33 252.923 165.285 253.919C165.331 254.924 165.146 255.925 164.749 256.82C164.53 257.146 164.25 257.41 163.93 257.591C163.61 257.773 163.259 257.867 162.902 257.867C162.546 257.867 162.195 257.773 161.875 257.591C161.555 257.41 161.275 257.146 161.056 256.82C160.66 255.925 160.475 254.924 160.52 253.919C160.476 252.923 160.661 251.932 161.056 251.046ZM164.164 252.448C164.109 252.087 163.97 251.751 163.761 251.476C163.519 251.235 163.21 251.103 162.89 251.103C162.571 251.103 162.262 251.235 162.02 251.476C161.811 251.751 161.671 252.087 161.616 252.448C161.546 252.929 161.514 253.417 161.52 253.905C161.512 254.406 161.543 254.906 161.612 255.4C161.661 255.764 161.801 256.104 162.016 256.376C162.259 256.618 162.57 256.75 162.89 256.75C163.211 256.75 163.521 256.618 163.765 256.376C163.977 256.102 164.117 255.763 164.168 255.4C164.234 254.905 164.263 254.405 164.257 253.905C164.261 253.422 164.23 252.939 164.164 252.462V252.448Z" fill="white"/>
<path d="M178.362 187.413C178.355 187.032 178.446 186.658 178.622 186.336C178.798 186.014 179.053 185.76 179.354 185.606C179.736 185.419 180.148 185.323 180.563 185.323C180.978 185.323 181.389 185.419 181.772 185.606C182.081 185.765 182.341 186.029 182.518 186.362C182.684 186.679 182.77 187.043 182.768 187.413C182.774 187.785 182.683 188.15 182.506 188.46C182.335 188.76 182.096 189 181.817 189.156C182.144 189.297 182.425 189.551 182.623 189.885C182.827 190.232 182.933 190.646 182.925 191.066C182.932 191.499 182.827 191.924 182.623 192.286C182.415 192.646 182.123 192.929 181.78 193.103C181.393 193.294 180.976 193.393 180.555 193.393C180.134 193.393 179.717 193.294 179.329 193.103C178.989 192.928 178.698 192.644 178.491 192.286C178.287 191.924 178.182 191.499 178.188 191.066C178.179 190.643 178.285 190.226 178.491 189.875C178.691 189.547 178.972 189.296 179.297 189.156C179.009 189.007 178.766 188.761 178.599 188.451C178.432 188.14 178.35 187.779 178.362 187.413ZM179.571 190.029C179.444 190.148 179.344 190.301 179.278 190.474C179.212 190.647 179.183 190.836 179.192 191.024C179.187 191.209 179.217 191.393 179.28 191.563C179.344 191.732 179.439 191.884 179.559 192.005C179.838 192.272 180.194 192.407 180.555 192.384C180.914 192.406 181.267 192.269 181.542 192.001C181.661 191.878 181.754 191.728 181.817 191.559C181.88 191.39 181.91 191.208 181.905 191.024C181.914 190.837 181.885 190.65 181.819 190.478C181.754 190.306 181.655 190.154 181.53 190.034C181.25 189.79 180.905 189.667 180.555 189.688C180.204 189.671 179.859 189.791 179.575 190.029H179.571ZM181.438 186.652C181.187 186.423 180.873 186.308 180.555 186.33C180.242 186.31 179.933 186.425 179.688 186.652C179.576 186.769 179.489 186.914 179.433 187.076C179.378 187.238 179.354 187.412 179.366 187.586C179.362 187.751 179.39 187.914 179.448 188.065C179.506 188.215 179.592 188.348 179.7 188.455C179.941 188.683 180.245 188.801 180.555 188.787C180.869 188.802 181.177 188.68 181.417 188.446C181.527 188.34 181.614 188.207 181.673 188.056C181.731 187.906 181.76 187.742 181.756 187.577C181.768 187.405 181.746 187.232 181.692 187.072C181.637 186.912 181.552 186.768 181.442 186.652H181.438Z" fill="white"/>
<path d="M182.49 208.285H179.422V210.396C179.573 210.175 179.77 210.003 179.994 209.897C180.247 209.763 180.523 209.694 180.801 209.696C181.241 209.672 181.677 209.806 182.05 210.079C182.356 210.313 182.595 210.648 182.736 211.041C182.872 211.433 182.942 211.852 182.941 212.274C182.95 212.758 182.862 213.238 182.683 213.676C182.507 214.069 182.235 214.394 181.901 214.61C181.45 214.875 180.945 214.994 180.44 214.956C179.935 214.917 179.448 214.722 179.031 214.39C178.629 214.013 178.37 213.468 178.309 212.872H179.325C179.386 213.19 179.545 213.471 179.773 213.662C180.028 213.865 180.333 213.969 180.643 213.956C180.826 213.969 181.009 213.933 181.178 213.852C181.346 213.771 181.497 213.647 181.619 213.489C181.848 213.143 181.964 212.714 181.946 212.279C181.969 211.853 181.851 211.434 181.615 211.106C181.487 210.962 181.335 210.851 181.167 210.78C181 210.709 180.821 210.68 180.643 210.695C180.374 210.685 180.11 210.777 179.89 210.957C179.681 211.133 179.525 211.379 179.442 211.662H178.459V207.22H182.49V208.285Z" fill="white"/>
<path d="M179.043 235.117C179.632 234.528 180.095 234.046 180.434 233.669C180.755 233.314 181.04 232.915 181.28 232.482C181.494 232.12 181.612 231.693 181.619 231.254C181.636 230.895 181.544 230.541 181.357 230.254C181.254 230.129 181.128 230.032 180.988 229.97C180.849 229.908 180.7 229.882 180.551 229.895C180.394 229.883 180.238 229.913 180.092 229.982C179.947 230.051 179.817 230.157 179.712 230.292C179.504 230.595 179.391 230.973 179.394 231.361H178.386C178.366 231.028 178.407 230.693 178.508 230.38C178.609 230.066 178.767 229.782 178.971 229.545C179.175 229.309 179.421 229.126 179.691 229.009C179.962 228.892 180.251 228.843 180.539 228.867C180.823 228.847 181.107 228.892 181.376 229.002C181.645 229.111 181.892 229.281 182.103 229.502C182.293 229.725 182.441 229.991 182.539 230.284C182.636 230.576 182.679 230.889 182.667 231.202C182.666 231.717 182.55 232.222 182.332 232.669C182.114 233.131 181.843 233.557 181.526 233.935C181.22 234.304 180.825 234.734 180.349 235.224L179.946 235.65H182.848V236.654H178.414V235.776L179.043 235.117Z" fill="white"/>
<path d="M317.464 231.399C317.662 225.592 317.593 219.777 317.259 213.979C316.521 202.017 314.947 190.144 312.55 178.477C311.236 171.909 309.62 165.449 307.935 159.003C307.882 158.806 307.62 158.862 307.665 159.063C312.873 181.817 317.15 205.281 316.848 228.895C316.767 235.542 316.11 242.007 315.566 248.58C315.566 248.757 315.8 248.827 315.832 248.645C316.916 243.068 317.251 237.172 317.464 231.399Z" fill="#0071F2"/>
<path d="M307.665 159.11C307.665 159.11 299.768 182.326 301.529 187.787C303.291 193.248 306.943 194.434 306.943 194.434C306.943 194.434 302.106 202.408 305.488 209.92C308.87 217.431 316.372 217.062 316.86 225.555C316.848 225.527 317.283 189.997 307.665 159.11Z" fill="#B6D3FD"/>
<path d="M316.009 210.859C316.021 210.818 316.021 210.774 316.009 210.733C314.968 194.879 312.399 179.211 308.35 164.02C308.35 163.977 308.273 164.02 308.285 164.02C309.847 170.808 311.23 177.635 312.434 184.499C311.372 183.336 310.076 182.499 308.664 182.065C308.636 182.065 308.624 182.102 308.664 182.112C310.149 182.742 311.481 183.775 312.55 185.125C312.788 186.451 313.01 187.783 313.224 189.165C311.462 186.876 309.015 185.751 306.564 184.671C306.532 184.671 306.512 184.718 306.564 184.732C309.116 185.933 311.651 187.484 313.385 190.048C313.987 193.904 314.514 197.768 314.965 201.642C313.69 200.1 312.056 199.019 310.261 198.531C310.212 198.531 310.176 198.611 310.233 198.629C312.086 199.249 313.744 200.48 315.005 202.17H315.038C315.195 203.534 315.344 204.903 315.481 206.267C314.494 205.3 313.381 204.521 312.184 203.959C312.155 203.959 312.139 204.006 312.184 204.02C313.405 204.632 314.523 205.49 315.485 206.557C315.493 206.561 315.501 206.563 315.509 206.563C315.518 206.563 315.526 206.561 315.533 206.557C315.658 207.888 315.791 209.163 315.904 210.466C314.127 207.977 311.821 206.066 309.213 204.922C309.207 204.919 309.202 204.919 309.196 204.919C309.191 204.92 309.185 204.922 309.18 204.925C309.175 204.928 309.171 204.932 309.168 204.937C309.164 204.942 309.162 204.948 309.16 204.954C309.158 204.96 309.157 204.966 309.158 204.973C309.158 204.979 309.159 204.985 309.161 204.991C309.164 204.996 309.167 205.001 309.171 205.006C309.175 205.01 309.179 205.013 309.184 205.015C311.76 206.335 314.022 208.356 315.779 210.906C315.799 210.933 315.825 210.953 315.854 210.964C315.884 210.975 315.915 210.975 315.945 210.966C316.119 212.956 316.271 214.949 316.4 216.946C316.4 216.946 316.44 216.978 316.44 216.946C316.271 214.96 316.182 212.905 316.009 210.859Z" fill="#3F4347"/>
<path d="M309.664 179.79C308.236 178.76 306.604 178.17 304.924 178.076C304.916 178.076 304.909 178.079 304.904 178.085C304.898 178.091 304.895 178.1 304.895 178.108C304.895 178.117 304.898 178.125 304.904 178.131C304.909 178.137 304.916 178.141 304.924 178.141C306.547 178.496 308.124 179.093 309.616 179.916C309.672 179.949 309.725 179.846 309.664 179.79Z" fill="#3F4347"/>
<path d="M310.624 204.37C309.525 203.646 308.317 203.17 307.064 202.969C307.059 202.967 307.053 202.966 307.047 202.967C307.041 202.968 307.036 202.971 307.031 202.974C307.026 202.978 307.023 202.983 307.02 202.989C307.017 202.995 307.016 203.002 307.016 203.009C307.016 203.015 307.017 203.022 307.02 203.028C307.023 203.034 307.026 203.039 307.031 203.043C307.036 203.047 307.041 203.049 307.047 203.05C307.053 203.051 307.059 203.051 307.064 203.048C308.289 203.333 309.473 203.814 310.583 204.478C310.628 204.492 310.668 204.398 310.624 204.37Z" fill="#3F4347"/>
<path d="M338.213 188.166C334.876 190.839 331.811 193.941 329.078 197.415C326.259 201.099 324.084 205.383 322.673 210.027C319.677 219.685 318.065 229.845 317.9 240.106C317.799 245.795 318.271 251.478 319.307 257.04C319.307 257.063 319.313 257.086 319.322 257.107C319.331 257.128 319.344 257.146 319.36 257.161C319.376 257.176 319.394 257.186 319.414 257.192C319.434 257.197 319.454 257.198 319.474 257.194C319.494 257.189 319.513 257.18 319.529 257.166C319.546 257.152 319.56 257.135 319.57 257.115C319.58 257.094 319.586 257.071 319.588 257.048C319.59 257.025 319.587 257.001 319.581 256.979C318.29 247.165 318.339 237.177 319.726 227.381C321.08 217.772 323.213 207.323 328.477 199.517C331.344 195.271 334.927 191.926 338.463 188.469C338.644 188.301 338.41 188.002 338.213 188.166Z" fill="#0071F2"/>
<path d="M319.049 233.206C320.952 229.646 323.188 226.339 325.716 223.345C329.663 218.767 332.972 215.516 333.504 212.494C334.036 209.471 329.546 207.234 329.546 207.234C329.546 207.234 335.012 208.374 336.503 205.716C337.995 203.058 338.725 187.666 338.725 187.666C338.725 187.666 328.796 195.892 324.156 207.407C319.516 218.922 319.049 233.206 319.049 233.206Z" fill="#B6D3FD"/>
<path d="M335.29 191.613C331.11 196.378 326.897 201.446 324.434 207.701C323.596 209.868 322.862 212.087 322.237 214.348C322.112 214.815 321.979 215.259 321.858 215.717C321.854 215.74 321.854 215.764 321.858 215.787C320.691 220.464 319.749 225.213 319.037 230.011C319.037 230.011 319.077 230.058 319.081 230.011C319.504 227.61 319.98 225.186 320.508 222.766H320.564C321.395 222.354 322.277 222.094 323.177 221.995C323.233 221.995 323.229 221.869 323.177 221.879C322.299 221.92 321.431 222.103 320.597 222.42C321.076 220.244 321.6 218.067 322.209 215.923C324.142 215.381 326.119 215.082 328.107 215.03V214.993C326.163 214.89 324.215 215.081 322.314 215.563C322.411 215.199 322.519 214.834 322.628 214.465C323.919 214.106 325.23 213.848 326.551 213.694M326.551 213.643C325.257 213.675 323.97 213.858 322.709 214.19C323.253 212.321 323.854 210.504 324.487 208.724C325.02 207.263 325.647 205.85 326.361 204.497C327.409 204.194 328.473 203.972 329.546 203.833C329.574 203.833 329.574 203.772 329.546 203.772C328.527 203.689 327.504 203.813 326.522 204.137C327.046 203.165 327.599 202.208 328.179 201.273C330.412 200.703 332.67 200.171 334.955 200.671C334.988 200.671 335.004 200.596 334.955 200.591C332.787 199.923 330.63 200.311 328.469 200.801C328.699 200.437 328.941 200.082 329.191 199.727C330.534 199.252 331.93 199.006 333.335 198.998C333.363 198.998 333.367 198.942 333.335 198.942C332.031 198.802 330.715 198.938 329.453 199.344C331.291 196.686 333.327 194.206 335.342 191.725C335.459 191.58 335.391 191.538 335.29 191.627L326.551 213.643Z" fill="#3F4347"/>
<path d="M335.181 202.105C334.526 201.997 333.862 201.97 333.202 202.025C333.183 202.032 333.167 202.047 333.157 202.067C333.147 202.087 333.145 202.111 333.15 202.133C333.154 202.147 333.161 202.16 333.17 202.171C333.179 202.181 333.19 202.189 333.202 202.194C333.855 202.194 334.516 202.152 335.169 202.194C335.179 202.191 335.188 202.183 335.194 202.173C335.2 202.163 335.203 202.15 335.201 202.138C335.197 202.125 335.19 202.114 335.181 202.105Z" fill="#3F4347"/>
<path d="M328.022 217.039C326.974 217.068 325.939 217.308 324.962 217.749V217.8C325.974 217.525 326.978 217.413 328.022 217.212C328.042 217.212 328.062 217.202 328.076 217.186C328.09 217.169 328.099 217.147 328.099 217.123C328.097 217.1 328.089 217.079 328.075 217.063C328.06 217.048 328.042 217.039 328.022 217.039Z" fill="#3F4347"/>
<path d="M325.877 211.882C325.441 211.876 325.005 211.92 324.575 212.013C324.535 212.013 324.535 212.107 324.575 212.107C325.01 212.135 325.447 212.111 325.877 212.037C325.958 212.022 325.958 211.882 325.877 211.882Z" fill="#3F4347"/>
<path d="M289.92 204.497C293.155 205.765 296.255 207.458 299.159 209.542C302.174 211.761 304.788 214.639 306.854 218.015C311.221 225.036 314.565 232.837 316.755 241.11C317.969 245.687 318.721 250.412 318.996 255.19C318.993 255.208 318.986 255.225 318.977 255.24C318.968 255.256 318.957 255.269 318.943 255.279C318.93 255.289 318.914 255.295 318.899 255.299C318.883 255.302 318.867 255.301 318.851 255.297C318.829 255.291 318.809 255.278 318.793 255.259C318.777 255.24 318.767 255.216 318.762 255.19C317.844 246.901 315.812 238.829 312.74 231.268C309.725 223.854 305.919 215.983 300.122 211.064C296.95 208.406 293.39 206.645 289.839 204.795C289.601 204.725 289.73 204.426 289.92 204.497Z" fill="#0071F2"/>
<path d="M314.429 235.818C312.18 233.447 309.713 231.369 307.072 229.624C302.96 226.966 299.615 225.237 298.607 222.925C297.599 220.613 300.723 217.609 300.723 217.609C300.723 217.609 296.527 219.991 294.789 218.24C293.052 216.488 289.392 204.226 289.392 204.226C289.392 204.226 299.066 208.215 305.113 216.315C311.16 224.415 314.429 235.818 314.429 235.818Z" fill="#B6D3FD"/>
<path d="M313.889 233.295C309.051 222.752 302.577 213.209 293.733 206.93C296.046 208.655 298.216 210.624 300.215 212.811C298.413 212.697 296.616 213.136 295.007 214.082C295.003 214.086 295.001 214.09 294.999 214.095C294.997 214.1 294.996 214.105 294.996 214.11C294.996 214.115 294.997 214.121 294.999 214.125C295.001 214.13 295.003 214.135 295.007 214.138H295.031C296.742 213.392 298.561 213.035 300.388 213.087C300.397 213.092 300.407 213.094 300.417 213.094C300.426 213.094 300.436 213.092 300.445 213.087C300.759 213.433 301.07 213.788 301.38 214.138C300.444 214.189 299.513 214.335 298.599 214.573M298.599 214.61C299.566 214.4 300.549 214.306 301.533 214.33C303.162 216.231 304.693 218.24 306.121 220.346C305.471 220.238 304.808 220.292 304.178 220.505C304.172 220.514 304.168 220.524 304.168 220.536C304.168 220.547 304.172 220.557 304.178 220.566V220.589C304.867 220.497 305.563 220.486 306.254 220.557C306.524 220.949 306.786 221.337 307.06 221.734C305.083 221.594 303.099 221.817 301.183 222.397V222.453C303.172 221.991 305.205 221.834 307.229 221.986C307.475 222.364 307.709 222.757 307.951 223.14C306.771 223.105 305.594 223.263 304.452 223.607C304.408 223.607 304.42 223.7 304.452 223.686C305.643 223.388 306.863 223.278 308.08 223.359C309.124 225.022 310.124 226.723 311.079 228.442C310.567 228.339 310.041 228.376 309.543 228.549M309.543 228.596C310.097 228.55 310.653 228.581 311.2 228.689C312.067 230.245 312.921 231.819 313.699 233.403C313.808 233.515 313.998 233.403 313.921 233.277L309.543 228.596Z" fill="#3F4347"/>
<path d="M306.367 224.555C305.413 224.475 304.454 224.61 303.545 224.952L306.367 224.555ZM303.545 224.999C304.479 224.827 305.421 224.724 306.367 224.691C306.447 224.691 306.447 224.583 306.367 224.579L303.545 224.999Z" fill="#3F4347"/>
<path d="M297.901 211.709C297.469 211.676 297.034 211.705 296.607 211.793C296.597 211.793 296.586 211.798 296.579 211.807C296.571 211.816 296.567 211.828 296.567 211.84C296.566 211.847 296.567 211.853 296.569 211.859C296.571 211.865 296.573 211.871 296.577 211.875C296.581 211.88 296.586 211.883 296.591 211.885C296.596 211.887 296.602 211.888 296.607 211.887C297.01 211.836 297.45 211.854 297.881 211.84C297.889 211.842 297.896 211.843 297.904 211.841C297.911 211.84 297.918 211.836 297.925 211.832C297.931 211.827 297.937 211.82 297.941 211.813C297.945 211.806 297.948 211.797 297.95 211.789C297.952 211.771 297.948 211.752 297.939 211.738C297.93 211.723 297.917 211.713 297.901 211.709Z" fill="#3F4347"/>
<path d="M326.897 270.661H305.036L308.152 244.198L308.951 237.42H322.983L323.781 244.198L326.897 270.661Z" fill="#2B478B"/>
<path d="M323.781 244.198H308.152L308.951 237.42H322.983L323.781 244.198Z" fill="#2E3135"/>
<path d="M324.991 235.061H306.943V240.811H324.991V235.061Z" fill="#2B478B"/>
<path d="M123.199 29.8107C121.579 16.2652 130.696 3.90177 143.563 2.19629C156.429 0.490703 168.172 10.089 169.792 23.6345C171.412 37.18 162.295 49.5429 149.429 51.2485C136.563 52.9541 124.819 43.3567 123.199 29.8107Z" fill="#E2810E"/>
<path d="M121.186 29.8107C119.566 16.2652 128.683 3.90175 141.55 2.19627C154.416 0.490794 166.159 10.089 167.78 23.6346C169.4 37.18 160.283 49.5429 147.416 51.2485C134.55 52.9541 122.807 43.3567 121.186 29.8107Z" fill="#FFB93E"/>
<path d="M141.962 5.75708C130.918 7.21269 123.065 17.8019 124.455 29.3621C125.845 40.9225 135.962 49.1434 147.005 47.6876C158.049 46.2317 165.902 35.643 164.511 24.0827C163.12 12.5224 153.005 4.30158 141.962 5.75708ZM147.164 49.0176C141.476 49.7678 135.848 48.153 131.319 44.4728C126.789 40.7919 123.901 35.4848 123.184 29.5295C122.469 23.5743 124.01 17.6835 127.527 12.9423C131.042 8.20101 136.113 5.17692 141.801 4.42704C147.491 3.67728 153.118 5.29139 157.647 8.97227C162.176 12.653 165.065 17.9599 165.782 23.9151C166.498 29.8704 164.956 35.7614 161.44 40.5026C157.923 45.2436 152.854 48.2674 147.164 49.0176Z" fill="#FFA412"/>
<path d="M148.1 32.812C148.097 32.3271 148.029 31.9007 147.897 31.5322C147.765 31.1637 147.551 30.8304 147.255 30.5324C146.957 30.2346 146.576 29.9602 146.109 29.7097C145.642 29.4594 145.072 29.2155 144.399 28.978C143.242 28.5595 142.19 28.1198 141.246 27.6595C140.3 27.1988 139.49 26.6653 138.815 26.0584C138.139 25.4514 137.613 24.7397 137.236 23.9228C136.86 23.1058 136.667 22.1316 136.66 21.0001C136.653 20.019 136.812 19.1228 137.137 18.3119C137.461 17.5017 137.927 16.7938 138.536 16.1886C139.144 15.5837 139.873 15.0903 140.725 14.7086C141.577 14.3271 142.532 14.0801 143.591 13.9684L143.565 10.2622L146.392 10.2408L146.418 13.9988C147.431 14.1299 148.352 14.406 149.18 14.8267C150.007 15.2476 150.711 15.7966 151.293 16.4733C151.874 17.1505 152.325 17.9523 152.643 18.8792C152.962 19.8065 153.124 20.8474 153.133 22.0016L148.027 22.0402C148.018 20.6548 147.719 19.6207 147.132 18.9381C146.544 18.2559 145.761 17.9178 144.783 17.9252C144.254 17.9293 143.798 18.0108 143.416 18.1695C143.035 18.3281 142.721 18.5444 142.476 18.8172C142.23 19.0907 142.049 19.4123 141.934 19.7827C141.819 20.1531 141.763 20.5519 141.766 20.9791C141.768 21.4063 141.83 21.7925 141.95 22.1379C142.07 22.4835 142.275 22.8022 142.566 23.0946C142.857 23.3868 143.241 23.661 143.721 23.917C144.199 24.1734 144.793 24.4373 145.502 24.709C146.646 25.1508 147.689 25.6047 148.629 26.0709C149.568 26.5375 150.375 27.0769 151.051 27.6892C151.727 28.3019 152.252 29.0169 152.629 29.8336C153.006 30.6508 153.198 31.6192 153.205 32.7391C153.213 33.7549 153.051 34.6686 152.72 35.4789C152.39 36.2897 151.92 36.9919 151.312 37.5851C150.704 38.1787 149.968 38.6578 149.105 39.0222C148.242 39.3866 147.28 39.6247 146.221 39.7367L146.245 43.1824L143.435 43.204L143.413 39.775C142.434 39.6786 141.487 39.4605 140.572 39.1212C139.658 38.7816 138.845 38.2886 138.133 37.6415C137.422 36.9946 136.852 36.1762 136.421 35.1863C135.99 34.1967 135.769 33.009 135.761 31.6237L140.866 31.5853C140.871 32.4049 140.984 33.0883 141.206 33.6348C141.428 34.1817 141.723 34.6182 142.09 34.9445C142.457 35.2708 142.874 35.4987 143.34 35.6278C143.806 35.7571 144.28 35.8197 144.764 35.8161C145.317 35.8119 145.802 35.7334 146.22 35.5801C146.637 35.4269 146.985 35.2165 147.266 34.9486C147.548 34.681 147.757 34.3647 147.896 33.9999C148.035 33.6352 148.103 33.2395 148.1 32.812Z" fill="#FFA412"/>
<path d="M29.233 63.5745C24.7988 56.7856 25.5577 48.1087 30.9282 44.1943C36.2981 40.28 44.246 42.6104 48.6801 49.3994C53.1143 56.1884 52.3552 64.8649 46.9853 68.7791C41.6149 72.6937 33.6673 70.3637 29.233 63.5745Z" fill="#E2810E"/>
<path d="M28.32 64.0456C23.8858 57.2567 24.6443 48.5801 30.0149 44.6656C35.385 40.7513 43.3329 43.0816 47.7671 49.8706C52.2013 56.6595 51.4426 65.3358 46.0721 69.2504C40.7021 73.1647 32.7543 70.8348 28.32 64.0456Z" fill="#FFB93E"/>
<path d="M31.1743 46.4535C26.5624 49.809 25.8924 57.2509 29.6799 63.0432C33.4679 68.8353 40.3017 70.8177 44.913 67.4623C49.5248 64.1067 50.1949 56.665 46.4069 50.8729C42.619 45.0808 35.7856 43.0983 31.1743 46.4535ZM45.3486 68.1288C42.9732 69.8574 39.9797 70.3202 36.9202 69.4329C33.8604 68.5452 31.1008 66.413 29.1493 63.4292C27.1983 60.4453 26.2887 56.9671 26.589 53.6348C26.8888 50.3028 28.3627 47.5156 30.7382 45.7872C33.1142 44.0586 36.1075 43.5955 39.1668 44.4833C42.2265 45.3709 44.986 47.5031 46.9375 50.4868C48.889 53.4705 49.7981 56.9491 49.4983 60.281C49.198 63.6132 47.7245 66.3999 45.3486 68.1288Z" fill="#FFA412"/>
<path d="M41.3471 59.3339C41.2133 59.078 41.066 58.8683 40.9058 58.704C40.7451 58.54 40.5569 58.4138 40.3412 58.3254C40.125 58.2374 39.8772 58.1814 39.5968 58.1582C39.3165 58.1352 38.9915 58.1394 38.6214 58.1713C37.9825 58.2206 37.3852 58.2341 36.8312 58.2116C36.2761 58.1894 35.763 58.0966 35.2911 57.9335C34.8191 57.7703 34.3858 57.517 33.9918 57.1729C33.5982 56.8285 33.2447 56.3581 32.9323 55.7611C32.6614 55.2434 32.4885 54.7321 32.4145 54.2268C32.3402 53.7222 32.3584 53.2384 32.4691 52.7757C32.5798 52.3132 32.7757 51.8815 33.0578 51.4801C33.34 51.0788 33.7058 50.7245 34.1559 50.4174L33.132 48.4621L34.4082 47.7892L35.4463 49.7718C35.9417 49.604 36.4347 49.5346 36.9252 49.5634C37.4152 49.5925 37.8846 49.7182 38.3332 49.9402C38.7819 50.1625 39.2055 50.4811 39.6027 50.8973C40.0005 51.3134 40.3586 51.8262 40.6777 52.435L38.3721 53.6507C37.9899 52.9196 37.5717 52.4424 37.119 52.2185C36.6661 51.9952 36.2186 51.9995 35.7772 52.2323C35.538 52.3585 35.3536 52.5082 35.2236 52.6817C35.094 52.8548 35.011 53.0427 34.9741 53.2445C34.9374 53.4467 34.9432 53.6592 34.9921 53.8822C35.041 54.1052 35.1245 54.3294 35.2426 54.5547C35.3603 54.7802 35.4936 54.9702 35.6426 55.1248C35.7912 55.2797 35.9716 55.4002 36.1833 55.4869C36.395 55.5734 36.6442 55.6285 36.9315 55.6519C37.2184 55.6756 37.5601 55.6762 37.9556 55.6541C38.5955 55.6199 39.1922 55.6162 39.7459 55.6428C40.2993 55.6699 40.8129 55.7663 41.2869 55.932C41.7604 56.0983 42.1941 56.3536 42.5881 56.6976C42.9822 57.0418 43.3336 57.5094 43.6429 58.1003C43.9237 58.6361 44.1 59.1574 44.1713 59.6636C44.2428 60.1701 44.2216 60.6516 44.1077 61.1079C43.9938 61.5645 43.7911 61.9901 43.4989 62.3851C43.2072 62.7799 42.836 63.1309 42.386 63.4383L43.3378 65.2562L42.0694 65.9252L41.1227 64.1159C40.6524 64.294 40.1635 64.4001 39.6557 64.4349C39.1482 64.4691 38.6449 64.3986 38.1453 64.2227C37.6463 64.0468 37.1639 63.7473 36.6982 63.3243C36.2325 62.9014 35.808 62.3245 35.4258 61.5934L37.7309 60.3781C37.9572 60.8106 38.1951 61.1458 38.445 61.383C38.695 61.6205 38.948 61.7825 39.2037 61.8692C39.4593 61.9559 39.7106 61.979 39.9573 61.9381C40.2037 61.8977 40.4361 61.8196 40.6545 61.7045C40.9044 61.5728 41.1027 61.4178 41.2503 61.2388C41.3975 61.0602 41.4983 60.8673 41.5526 60.6597C41.607 60.4523 41.6159 60.2357 41.5793 60.0102C41.5427 59.7846 41.4654 59.5594 41.3471 59.3339Z" fill="#FFA412"/>
</svg>
