<svg width="618" height="301" viewBox="0 0 618 301" fill="none" xmlns="http://www.w3.org/2000/svg">
<g clip-path="url(#clip0_14_59)">
<path d="M38.5519 301.714C38.5519 301.714 -37.3572 230.02 25.7146 152.399C81.6758 83.5288 146.921 88.2366 194.792 116.184C215.178 128.088 273.961 117.651 323.991 47.5737C392.218 -47.9928 628.721 9.96852 585.6 157.001C564.732 228.153 649.109 230.739 606.115 301.863L38.5519 301.714Z" fill="white"/>
<path d="M377.074 271.637C377.072 271.596 377.312 266.967 374.937 265.902L375.105 265.751C376.192 266.108 377.399 267.215 377.883 268.776C378.24 269.937 377.968 270.191 377.97 270.234L377.074 271.637Z" fill="#A4C8FC"/>
<path d="M361.323 259.639C361.323 259.639 362.136 265.599 365.997 267.344C369.858 269.088 375.307 265.956 375.307 265.956C375.307 265.956 374.495 259.998 370.633 258.252C366.772 256.507 361.323 259.639 361.323 259.639Z" fill="#A4C8FC"/>
<path d="M376.669 280.321C376.623 280.09 375.767 274.638 377.959 268.561C380.064 262.723 378.898 257.772 378.889 257.723H380.439C380.48 257.934 380.587 262.793 378.935 269.451C377.451 275.444 380.225 280.321 379.635 280.321H376.669Z" fill="#A4C8FC"/>
<path d="M379.922 264.227C379.931 264.196 380.672 260.201 382.661 259.745C381.772 259.854 380.641 260.455 380.009 261.571C379.539 262.401 379.704 262.635 379.696 262.668L379.922 264.227Z" fill="#A4C8FC"/>
<path d="M386.311 264.639C383.337 264.073 381.676 260.112 381.676 260.112C381.676 260.112 384.838 257.069 387.814 257.633C390.789 258.199 392.449 262.161 392.449 262.161C392.449 262.161 389.287 265.205 386.311 264.639Z" fill="#A4C8FC"/>
<path d="M363.197 251.73C358.46 244.959 360.451 235.855 367.644 231.394C374.839 226.935 384.511 228.809 389.248 235.58C393.987 242.352 391.996 251.457 384.803 255.916C377.608 260.375 367.936 258.502 363.197 251.73Z" fill="#FFB93E"/>
<path d="M368.975 233.295C362.822 237.11 361.112 244.926 365.164 250.719C369.217 256.511 377.521 258.119 383.674 254.304C389.828 250.489 391.538 242.674 387.485 236.882C383.432 231.09 375.129 229.48 368.975 233.295ZM384.141 254.97C380.97 256.935 377.177 257.622 373.46 256.9C369.742 256.18 366.546 254.142 364.456 251.157C362.369 248.173 361.641 244.602 362.406 241.103C363.171 237.604 365.339 234.593 368.509 232.628C371.679 230.664 375.471 229.978 379.19 230.698C382.907 231.418 386.104 233.459 388.191 236.443C390.281 239.426 391.009 242.996 390.244 246.498C389.479 249.997 387.311 253.005 384.141 254.97Z" fill="#FFA412"/>
<path d="M380.227 246.03C380.088 245.769 379.929 245.56 379.746 245.398C379.563 245.236 379.338 245.117 379.077 245.039C378.815 244.963 378.508 244.922 378.155 244.918C377.804 244.912 377.393 244.941 376.92 245C376.105 245.099 375.349 245.156 374.649 245.173C373.95 245.189 373.311 245.127 372.734 244.99C372.157 244.853 371.64 244.617 371.183 244.282C370.727 243.948 370.337 243.478 370.015 242.871C369.736 242.346 369.579 241.821 369.546 241.294C369.514 240.769 369.596 240.258 369.792 239.762C369.991 239.268 370.291 238.798 370.697 238.355C371.104 237.914 371.61 237.514 372.215 237.159L371.161 235.174L372.858 234.374L373.928 236.386C374.575 236.173 375.209 236.064 375.826 236.06C376.443 236.056 377.02 236.154 377.563 236.355C378.103 236.558 378.6 236.862 379.051 237.272C379.504 237.682 379.894 238.195 380.223 238.814L377.157 240.26C376.763 239.518 376.292 239.044 375.745 238.841C375.201 238.64 374.634 238.675 374.046 238.952C373.728 239.102 373.477 239.274 373.292 239.465C373.107 239.657 372.978 239.86 372.906 240.076C372.834 240.291 372.817 240.515 372.852 240.746C372.887 240.978 372.965 241.208 373.085 241.436C373.207 241.665 373.353 241.856 373.523 242.008C373.693 242.16 373.904 242.275 374.163 242.35C374.421 242.426 374.728 242.465 375.089 242.469C375.449 242.473 375.88 242.451 376.384 242.4C377.199 242.318 377.955 242.27 378.652 242.258C379.349 242.248 379.988 242.311 380.567 242.453C381.145 242.592 381.663 242.83 382.121 243.165C382.576 243.499 382.964 243.967 383.282 244.566C383.572 245.109 383.731 245.646 383.759 246.174C383.79 246.703 383.703 247.209 383.504 247.699C383.304 248.188 382.995 248.651 382.576 249.088C382.16 249.525 381.646 249.921 381.04 250.276L382.023 252.122L380.334 252.917L379.358 251.08C378.741 251.301 378.109 251.449 377.462 251.521C376.815 251.594 376.188 251.555 375.578 251.406C374.967 251.258 374.392 250.977 373.856 250.565C373.318 250.153 372.852 249.576 372.457 248.834L375.523 247.388C375.756 247.827 376.018 248.163 376.303 248.395C376.591 248.627 376.891 248.78 377.205 248.852C377.517 248.926 377.833 248.932 378.149 248.871C378.467 248.811 378.77 248.713 379.059 248.575C379.393 248.419 379.663 248.241 379.872 248.042C380.079 247.843 380.232 247.632 380.325 247.41C380.419 247.189 380.456 246.959 380.439 246.725C380.419 246.489 380.349 246.258 380.227 246.03Z" fill="#FFA412"/>
<path d="M392.255 278.904L392.253 278.916L391.943 283.414L390.789 300.112H369.202L367.929 283.642L367.581 279.103L367.566 278.904H392.255Z" fill="#B4C9F7"/>
<path d="M392.253 278.916L391.943 283.414C390.316 282.881 385.797 281.599 379.909 281.599C372.475 281.599 367.929 283.642 367.929 283.642L367.581 279.103L392.253 278.916Z" fill="#9BB8EA"/>
<path d="M393.005 281.281H366.781L366.483 278.412H393.338L393.005 281.281Z" fill="#B4C9F7"/>
<path d="M391.12 301.002H368.738L368.481 300.003H391.405L391.12 301.002Z" fill="#B4C9F7"/>
<path d="M526.285 193.486L524.189 195.088C524.189 195.088 518.456 193.154 517.162 199.566C517.162 199.566 516.818 202.3 518.657 202.306C520.496 202.31 519.738 202.006 522.342 202.078C524.948 202.15 527.105 200.858 527.486 198.868L528.732 197.182L526.285 193.486Z" fill="#EA8E50"/>
<path d="M526.523 196.926C524.852 195.281 524.984 194.067 524.984 194.067C524.984 194.067 544.346 179.146 546.312 177.929C547.65 177.101 561.909 165.203 568.574 157.948C571.879 154.35 575.976 155.745 580.66 157.011L584.519 158.053C589.178 159.312 590.389 165.445 586.568 168.427C575.801 176.822 557.891 186.263 554.537 188.248C546.218 193.173 529.935 199.028 529.935 199.028C529.935 199.028 527.959 198.337 526.523 196.926Z" fill="#1E3D70"/>
<path d="M504.426 288.601C504.426 288.601 499.728 291.916 492.527 290.164C492.527 290.164 486.722 288.919 485.45 291.645C485.45 291.645 494.353 295.901 496.606 297.066C498.303 297.944 500.075 299.328 501.328 300.399C502.319 301.246 503.864 301.133 504.71 300.155C505.1 299.702 505.548 299.16 506.041 298.535C507.414 296.783 510.61 291.126 510.61 291.126L504.426 288.601Z" fill="#233862"/>
<path d="M558.037 167.533C558.037 150.454 543.327 136.608 525.183 136.608C507.039 136.608 492.329 150.454 492.329 167.533C492.329 184.612 507.039 198.458 525.183 198.458C543.327 198.458 558.037 184.612 558.037 167.533Z" fill="#E2810E"/>
<path d="M560.902 167.533C560.902 150.454 546.194 136.608 528.048 136.608C509.904 136.608 495.196 150.454 495.196 167.533C495.196 184.612 509.904 198.458 528.048 198.458C546.194 198.458 560.902 184.612 560.902 167.533Z" fill="#FFB93E"/>
<path d="M499.903 167.898C499.903 182.507 512.528 194.393 528.048 194.393C543.569 194.393 556.195 182.507 556.195 167.898C556.195 153.289 543.569 141.404 528.048 141.404C512.528 141.404 499.903 153.289 499.903 167.898ZM506.884 187.821C501.23 182.501 498.116 175.425 498.116 167.898C498.116 160.372 501.23 153.297 506.884 147.976C512.536 142.654 520.054 139.723 528.048 139.723C536.045 139.723 543.562 142.654 549.214 147.976C554.868 153.297 557.982 160.372 557.982 167.898C557.982 175.425 554.868 182.501 549.214 187.821C543.562 193.144 536.045 196.075 528.048 196.075C520.054 196.075 512.536 193.144 506.884 187.821Z" fill="#FFA412"/>
<path d="M524.414 177.529C524.668 177.962 525.017 178.325 525.455 178.612C525.895 178.901 526.42 179.107 527.03 179.23C527.643 179.351 528.336 179.369 529.114 179.283C529.793 179.207 530.449 179.049 531.081 178.809C531.713 178.571 532.26 178.216 532.722 177.747C533.182 177.277 533.521 176.68 533.742 175.96C533.962 175.238 534.005 174.365 533.877 173.337L541.05 172.535C541.268 174.272 541.159 175.796 540.719 177.107C540.281 178.417 539.616 179.537 538.727 180.464C537.836 181.394 536.779 182.146 535.55 182.723C534.323 183.301 533.031 183.73 531.674 184.015L532.216 188.312L528.268 188.751L527.726 184.433C526.22 184.47 524.83 184.331 523.557 184.019C522.285 183.705 521.171 183.229 520.219 182.587C519.265 181.945 518.489 181.143 517.89 180.183C517.291 179.224 516.912 178.108 516.75 176.834C516.574 175.431 516.681 174.186 517.073 173.101C517.465 172.016 518.084 171.034 518.927 170.154C519.775 169.274 520.816 168.466 522.058 167.725C523.298 166.985 524.686 166.243 526.22 165.5C527.168 165.041 527.956 164.612 528.586 164.212C529.216 163.812 529.711 163.404 530.068 162.99C530.427 162.575 530.663 162.142 530.772 161.689C530.883 161.238 530.905 160.744 530.837 160.208C530.769 159.673 530.624 159.183 530.401 158.738C530.177 158.295 529.87 157.921 529.48 157.62C529.09 157.318 528.612 157.101 528.05 156.966C527.488 156.83 526.834 156.804 526.089 156.888C524.716 157.039 523.675 157.593 522.965 158.545C522.254 159.499 522.008 160.842 522.226 162.577L515.055 163.379C514.872 161.933 514.927 160.602 515.218 159.388C515.51 158.176 516.007 157.097 516.711 156.151C517.413 155.208 518.31 154.403 519.402 153.739C520.491 153.074 521.738 152.576 523.139 152.243L522.544 147.534L526.516 147.09L527.102 151.734C528.606 151.698 529.989 151.849 531.249 152.184C532.508 152.521 533.615 153.017 534.57 153.673C535.524 154.33 536.297 155.139 536.888 156.098C537.478 157.06 537.853 158.155 538.008 159.386C538.187 160.803 538.08 162.054 537.688 163.139C537.295 164.226 536.677 165.205 535.831 166.076C534.984 166.948 533.935 167.752 532.687 168.484C531.436 169.219 530.035 169.945 528.479 170.66C527.575 171.071 526.817 171.471 526.202 171.86C525.59 172.252 525.1 172.66 524.734 173.081C524.368 173.503 524.122 173.956 524 174.44C523.875 174.925 523.851 175.468 523.928 176.077C523.995 176.613 524.156 177.097 524.414 177.529Z" fill="#FFA412"/>
<path d="M501.668 286.917C501.668 286.917 504.531 293.128 511.135 291.985C511.135 291.985 524.612 281.509 533.855 270.626C536.857 267.092 539.416 263.513 540.917 260.24C547.048 246.879 563.593 226.953 574.113 216.854L547.794 207.891C547.794 207.891 539.363 223.854 528.146 243.462C520.062 257.592 510.534 273.612 501.668 286.917Z" fill="#2B478B"/>
<path d="M528.146 243.462L533.855 270.626C536.857 267.092 539.416 263.513 540.917 260.24C547.048 246.879 563.593 226.953 574.113 216.854L547.794 207.891C547.794 207.891 539.363 223.854 528.146 243.462Z" fill="#233862"/>
<path d="M549.659 292.205C549.659 292.205 549.946 297.16 543.564 297.823C543.564 297.823 539.917 297.839 539.908 300.994L558.455 301.049C558.455 301.049 558.993 299.777 559.124 297.052C559.224 294.96 556.971 289.489 556.971 289.489L549.659 292.205Z" fill="#233862"/>
<path d="M556.426 207.891C556.426 207.891 544.702 220.019 537.258 241.868C533.208 253.756 544.68 283.644 546.915 294.03C546.915 294.03 554.611 294.644 559.873 292.73C559.873 292.73 560.274 271.28 557.198 254.749C555.474 245.497 572.635 234.963 580.133 218.244C585.234 206.871 579.028 207.064 571.402 206.792L556.426 207.891Z" fill="#2B478B"/>
<path d="M569.962 153.783C576.486 157.251 589.84 154.053 589.84 154.053C589.84 154.053 584.417 148.216 586.881 138.816L581.759 141.265L576.257 143.895C576.257 143.895 575.902 145.555 575.653 148.537C575.592 149.305 575.536 150.163 575.496 151.1C572.145 152.055 569.962 153.783 569.962 153.783Z" fill="#FFB07B"/>
<path d="M546.039 207.265C546.039 208.344 547.36 208.861 547.641 208.912C550.273 209.366 557.62 212.057 564.238 212.672C569.812 213.222 574.984 212.701 580.669 211.626C581.421 211.482 583.188 211.035 583.314 210.356C583.471 209.616 605.239 168.585 588.317 150.959C587.921 150.546 584.578 151.29 581.525 151.973C578.704 152.603 576.115 152.252 573.806 151.379L570.94 152.798C567.421 154.643 560.765 161.199 559.987 166.343C559.59 168.96 558.002 170.896 557.542 173.198C557.37 174.049 557.196 174.881 557.019 175.692C556.673 177.281 556.315 178.793 555.947 180.233C554.951 184.123 553.901 187.473 552.868 190.367C551.772 193.437 550.694 195.993 549.733 198.13C548.484 200.903 547.432 202.975 546.772 204.562C546.307 205.678 546.039 206.554 546.039 207.265Z" fill="#D2E3FC"/>
<path d="M546.772 204.562C577.501 190.933 588.143 164.766 588.143 164.766C588.143 164.766 563.177 173.435 557.019 175.692C556.673 177.281 556.315 178.793 555.947 180.233C554.951 184.123 553.901 187.473 552.868 190.367C551.772 193.437 550.694 195.993 549.733 198.13C548.484 200.903 547.432 202.975 546.772 204.562Z" fill="#A4C8FC"/>
<path d="M528.793 196.663L526.137 197.58C526.137 197.58 520.821 194.04 517.511 199.797C517.511 199.797 516.312 202.312 518.208 202.858C520.104 203.403 519.415 202.89 522.078 203.725C524.743 204.56 527.368 203.959 528.375 202.166L530.179 200.921L528.793 196.663Z" fill="#FFB07B"/>
<path d="M526.608 200.197C525.625 197.787 525.179 196.694 525.179 196.694C525.179 196.694 545.242 181.301 547.288 179.98C548.68 179.08 562.549 169.321 569.311 161.716C572.666 157.944 577.954 156.219 583.068 157.228L587.28 158.061C592.368 159.064 594.02 165.125 590.074 168.308C578.963 177.275 560.222 187.674 556.727 189.838C548.053 195.207 528.867 202.733 528.867 202.733C528.867 202.733 527.379 202.093 526.608 200.197Z" fill="#D2E3FC"/>
<path d="M575.653 148.537C582.07 148.876 586.241 143.89 586.241 143.89C586.241 143.89 583.341 142.378 581.759 141.265L576.257 143.895C576.257 143.895 575.902 145.555 575.653 148.537Z" fill="#EA8E50"/>
<path d="M572.921 142.337C572.921 142.337 582.641 148.903 586.892 143.142C591.143 137.381 595.259 134.349 589.235 129.913C583.208 125.477 580.366 126.879 578.451 128.477C576.536 130.075 570.502 140.481 572.921 142.337Z" fill="#FFB07B"/>
<path d="M577.425 123.274C577.773 121.06 578.556 119.501 578.556 119.501C578.556 119.501 579.166 121.88 583.785 121.552C588.402 121.224 595.721 121.979 598.162 126.932C598.316 127.247 598.454 127.572 598.578 127.904C599.02 126.806 599.125 125.16 599.125 125.16C600.003 127.293 599.125 129.96 599.125 129.96C599.138 130.038 599.149 130.116 599.162 130.193C600.179 131.005 601.036 133.526 601.036 133.526C600.728 132.823 599.979 132.364 599.31 132.081C599.33 135.936 597.669 139.703 594.756 140.825C590.494 142.465 590.527 141.214 586.241 143.89C586.241 143.89 585.092 142.547 585.875 141.645C586.659 140.743 589.622 139.431 587.966 138.119C586.31 136.806 585.7 138.283 585.092 137.38C584.482 136.478 587.531 133.854 583.611 131.394C579.689 128.933 577.076 125.488 577.425 123.274Z" fill="#233862"/>
<path d="M158.901 295.948V299.523C158.901 299.806 158.792 300.071 158.603 300.29C158.404 300.522 158.119 300.705 157.785 300.807C157.683 300.838 157.576 300.862 157.466 300.877C157.366 300.891 157.264 300.899 157.159 300.899H85.1418C84.2134 300.899 83.4484 300.317 83.4013 299.593C83.4004 299.57 83.3994 299.546 83.3994 299.523V295.948C83.3994 295.926 83.4004 295.901 83.4013 295.878C83.4484 295.152 84.2134 294.57 85.1418 294.57H157.159C157.264 294.57 157.366 294.578 157.466 294.592C157.576 294.609 157.683 294.631 157.785 294.664C158.119 294.767 158.404 294.947 158.603 295.179C158.792 295.398 158.901 295.663 158.901 295.948Z" fill="#FFB93E"/>
<path d="M123.537 300.899H84.9551C84.1267 300.899 83.4438 300.317 83.4013 299.593C83.4004 299.57 83.3994 299.546 83.3994 299.523V295.948C83.3994 295.926 83.4004 295.901 83.4013 295.878C83.4438 295.152 84.1267 294.57 84.9551 294.57H118.799C119.339 296.434 120.599 299.01 123.537 300.899Z" fill="#FFA412"/>
<path d="M150.138 294.572H149.32V300.899H150.138V294.572Z" fill="#FFA412"/>
<path d="M147.368 294.572H146.549V300.899H147.368V294.572Z" fill="#FFA412"/>
<path d="M144.045 294.572H143.227V300.899H144.045V294.572Z" fill="#FFA412"/>
<path d="M138.952 294.572H138.134V300.899H138.952V294.572Z" fill="#FFA412"/>
<path d="M133.567 294.572H132.748V300.899H133.567V294.572Z" fill="#FFA412"/>
<path d="M125.311 294.572H124.492V300.899H125.311V294.572Z" fill="#FFA412"/>
<path d="M117.581 294.572H116.762V300.899H117.581V294.572Z" fill="#FFA412"/>
<path d="M110.678 294.572H109.86V300.899H110.678V294.572Z" fill="#FFA412"/>
<path d="M152.776 294.572H151.957V300.899H152.776V294.572Z" fill="#FFA412"/>
<path d="M154.518 294.572H153.699V300.899H154.518V294.572Z" fill="#FFA412"/>
<path d="M156.2 294.572H155.382V300.899H156.2V294.572Z" fill="#FFA412"/>
<path d="M157.466 294.592V300.877C157.366 300.891 157.264 300.899 157.159 300.899H156.648V294.57H157.159C157.264 294.57 157.366 294.578 157.466 294.592Z" fill="#FFA412"/>
<path d="M158.603 295.179V300.29C158.404 300.522 158.119 300.704 157.785 300.807V294.664C158.119 294.767 158.404 294.947 158.603 295.179Z" fill="#FFA412"/>
<path d="M151.202 289.621V293.194C151.202 293.479 151.092 293.743 150.903 293.963C150.705 294.194 150.419 294.375 150.085 294.478C149.983 294.51 149.876 294.533 149.766 294.549C149.666 294.564 149.564 294.57 149.459 294.57H77.442C76.5135 294.57 75.7487 293.989 75.7014 293.263C75.7004 293.241 75.6997 293.218 75.6997 293.194V289.621C75.6997 289.596 75.7004 289.571 75.7014 289.549C75.7487 288.825 76.5135 288.242 77.442 288.242H149.459C149.506 288.242 149.552 288.244 149.597 288.246C149.616 288.248 149.636 288.249 149.656 288.251C149.677 288.253 149.699 288.255 149.72 288.259C149.736 288.259 149.751 288.263 149.766 288.265C149.876 288.279 149.983 288.304 150.085 288.335C150.101 288.341 150.115 288.345 150.13 288.349C150.145 288.355 150.16 288.359 150.175 288.365C150.204 288.376 150.233 288.386 150.262 288.398C150.279 288.404 150.296 288.413 150.313 288.421C150.328 288.427 150.342 288.433 150.357 288.441C150.385 288.454 150.412 288.468 150.439 288.482C150.469 288.499 150.5 288.517 150.528 288.536C150.551 288.548 150.574 288.562 150.596 288.579C150.597 288.579 150.599 288.579 150.6 288.581C150.614 288.591 150.629 288.601 150.644 288.612C150.688 288.644 150.731 288.679 150.77 288.716C150.783 288.726 150.794 288.737 150.805 288.747C150.816 288.757 150.827 288.769 150.838 288.78C150.861 288.804 150.883 288.827 150.903 288.851C151.092 289.071 151.202 289.336 151.202 289.621Z" fill="#FFB93E"/>
<path d="M115.837 294.57H77.2553C76.426 294.57 75.7439 293.989 75.7014 293.263C75.7004 293.241 75.6997 293.218 75.6997 293.194V289.621C75.6997 289.596 75.7004 289.571 75.7014 289.549C75.7439 288.825 76.426 288.242 77.2553 288.242H111.098C111.114 288.294 111.129 288.345 111.146 288.398C111.711 290.246 112.98 292.734 115.837 294.57Z" fill="#FFA412"/>
<path d="M142.438 288.242H141.62V294.57H142.438V288.242Z" fill="#FFA412"/>
<path d="M139.668 288.242H138.849V294.57H139.668V288.242Z" fill="#FFA412"/>
<path d="M136.345 288.242H135.527V294.57H136.345V288.242Z" fill="#FFA412"/>
<path d="M131.252 288.242H130.434V294.57H131.252V288.242Z" fill="#FFA412"/>
<path d="M125.867 288.242H125.048V294.57H125.867V288.242Z" fill="#FFA412"/>
<path d="M117.611 288.242H116.792V294.57H117.611V288.242Z" fill="#FFA412"/>
<path d="M109.881 288.242H109.062V294.57H109.881V288.242Z" fill="#FFA412"/>
<path d="M102.978 288.242H102.16V294.57H102.978V288.242Z" fill="#FFA412"/>
<path d="M145.076 288.242H144.257V294.57H145.076V288.242Z" fill="#FFA412"/>
<path d="M146.818 288.242H145.999V294.57H146.818V288.242Z" fill="#FFA412"/>
<path d="M148.5 288.242H147.682V294.57H148.5V288.242Z" fill="#FFA412"/>
<path d="M149.766 288.265V294.549C149.666 294.564 149.564 294.57 149.459 294.57H148.948V288.242H149.459C149.564 288.242 149.666 288.251 149.766 288.265Z" fill="#FFA412"/>
<path d="M150.903 288.851V293.963C150.705 294.194 150.419 294.375 150.085 294.478V288.335C150.419 288.437 150.705 288.62 150.903 288.851Z" fill="#FFA412"/>
<path d="M154.923 283.447V287.022C154.923 287.305 154.813 287.57 154.624 287.789C154.426 288.021 154.14 288.203 153.806 288.306C153.704 288.337 153.597 288.361 153.487 288.376C153.387 288.39 153.285 288.398 153.18 288.398H81.163C80.874 288.398 80.6004 288.343 80.3596 288.242C79.8499 288.031 79.4858 287.627 79.4281 287.153C79.4253 287.133 79.4233 287.112 79.4224 287.092C79.4213 287.069 79.4205 287.045 79.4205 287.022V283.447C79.4205 283.425 79.4213 283.4 79.4224 283.375C79.4695 282.651 80.2343 282.069 81.163 282.069H153.18C153.285 282.069 153.387 282.077 153.487 282.091C153.597 282.108 153.704 282.13 153.806 282.163C154.14 282.264 154.426 282.446 154.624 282.678C154.813 282.897 154.923 283.162 154.923 283.447Z" fill="#FFB93E"/>
<path d="M119.558 288.398H80.976C80.7178 288.398 80.4742 288.343 80.2594 288.242C79.8038 288.031 79.4793 287.627 79.4281 287.153C79.4253 287.133 79.4233 287.112 79.4224 287.092C79.4213 287.069 79.4205 287.045 79.4205 287.022V283.447C79.4205 283.425 79.4213 283.4 79.4224 283.375C79.4647 282.651 80.1478 282.069 80.976 282.069H114.82C115.346 283.882 116.552 286.37 119.321 288.242C119.399 288.296 119.478 288.347 119.558 288.398Z" fill="#FFA412"/>
<path d="M146.159 282.069H145.341V288.398H146.159V282.069Z" fill="#FFA412"/>
<path d="M143.388 282.069H142.57V288.398H143.388V282.069Z" fill="#FFA412"/>
<path d="M140.066 282.069H139.248V288.398H140.066V282.069Z" fill="#FFA412"/>
<path d="M134.973 282.069H134.155V288.398H134.973V282.069Z" fill="#FFA412"/>
<path d="M129.588 282.069H128.77V288.398H129.588V282.069Z" fill="#FFA412"/>
<path d="M121.332 282.069H120.513V288.398H121.332V282.069Z" fill="#FFA412"/>
<path d="M113.602 282.069H112.783V288.398H113.602V282.069Z" fill="#FFA412"/>
<path d="M106.699 282.069H105.881V288.398H106.699V282.069Z" fill="#FFA412"/>
<path d="M148.797 282.069H147.978V288.398H148.797V282.069Z" fill="#FFA412"/>
<path d="M150.539 282.069H149.721V288.398H150.539V282.069Z" fill="#FFA412"/>
<path d="M152.221 282.069H151.403V288.398H152.221V282.069Z" fill="#FFA412"/>
<path d="M153.487 282.091V288.376C153.387 288.39 153.285 288.398 153.18 288.398H152.669V282.069H153.18C153.285 282.069 153.387 282.077 153.487 282.091Z" fill="#FFA412"/>
<path d="M154.624 282.678V287.789C154.426 288.021 154.141 288.203 153.806 288.306V282.163C154.141 282.264 154.426 282.446 154.624 282.678Z" fill="#FFA412"/>
<path d="M156.648 277.118V280.692C156.648 280.978 156.538 281.242 156.349 281.462C156.151 281.693 155.866 281.874 155.531 281.976C155.429 282.009 155.322 282.032 155.212 282.048C155.112 282.063 155.01 282.069 154.905 282.069H82.888C81.9595 282.069 81.1947 281.488 81.1475 280.762C81.1466 280.74 81.1455 280.715 81.1455 280.692V277.118C81.1455 277.095 81.1466 277.07 81.1475 277.048C81.1908 276.377 81.8486 275.829 82.6819 275.752C82.7494 275.743 82.8176 275.741 82.888 275.741H154.905C155.01 275.741 155.112 275.75 155.212 275.764C155.322 275.778 155.429 275.803 155.531 275.834C155.866 275.936 156.151 276.119 156.349 276.35C156.538 276.57 156.648 276.834 156.648 277.118Z" fill="#FFB93E"/>
<path d="M121.283 282.069H82.701C81.8728 282.069 81.1897 281.488 81.1475 280.762C81.1466 280.74 81.1455 280.715 81.1455 280.692V277.118C81.1455 277.095 81.1466 277.07 81.1475 277.048C81.186 276.377 81.7735 275.829 82.5171 275.752C82.5768 275.743 82.6385 275.741 82.701 275.741H116.545C116.546 275.743 116.547 275.747 116.548 275.752C117.09 277.612 118.351 280.184 121.283 282.069Z" fill="#FFA412"/>
<path d="M147.884 275.741H147.066V282.069H147.884V275.741Z" fill="#FFA412"/>
<path d="M145.114 275.741H144.295V282.069H145.114V275.741Z" fill="#FFA412"/>
<path d="M141.791 275.741H140.973V282.069H141.791V275.741Z" fill="#FFA412"/>
<path d="M136.698 275.741H135.88V282.069H136.698V275.741Z" fill="#FFA412"/>
<path d="M131.313 275.741H130.495V282.069H131.313V275.741Z" fill="#FFA412"/>
<path d="M123.057 275.741H122.238V282.069H123.057V275.741Z" fill="#FFA412"/>
<path d="M115.327 275.741H114.508V282.069H115.327V275.741Z" fill="#FFA412"/>
<path d="M108.424 275.741H107.606V282.069H108.424V275.741Z" fill="#FFA412"/>
<path d="M150.522 275.741H149.703V282.069H150.522V275.741Z" fill="#FFA412"/>
<path d="M152.264 275.741H151.445V282.069H152.264V275.741Z" fill="#FFA412"/>
<path d="M153.946 275.741H153.128V282.069H153.946V275.741Z" fill="#FFA412"/>
<path d="M155.212 275.764V282.048C155.112 282.063 155.01 282.069 154.905 282.069H154.394V275.741H154.905C155.01 275.741 155.112 275.747 155.212 275.764Z" fill="#FFA412"/>
<path d="M156.349 276.348V281.462C156.15 281.693 155.865 281.874 155.531 281.976V275.834C155.865 275.936 156.15 276.119 156.349 276.348Z" fill="#FFA412"/>
<path d="M151.353 270.8V274.373C151.353 274.658 151.243 274.923 151.054 275.142C150.856 275.374 150.571 275.557 150.236 275.659C150.134 275.69 150.028 275.715 149.918 275.729C149.884 275.733 149.85 275.737 149.816 275.741C149.798 275.743 149.779 275.743 149.76 275.745C149.741 275.747 149.722 275.747 149.703 275.749C149.672 275.749 149.641 275.751 149.61 275.751H77.5931C76.6647 275.751 75.8997 275.169 75.8526 274.445C75.8517 274.42 75.8506 274.398 75.8506 274.373V270.8C75.8506 270.776 75.8517 270.753 75.8526 270.729C75.8537 270.71 75.8554 270.69 75.8574 270.671C75.9267 270.089 76.4623 269.607 77.1637 269.465C77.1809 269.461 77.1992 269.459 77.2164 269.455C77.338 269.434 77.4641 269.422 77.5931 269.422H149.61C149.663 269.422 149.715 269.424 149.766 269.428C149.79 269.43 149.813 269.432 149.836 269.434H149.837C149.864 269.436 149.891 269.44 149.918 269.445C150.028 269.459 150.134 269.484 150.236 269.514C150.571 269.617 150.856 269.799 151.054 270.031C151.243 270.251 151.353 270.515 151.353 270.8Z" fill="#FFB93E"/>
<path d="M115.988 275.751H77.4064C76.578 275.751 75.8949 275.169 75.8526 274.445C75.8517 274.42 75.8506 274.398 75.8506 274.373V270.8C75.8506 270.776 75.8517 270.753 75.8526 270.729C75.8537 270.71 75.8554 270.69 75.8574 270.671C75.9202 270.074 76.418 269.586 77.0643 269.457C77.0865 269.451 77.1085 269.447 77.1308 269.445C77.2203 269.43 77.3118 269.422 77.4064 269.422H111.251C111.254 269.438 111.259 269.453 111.264 269.467C111.81 271.323 113.07 273.869 115.973 275.741C115.978 275.743 115.984 275.747 115.988 275.751Z" fill="#FFA412"/>
<path d="M142.59 269.422H141.771V275.751H142.59V269.422Z" fill="#FFA412"/>
<path d="M139.819 269.422H139V275.751H139.819V269.422Z" fill="#FFA412"/>
<path d="M136.496 269.422H135.678V275.751H136.496V269.422Z" fill="#FFA412"/>
<path d="M131.404 269.422H130.585V275.751H131.404V269.422Z" fill="#FFA412"/>
<path d="M126.018 269.422H125.2V275.751H126.018V269.422Z" fill="#FFA412"/>
<path d="M117.762 269.422H116.944V275.751H117.762V269.422Z" fill="#FFA412"/>
<path d="M110.032 269.422H109.214V275.751H110.032V269.422Z" fill="#FFA412"/>
<path d="M103.13 269.422H102.311V275.751H103.13V269.422Z" fill="#FFA412"/>
<path d="M145.227 269.422H144.409V275.751H145.227V269.422Z" fill="#FFA412"/>
<path d="M146.969 269.422H146.151V275.751H146.969V269.422Z" fill="#FFA412"/>
<path d="M148.652 269.422H147.833V275.751H148.652V269.422Z" fill="#FFA412"/>
<path d="M149.918 269.445V275.729C149.817 275.743 149.715 275.751 149.61 275.751H149.099V269.422H149.61C149.715 269.422 149.817 269.43 149.918 269.445Z" fill="#FFA412"/>
<path d="M151.054 270.031V275.142C150.856 275.374 150.571 275.557 150.237 275.657V269.514C150.571 269.617 150.856 269.799 151.054 270.031Z" fill="#FFA412"/>
<path d="M151.202 264.516V268.091C151.202 268.374 151.092 268.639 150.903 268.858C150.705 269.09 150.419 269.272 150.085 269.375C150.005 269.399 149.921 269.42 149.837 269.434H149.835C149.812 269.438 149.79 269.443 149.766 269.445C149.666 269.459 149.564 269.467 149.459 269.467H77.442C77.3659 269.467 77.2897 269.463 77.2165 269.455C77.1877 269.453 77.1587 269.449 77.1308 269.445C76.3477 269.332 75.7428 268.803 75.7014 268.161C75.7004 268.138 75.6997 268.113 75.6997 268.091V264.516C75.6997 264.493 75.7004 264.469 75.7014 264.446C75.7487 263.72 76.5135 263.138 77.442 263.138H149.459C149.506 263.138 149.552 263.14 149.597 263.144C149.616 263.146 149.636 263.146 149.656 263.148C149.677 263.15 149.699 263.152 149.72 263.154C149.736 263.156 149.751 263.158 149.766 263.16C149.876 263.177 149.983 263.199 150.085 263.232C150.101 263.236 150.115 263.24 150.13 263.246C150.145 263.25 150.16 263.257 150.175 263.261C150.205 263.271 150.233 263.283 150.262 263.296C150.294 263.308 150.326 263.322 150.357 263.337C150.385 263.351 150.412 263.363 150.439 263.378C150.469 263.396 150.5 263.413 150.528 263.431C150.551 263.445 150.574 263.46 150.596 263.474C150.597 263.476 150.599 263.476 150.6 263.478C150.614 263.488 150.629 263.499 150.644 263.509C150.688 263.54 150.731 263.577 150.77 263.611C150.783 263.622 150.794 263.632 150.805 263.644C150.816 263.655 150.827 263.665 150.838 263.677C150.861 263.7 150.883 263.724 150.903 263.747C151.092 263.966 151.202 264.231 151.202 264.516Z" fill="#FFB93E"/>
<path d="M115.837 269.467H77.2553C77.2243 269.467 77.1934 269.467 77.1637 269.465C77.13 269.463 77.0973 269.461 77.0644 269.457C76.3227 269.377 75.74 268.829 75.7014 268.161C75.7004 268.138 75.6997 268.113 75.6997 268.091V264.516C75.6997 264.493 75.7004 264.469 75.7014 264.446C75.7439 263.72 76.426 263.138 77.2553 263.138H111.098C111.114 263.191 111.129 263.242 111.146 263.296C111.706 265.129 112.959 267.59 115.768 269.422C115.791 269.438 115.814 269.453 115.837 269.467Z" fill="#FFA412"/>
<path d="M142.438 263.14H141.62V269.467H142.438V263.14Z" fill="#FFA412"/>
<path d="M139.668 263.14H138.849V269.467H139.668V263.14Z" fill="#FFA412"/>
<path d="M136.345 263.14H135.527V269.467H136.345V263.14Z" fill="#FFA412"/>
<path d="M131.252 263.14H130.434V269.467H131.252V263.14Z" fill="#FFA412"/>
<path d="M125.867 263.14H125.048V269.467H125.867V263.14Z" fill="#FFA412"/>
<path d="M117.611 263.14H116.792V269.467H117.611V263.14Z" fill="#FFA412"/>
<path d="M109.881 263.14H109.062V269.467H109.881V263.14Z" fill="#FFA412"/>
<path d="M102.978 263.14H102.16V269.467H102.978V263.14Z" fill="#FFA412"/>
<path d="M145.076 263.14H144.257V269.467H145.076V263.14Z" fill="#FFA412"/>
<path d="M146.818 263.14H145.999V269.467H146.818V263.14Z" fill="#FFA412"/>
<path d="M148.5 263.14H147.682V269.467H148.5V263.14Z" fill="#FFA412"/>
<path d="M149.766 263.16V269.445C149.666 269.459 149.564 269.467 149.459 269.467H148.948V263.14H149.459C149.564 263.14 149.666 263.146 149.766 263.16Z" fill="#FFA412"/>
<path d="M150.903 263.747V268.858C150.705 269.09 150.419 269.272 150.085 269.375V263.232C150.419 263.335 150.705 263.515 150.903 263.747Z" fill="#FFA412"/>
<path d="M154.923 258.344V261.917C154.923 262.202 154.813 262.467 154.624 262.686C154.426 262.918 154.14 263.101 153.806 263.201C153.704 263.234 153.597 263.257 153.487 263.273C153.387 263.287 153.285 263.296 153.18 263.296H81.163C80.874 263.296 80.6004 263.238 80.3596 263.138C79.8499 262.928 79.4858 262.522 79.4281 262.051C79.4253 262.03 79.4233 262.01 79.4224 261.989C79.4213 261.964 79.4205 261.942 79.4205 261.917V258.344C79.4205 258.32 79.4213 258.297 79.4224 258.273C79.4695 257.549 80.2343 256.966 81.163 256.966H153.18C153.285 256.966 153.387 256.974 153.487 256.989C153.597 257.003 153.704 257.028 153.806 257.058C154.14 257.161 154.426 257.343 154.624 257.575C154.813 257.795 154.923 258.059 154.923 258.344Z" fill="#FFB93E"/>
<path d="M119.558 263.296H80.976C80.7178 263.296 80.4742 263.238 80.2594 263.138C79.8038 262.928 79.4793 262.522 79.4281 262.051C79.4253 262.03 79.4233 262.01 79.4224 261.989C79.4213 261.964 79.4205 261.942 79.4205 261.917V258.344C79.4205 258.32 79.4213 258.297 79.4224 258.273C79.4647 257.549 80.1478 256.966 80.976 256.966H114.82C115.346 258.779 116.552 261.265 119.321 263.138C119.399 263.191 119.478 263.242 119.558 263.296Z" fill="#FFA412"/>
<path d="M146.159 256.966H145.341V263.296H146.159V256.966Z" fill="#FFA412"/>
<path d="M143.388 256.966H142.57V263.296H143.388V256.966Z" fill="#FFA412"/>
<path d="M140.066 256.966H139.248V263.296H140.066V256.966Z" fill="#FFA412"/>
<path d="M134.973 256.966H134.155V263.296H134.973V256.966Z" fill="#FFA412"/>
<path d="M129.588 256.966H128.77V263.296H129.588V256.966Z" fill="#FFA412"/>
<path d="M121.332 256.966H120.513V263.296H121.332V256.966Z" fill="#FFA412"/>
<path d="M113.602 256.966H112.783V263.296H113.602V256.966Z" fill="#FFA412"/>
<path d="M106.699 256.966H105.881V263.296H106.699V256.966Z" fill="#FFA412"/>
<path d="M148.797 256.966H147.978V263.296H148.797V256.966Z" fill="#FFA412"/>
<path d="M150.539 256.966H149.721V263.296H150.539V256.966Z" fill="#FFA412"/>
<path d="M152.221 256.966H151.403V263.296H152.221V256.966Z" fill="#FFA412"/>
<path d="M153.487 256.989V263.273C153.387 263.287 153.285 263.296 153.18 263.296H152.669V256.966H153.18C153.285 256.966 153.387 256.974 153.487 256.989Z" fill="#FFA412"/>
<path d="M154.624 257.575V262.686C154.426 262.918 154.141 263.101 153.806 263.201V257.058C154.141 257.161 154.426 257.343 154.624 257.575Z" fill="#FFA412"/>
<path d="M160.808 252.015V255.59C160.808 255.873 160.698 256.137 160.509 256.357C160.311 256.589 160.026 256.771 159.691 256.874C159.589 256.905 159.482 256.929 159.373 256.944C159.272 256.958 159.17 256.966 159.065 256.966H87.0482C86.1196 256.966 85.3548 256.384 85.3075 255.66C85.3066 255.635 85.3055 255.612 85.3055 255.59V252.015C85.3055 251.992 85.3066 251.968 85.3075 251.943C85.3509 251.274 86.0087 250.727 86.8419 250.647C86.9094 250.641 86.9787 250.637 87.0482 250.637H159.065C159.17 250.637 159.272 250.645 159.373 250.659C159.482 250.676 159.589 250.698 159.691 250.731C160.026 250.831 160.311 251.014 160.509 251.246C160.698 251.465 160.808 251.73 160.808 252.015Z" fill="#FFB93E"/>
<path d="M125.443 256.966H86.8613C86.0329 256.966 85.35 256.384 85.3075 255.66C85.3066 255.635 85.3055 255.612 85.3055 255.59V252.015C85.3055 251.992 85.3066 251.968 85.3075 251.943C85.3461 251.274 85.9337 250.727 86.6772 250.647C86.7369 250.641 86.7985 250.637 86.8613 250.637H120.706C120.706 250.641 120.707 250.645 120.708 250.647C121.251 252.509 122.511 255.079 125.443 256.966Z" fill="#FFA412"/>
<path d="M152.045 250.639H151.226V256.966H152.045V250.639Z" fill="#FFA412"/>
<path d="M149.274 250.639H148.456V256.966H149.274V250.639Z" fill="#FFA412"/>
<path d="M145.952 250.639H145.133V256.966H145.952V250.639Z" fill="#FFA412"/>
<path d="M140.859 250.639H140.04V256.966H140.859V250.639Z" fill="#FFA412"/>
<path d="M135.474 250.639H134.655V256.966H135.474V250.639Z" fill="#FFA412"/>
<path d="M127.217 250.639H126.399V256.966H127.217V250.639Z" fill="#FFA412"/>
<path d="M119.487 250.639H118.669V256.966H119.487V250.639Z" fill="#FFA412"/>
<path d="M112.585 250.639H111.766V256.966H112.585V250.639Z" fill="#FFA412"/>
<path d="M154.682 250.639H153.864V256.966H154.682V250.639Z" fill="#FFA412"/>
<path d="M156.424 250.639H155.606V256.966H156.424V250.639Z" fill="#FFA412"/>
<path d="M158.107 250.639H157.288V256.966H158.107V250.639Z" fill="#FFA412"/>
<path d="M159.373 250.659V256.944C159.273 256.958 159.171 256.966 159.066 256.966H158.554V250.637H159.066C159.171 250.637 159.273 250.645 159.373 250.659Z" fill="#FFA412"/>
<path d="M160.51 251.246V256.357C160.311 256.589 160.026 256.771 159.692 256.874V250.731C160.026 250.831 160.311 251.014 160.51 251.246Z" fill="#FFA412"/>
<path d="M151.353 245.696V249.271C151.353 249.556 151.243 249.818 151.054 250.04C150.856 250.271 150.571 250.452 150.236 250.555C150.134 250.587 150.028 250.61 149.918 250.626C149.884 250.63 149.85 250.635 149.816 250.637C149.79 250.641 149.763 250.643 149.736 250.643C149.722 250.645 149.709 250.645 149.695 250.647H77.5931C76.6647 250.647 75.8997 250.066 75.8526 249.34C75.8517 249.318 75.8506 249.293 75.8506 249.271V245.696C75.8506 245.673 75.8517 245.648 75.8526 245.626C75.8997 244.9 76.6647 244.319 77.5931 244.319H149.61C149.641 244.319 149.672 244.319 149.703 244.321C149.776 244.323 149.847 244.332 149.918 244.34C150.028 244.356 150.134 244.379 150.236 244.412C150.288 244.428 150.34 244.444 150.388 244.465C150.419 244.477 150.448 244.49 150.477 244.504C150.48 244.504 150.484 244.506 150.487 244.508C150.517 244.52 150.546 244.535 150.574 244.551C150.58 244.553 150.585 244.557 150.589 244.559C150.616 244.572 150.642 244.588 150.667 244.604C150.729 244.639 150.786 244.68 150.84 244.723C150.858 244.736 150.874 244.75 150.89 244.764C150.892 244.767 150.895 244.769 150.898 244.771C150.909 244.779 150.918 244.787 150.928 244.797C150.93 244.799 150.932 244.801 150.934 244.801C150.951 244.818 150.968 244.834 150.985 244.853C151.009 244.877 151.032 244.902 151.054 244.926C151.243 245.148 151.353 245.411 151.353 245.696Z" fill="#FFB93E"/>
<path d="M115.988 250.647H77.4064C76.578 250.647 75.8949 250.066 75.8526 249.34C75.8517 249.318 75.8506 249.293 75.8506 249.271V245.696C75.8506 245.673 75.8517 245.648 75.8526 245.626C75.8949 244.9 76.578 244.319 77.4064 244.319H111.251C111.264 244.367 111.279 244.416 111.295 244.465C111.856 246.311 113.122 248.799 115.973 250.637C115.978 250.641 115.984 250.645 115.988 250.647Z" fill="#FFA412"/>
<path d="M142.59 244.319H141.771V250.647H142.59V244.319Z" fill="#FFA412"/>
<path d="M139.819 244.319H139V250.647H139.819V244.319Z" fill="#FFA412"/>
<path d="M136.496 244.319H135.678V250.647H136.496V244.319Z" fill="#FFA412"/>
<path d="M131.404 244.319H130.585V250.647H131.404V244.319Z" fill="#FFA412"/>
<path d="M126.018 244.319H125.2V250.647H126.018V244.319Z" fill="#FFA412"/>
<path d="M117.762 244.319H116.944V250.647H117.762V244.319Z" fill="#FFA412"/>
<path d="M110.032 244.319H109.214V250.647H110.032V244.319Z" fill="#FFA412"/>
<path d="M103.13 244.319H102.311V250.647H103.13V244.319Z" fill="#FFA412"/>
<path d="M145.227 244.319H144.409V250.647H145.227V244.319Z" fill="#FFA412"/>
<path d="M146.969 244.319H146.151V250.647H146.969V244.319Z" fill="#FFA412"/>
<path d="M148.652 244.319H147.833V250.647H148.652V244.319Z" fill="#FFA412"/>
<path d="M149.918 244.34V250.626C149.817 250.641 149.715 250.647 149.61 250.647H149.099V244.319H149.61C149.715 244.319 149.817 244.326 149.918 244.34Z" fill="#FFA412"/>
<path d="M151.054 244.926V250.04C150.856 250.271 150.571 250.452 150.237 250.555V244.412C150.571 244.514 150.856 244.697 151.054 244.926Z" fill="#FFA412"/>
<path d="M156.648 239.514V243.089C156.648 243.372 156.538 243.636 156.349 243.856C156.151 244.088 155.866 244.27 155.531 244.373C155.429 244.403 155.322 244.428 155.212 244.442C155.112 244.457 155.01 244.465 154.905 244.465H82.888C82.6086 244.465 82.3437 244.412 82.1097 244.319C81.5848 244.11 81.2091 243.698 81.1523 243.214C81.1503 243.197 81.1483 243.177 81.1475 243.158C81.1466 243.134 81.1455 243.111 81.1455 243.089V239.514C81.1455 239.489 81.1466 239.467 81.1475 239.442C81.1908 238.771 81.8486 238.226 82.6819 238.146C82.7494 238.14 82.8176 238.135 82.888 238.135H154.905C155.01 238.135 155.112 238.144 155.212 238.158C155.322 238.174 155.429 238.197 155.531 238.23C155.866 238.33 156.151 238.513 156.349 238.745C156.538 238.964 156.648 239.229 156.648 239.514Z" fill="#FFB93E"/>
<path d="M121.283 244.465H82.701C82.4516 244.465 82.2156 244.412 82.0066 244.319C81.5375 244.11 81.2032 243.698 81.1523 243.214C81.1503 243.197 81.1483 243.177 81.1475 243.158C81.1466 243.134 81.1455 243.111 81.1455 243.089V239.514C81.1455 239.489 81.1466 239.467 81.1475 239.442C81.186 238.773 81.7735 238.226 82.5171 238.146C82.5768 238.14 82.6385 238.135 82.701 238.135H116.545C116.546 238.14 116.547 238.144 116.548 238.146C117.076 239.961 118.287 242.449 121.062 244.319C121.134 244.369 121.208 244.418 121.283 244.465Z" fill="#FFA412"/>
<path d="M147.884 238.135H147.066V244.465H147.884V238.135Z" fill="#FFA412"/>
<path d="M145.114 238.135H144.295V244.465H145.114V238.135Z" fill="#FFA412"/>
<path d="M141.791 238.135H140.973V244.465H141.791V238.135Z" fill="#FFA412"/>
<path d="M136.698 238.135H135.88V244.465H136.698V238.135Z" fill="#FFA412"/>
<path d="M131.313 238.135H130.495V244.465H131.313V238.135Z" fill="#FFA412"/>
<path d="M123.057 238.135H122.238V244.465H123.057V238.135Z" fill="#FFA412"/>
<path d="M115.327 238.135H114.508V244.465H115.327V238.135Z" fill="#FFA412"/>
<path d="M108.424 238.135H107.606V244.465H108.424V238.135Z" fill="#FFA412"/>
<path d="M150.522 238.135H149.703V244.465H150.522V238.135Z" fill="#FFA412"/>
<path d="M152.264 238.135H151.445V244.465H152.264V238.135Z" fill="#FFA412"/>
<path d="M153.946 238.135H153.128V244.465H153.946V238.135Z" fill="#FFA412"/>
<path d="M155.212 238.158V244.442C155.112 244.457 155.01 244.465 154.905 244.465H154.394V238.135H154.905C155.01 238.135 155.112 238.144 155.212 238.158Z" fill="#FFA412"/>
<path d="M156.349 238.745V243.856C156.15 244.088 155.865 244.27 155.531 244.373V238.23C155.865 238.33 156.15 238.513 156.349 238.745Z" fill="#FFA412"/>
<path d="M158.901 233.195V236.77C158.901 237.055 158.792 237.317 158.603 237.539C158.404 237.768 158.119 237.951 157.785 238.054C157.683 238.086 157.576 238.109 157.466 238.125C157.433 238.129 157.399 238.133 157.365 238.136C157.347 238.138 157.328 238.14 157.308 238.142C157.29 238.142 157.271 238.144 157.251 238.144C157.221 238.146 157.19 238.146 157.159 238.146H85.1418C84.2134 238.146 83.4484 237.565 83.4013 236.839C83.4002 236.817 83.3994 236.792 83.3994 236.77V233.195C83.3994 233.172 83.4002 233.147 83.4013 233.125C83.4484 232.399 84.2134 231.818 85.1418 231.818H157.159C157.264 231.818 157.366 231.825 157.466 231.839C157.576 231.855 157.683 231.878 157.785 231.911C158.119 232.013 158.404 232.194 158.603 232.425C158.792 232.647 158.901 232.91 158.901 233.195Z" fill="#FFB93E"/>
<path d="M123.537 238.146H84.9551C84.1267 238.146 83.4438 237.565 83.4013 236.839C83.4002 236.817 83.3994 236.792 83.3994 236.77V233.195C83.3994 233.172 83.4002 233.147 83.4013 233.125C83.4438 232.399 84.1267 231.818 84.9551 231.818H118.799C119.339 233.679 120.595 236.249 123.522 238.136C123.527 238.14 123.532 238.144 123.537 238.146Z" fill="#FFA412"/>
<path d="M150.138 231.818H149.32V238.146H150.138V231.818Z" fill="#FFA412"/>
<path d="M147.368 231.818H146.549V238.146H147.368V231.818Z" fill="#FFA412"/>
<path d="M144.045 231.818H143.227V238.146H144.045V231.818Z" fill="#FFA412"/>
<path d="M138.952 231.818H138.134V238.146H138.952V231.818Z" fill="#FFA412"/>
<path d="M133.567 231.818H132.748V238.146H133.567V231.818Z" fill="#FFA412"/>
<path d="M125.311 231.818H124.492V238.146H125.311V231.818Z" fill="#FFA412"/>
<path d="M117.581 231.818H116.762V238.146H117.581V231.818Z" fill="#FFA412"/>
<path d="M110.678 231.818H109.86V238.146H110.678V231.818Z" fill="#FFA412"/>
<path d="M152.776 231.818H151.957V238.146H152.776V231.818Z" fill="#FFA412"/>
<path d="M154.518 231.818H153.699V238.146H154.518V231.818Z" fill="#FFA412"/>
<path d="M156.2 231.818H155.382V238.146H156.2V231.818Z" fill="#FFA412"/>
<path d="M157.466 231.839V238.123C157.366 238.14 157.264 238.146 157.159 238.146H156.648V231.818H157.159C157.264 231.818 157.366 231.825 157.466 231.839Z" fill="#FFA412"/>
<path d="M158.603 232.425V237.539C158.404 237.768 158.119 237.951 157.785 238.054V231.911C158.119 232.013 158.404 232.194 158.603 232.425Z" fill="#FFA412"/>
<path d="M44.9964 268.698C44.9964 250.903 60.3204 236.48 79.2235 236.48C98.1266 236.48 113.45 250.903 113.45 268.698C113.45 286.491 98.1266 300.916 79.2235 300.916C60.3204 300.916 44.9964 286.491 44.9964 268.698Z" fill="#E2810E"/>
<path d="M42.0106 268.698C42.0106 250.903 57.3344 236.48 76.2375 236.48C95.1405 236.48 110.465 250.903 110.465 268.698C110.465 286.491 95.1405 300.916 76.2375 300.916C57.3344 300.916 42.0106 286.491 42.0106 268.698Z" fill="#FFB93E"/>
<path d="M76.2374 241.475C60.068 241.475 46.9134 253.859 46.9134 269.078C46.9134 284.298 60.068 296.68 76.2374 296.68C92.4068 296.68 105.562 284.298 105.562 269.078C105.562 253.859 92.4068 241.475 76.2374 241.475ZM76.2374 298.432C67.9078 298.432 60.0768 295.378 54.1869 289.834C48.2968 284.29 45.053 276.919 45.053 269.078C45.053 261.236 48.2968 253.867 54.1869 248.321C60.0768 242.777 67.9078 239.723 76.2374 239.723C84.5673 239.723 92.3984 242.777 98.2882 248.321C104.178 253.867 107.422 261.236 107.422 269.078C107.422 276.919 104.178 284.29 98.2882 289.834C92.3984 295.378 84.5673 298.432 76.2374 298.432Z" fill="#FFA412"/>
<path d="M80.5307 277.597C80.6106 276.964 80.5856 276.398 80.457 275.893C80.328 275.391 80.0727 274.917 79.6916 274.478C79.3098 274.037 78.7995 273.614 78.1604 273.206C77.5213 272.798 76.7306 272.382 75.788 271.955C74.1686 271.209 72.7081 270.454 71.4064 269.689C70.1041 268.924 69.0124 268.089 68.1306 267.18C67.2486 266.272 66.6036 265.252 66.1955 264.12C65.7874 262.99 65.6765 261.686 65.8628 260.209C66.0242 258.927 66.4125 257.787 67.0285 256.786C67.6438 255.785 68.4494 254.942 69.4443 254.259C70.4396 253.574 71.5929 253.057 72.9046 252.706C74.2159 252.357 75.6562 252.199 77.2248 252.238L77.8345 247.4L81.9716 247.862L81.3532 252.768C82.8127 253.114 84.1107 253.633 85.247 254.326C86.3831 255.018 87.3176 255.856 88.0506 256.841C88.7825 257.823 89.3011 258.947 89.605 260.213C89.9086 261.476 89.9656 262.863 89.7759 264.37L82.3034 263.536C82.5314 261.727 82.2751 260.326 81.5352 259.333C80.7945 258.342 79.7092 257.766 78.2785 257.606C77.5028 257.52 76.8217 257.547 76.2362 257.688C75.6501 257.828 75.1542 258.055 74.7474 258.369C74.3408 258.683 74.0205 259.07 73.7875 259.534C73.5544 259.998 73.4027 260.508 73.3324 261.066C73.2622 261.624 73.2846 262.139 73.4001 262.609C73.5152 263.08 73.7599 263.531 74.134 263.964C74.5077 264.395 75.0223 264.82 75.6777 265.236C76.3332 265.654 77.1553 266.101 78.1441 266.579C79.7415 267.353 81.1872 268.126 82.4797 268.897C83.772 269.668 84.8589 270.511 85.7398 271.428C86.6206 272.343 87.2651 273.368 87.6732 274.498C88.0811 275.629 88.1931 276.925 88.0088 278.387C87.8416 279.714 87.4459 280.877 86.8217 281.878C86.1974 282.877 85.3884 283.712 84.3954 284.38C83.4021 285.049 82.2424 285.545 80.9166 285.871C79.5909 286.197 78.1436 286.341 76.5753 286.304L76.0081 290.802L71.8969 290.345L72.461 285.867C71.0471 285.572 69.7007 285.123 68.4224 284.522C67.1433 283.921 66.0403 283.137 65.1134 282.169C64.1867 281.203 63.4945 280.036 63.0373 278.67C62.5802 277.304 62.4656 275.719 62.6935 273.91L70.1661 274.744C70.0311 275.813 70.0779 276.726 70.3069 277.476C70.5353 278.227 70.8896 278.849 71.37 279.337C71.8502 279.827 72.4196 280.196 73.0789 280.446C73.7378 280.695 74.4205 280.859 75.1278 280.939C75.9377 281.029 76.6611 281.01 77.2978 280.883C77.9342 280.754 78.4814 280.541 78.939 280.239C79.3965 279.94 79.7585 279.564 80.0252 279.111C80.2919 278.66 80.4603 278.155 80.5307 277.597Z" fill="#FFA412"/>
<path d="M139.175 224.459C135.67 230.202 131.262 232.417 131.262 232.417H112.924C112.924 232.417 141.849 220.08 139.175 224.459Z" fill="#233862"/>
<path d="M125.091 268.885C124.613 269.399 124.552 269.976 124.788 270.591C124.789 270.593 124.79 270.597 124.793 270.599C125.23 271.738 126.675 273.007 128.354 274.277C128.568 274.439 128.759 274.587 128.925 274.724C128.969 274.761 129.012 274.796 129.054 274.833C129.087 274.861 129.12 274.89 129.152 274.917C130.718 276.275 130.128 276.586 132.94 279.343C136.147 282.483 138.354 282.538 138.982 282.253C139.514 282.009 138.434 280.344 137.238 278.471C137.18 278.381 137.123 278.291 137.064 278.198C136.905 277.95 136.746 277.698 136.588 277.448C135.186 275.194 135.546 274.137 135.879 270.784C136.149 268.06 140.382 255.563 140.382 255.563L134.237 254.566C134.237 254.566 132.387 264.518 130.348 266.05C129.258 266.866 128.038 266.877 126.99 267.482C126.916 267.525 126.843 267.568 126.772 267.613C126.176 267.984 125.57 268.368 125.091 268.885Z" fill="#FFB27D"/>
<path d="M125.091 268.885C124.613 269.4 124.552 269.976 124.788 270.591C124.789 270.593 124.79 270.597 124.793 270.599C125.329 271.736 126.737 272.999 128.36 274.265C128.572 274.431 128.759 274.582 128.925 274.724C128.969 274.761 129.012 274.796 129.054 274.833C129.087 274.861 129.12 274.89 129.152 274.917C130.718 276.275 130.128 276.586 132.94 279.343C136.147 282.483 138.354 282.538 138.982 282.253C139.514 282.009 138.434 280.344 137.238 278.471C136.614 278.256 133.715 277.148 131.523 274.507C129.592 272.189 128.304 269.209 126.99 267.482C126.916 267.525 126.843 267.568 126.772 267.613C126.176 267.984 125.57 268.368 125.091 268.885Z" fill="#233862"/>
<path d="M174.636 265.271C175.016 267.057 177.72 266.76 180.74 266.065C183.76 265.369 183.043 266.196 187.342 265.747C191.639 265.299 192.942 263.79 193.073 263.189C193.19 262.656 191.066 262.467 188.789 262.221C188.501 262.19 188.214 262.155 187.926 262.122C185.353 261.819 183.47 260.256 181.134 258.974C178.92 257.758 175.617 252.807 175.617 252.807L169.722 253.246C169.722 253.246 172.815 257.67 174.012 259.591C174.716 260.724 174.678 262.219 174.591 263.374C174.545 264.001 174.502 264.643 174.636 265.271Z" fill="#FFB27D"/>
<path d="M180.74 266.065C183.76 265.369 183.043 266.196 187.342 265.747C191.639 265.299 192.942 263.79 193.072 263.189C193.19 262.656 191.066 262.467 188.789 262.221L188.767 262.262C188.767 262.262 186.189 263.983 182.611 264.063C179.694 264.128 176.604 263.343 174.591 263.374C174.545 264.001 174.502 264.643 174.636 265.271C175.015 267.057 177.72 266.76 180.74 266.065Z" fill="#233862"/>
<path d="M152.043 229.788L146.532 243.747L139.337 261.975C139.337 261.975 137.384 262.151 135.515 261.645C133.793 261.177 131.818 259.95 131.818 259.95C131.818 259.95 133.816 240.381 137.543 229.146C138.498 226.262 139.568 223.93 140.749 222.617C146.527 216.189 152.043 229.788 152.043 229.788Z" fill="#233862"/>
<path d="M146.44 207.618C142.829 206.521 132.532 207.93 122.187 209.835L120.021 206.472L97.6772 204.831C97.6772 204.831 90.3042 220.222 94.3408 230.028C94.9339 231.47 96.4025 232.077 98.4122 232.108C98.413 232.108 98.4137 232.11 98.4146 232.11C98.4146 232.11 111.747 232.417 116.065 232.417C127.177 232.417 139.582 225.226 141.187 224.925C143.813 224.43 144.864 229.376 147.491 234.567C150.117 239.76 172.18 257.561 172.18 257.561C172.18 257.561 175.571 257.592 176.972 257.097C178.478 256.566 179.029 255.875 179.029 255.875C179.029 255.875 154.582 210.09 146.44 207.618Z" fill="#2B478B"/>
<path d="M117.647 144.711C115.972 143.772 114.34 143.636 113.351 143.667C112.638 143.688 111.925 143.624 111.217 143.534C102.75 142.464 97.6541 154.045 97.3545 157.554C96.8021 164.021 93.1672 165.008 88.0507 169.059C77.7914 177.181 80.7999 186.62 86.4095 190.125C89.7755 192.229 95.7083 190.125 95.7083 190.125C95.792 190.18 111.933 181.631 119.89 177.509C131.818 175.911 122.439 147.396 117.647 144.711Z" fill="#233862"/>
<path d="M113.221 173.997C113.256 174.02 109.306 175.288 106.665 174.188C104.181 173.155 102.298 169.307 102.335 169.305C103.465 169.255 104.706 168.324 105.662 162.22L106.143 162.385L114.235 165.125C114.235 165.125 113.649 167.57 113.27 169.895C112.95 171.85 112.779 173.723 113.221 173.997Z" fill="#FFB27D"/>
<path d="M114.235 165.125C114.235 165.125 113.649 167.569 113.27 169.895C108.622 169.108 106.798 164.749 106.143 162.384L114.235 165.125Z" fill="#ED975D"/>
<path d="M115.44 167.551C115.44 167.551 104.369 166.152 105.4 159.675C106.432 153.198 105.698 148.656 112.81 149.275C119.923 149.894 120.899 152.559 121.114 154.8C121.328 157.039 118.347 167.748 115.44 167.551Z" fill="#FFB27D"/>
<path d="M120.71 151.25C120.71 151.25 113.623 156.998 108.802 157.462C103.981 157.926 102.156 156.469 102.156 156.469C102.156 156.469 104.997 154.249 106.707 150.664C107.212 149.608 108.276 148.883 109.502 148.784C112.944 148.504 119.47 148.376 120.71 151.25Z" fill="#233862"/>
<path d="M116.28 150.735C116.28 150.735 118.651 152.893 119.397 154.493C120.118 156.039 120.334 159.732 119.76 161.199C119.76 161.199 123.455 154.438 121.363 151.153C119.145 147.669 116.28 150.735 116.28 150.735Z" fill="#233862"/>
<path d="M122.544 189.349C122.209 210.446 122.452 206.039 120 208.041C119.41 208.523 117.749 208.81 115.563 208.945C108.691 209.374 96.6107 208.309 96.1514 207.114C94.5662 202.977 95.6853 201.691 94.3627 195.359C94.225 194.684 94.0541 193.956 93.8539 193.162C92.7514 188.812 91.6782 187.333 95.5901 180.345C99.1378 174.016 102.823 168.878 103.155 169.063C112.514 174.293 113.269 169.897 113.269 169.897C113.269 169.897 122.708 179.059 122.544 189.349Z" fill="white"/>
<path d="M146.532 243.747L139.337 261.975C139.337 261.975 137.384 262.151 135.515 261.644C133.793 261.177 131.818 259.95 131.818 259.95C131.818 259.95 133.816 240.381 137.543 229.146L146.532 243.747Z" fill="#2B478B"/>
<path d="M113.27 169.895C113.27 169.895 122.901 171.434 124.032 175.337C125.162 179.24 131.818 202.187 131.818 202.187C131.818 202.187 126.922 203.013 124.66 200.884C122.398 198.756 116.79 181.131 116.79 181.131L113.27 169.895Z" fill="white"/>
<path d="M115.563 208.945C108.691 209.374 96.6107 208.309 96.1514 207.114C94.5662 202.977 95.6853 201.691 94.3627 195.359L97.6773 186.572C97.6773 186.572 97.1293 196.356 100.194 198.93C103.256 201.504 112.744 203.898 114.234 206.047C114.953 207.079 115.426 208.114 115.563 208.945Z" fill="#EBF3FF"/>
<path d="M107.689 204.831C107.689 204.831 114.469 203.409 115.563 203.975C116.657 204.542 119.331 206.605 119.666 207.323C120 208.041 117.23 206.777 116.329 206.55C115.746 206.402 114.209 206.904 113.449 207.144C110.249 208.147 108.289 207.63 108.289 207.63L107.689 204.831Z" fill="#FFB27D"/>
<path d="M103.149 169.059C103.149 169.059 94.0454 169.586 90.894 173.725C86.4579 179.548 77.6574 204.369 82.701 207.68C88.381 211.408 108.551 208.656 108.551 208.656C108.551 208.656 109.222 205.702 108.289 204.273C107.355 202.845 92.1782 200.538 91.4777 199.877C90.7774 199.219 100.233 187.019 100.233 185.042C100.233 183.065 103.149 169.059 103.149 169.059Z" fill="white"/>
<path d="M115.891 205.752C115.891 205.752 117.312 207.477 117.778 207.682C118.243 207.889 118.544 207.838 118.544 207.838L117.587 206.215L115.891 205.752Z" fill="#FFB27D"/>
<path d="M115.563 203.975L119.694 205.862C119.694 205.862 119.518 206.133 119.009 206.113C118.501 206.09 117.218 205.649 117.218 205.649L115.563 203.975Z" fill="#FFB27D"/>
<path d="M117.778 210.325H150.449L160.277 187.319H127.656L117.778 210.325Z" fill="#F99746"/>
<path d="M150.832 209.429H107.689V210.325H150.449L150.832 209.429Z" fill="#ED7D2B"/>
<path d="M142.202 198.821C142.448 198.013 141.951 197.359 141.092 197.359C140.233 197.359 139.337 198.013 139.09 198.821C138.844 199.631 139.341 200.286 140.2 200.286C141.059 200.286 141.955 199.631 142.202 198.821Z" fill="white"/>
<path d="M305.252 212.528C305.248 212.405 305.974 198.456 298.814 195.246L299.319 194.791C302.599 195.868 306.235 199.201 307.688 203.906C308.769 207.403 307.948 208.17 307.952 208.301L305.252 212.528Z" fill="#A4C8FC"/>
<path d="M286.557 184.899C286.557 184.899 285.74 192.075 289.732 195.127C293.726 198.179 301.019 195.952 301.019 195.952C301.019 195.952 301.836 188.777 297.842 185.725C293.85 182.673 286.557 184.899 286.557 184.899Z" fill="#A4C8FC"/>
<path d="M304.03 238.693C303.895 237.992 301.313 221.565 307.92 203.258C314.265 185.668 310.75 170.755 310.724 170.607H315.393C315.513 171.243 315.838 185.881 310.863 205.942C306.39 223.994 314.746 238.693 312.966 238.693H304.03Z" fill="#A4C8FC"/>
<path d="M313.838 190.199C313.861 190.104 316.091 178.069 322.087 176.699C319.407 177.027 316.001 178.834 314.097 182.198C312.681 184.698 313.177 185.407 313.151 185.506L313.838 190.199Z" fill="#A4C8FC"/>
<path d="M289.839 158.272C289.839 158.272 283.37 149.676 276.024 147.152C276.024 147.152 278.772 167.315 274.754 167.565C270.736 167.814 273.414 144.889 273.414 144.889C273.414 144.889 254.276 134.887 246.506 135.165C246.506 135.165 257.508 155.313 253.549 154.624C249.59 153.934 237.109 133.47 237.109 133.47C237.109 133.47 217.137 128.837 213.195 139.921C209.255 151.004 214.138 156.923 217.086 157.792C220.032 158.662 239.24 159.484 238.597 161.804C237.952 164.122 224.756 167.161 217.66 164.651C217.66 164.651 224.482 183.627 235.008 183.266C245.537 182.905 249.156 176.984 255.667 176.871C262.177 176.758 266.81 178.664 263.467 180.126C260.125 181.59 249.226 179.882 243.73 183.781C238.235 187.682 233.838 190.028 243.443 192.442C253.045 194.855 267.542 192.131 274.421 187.815C274.44 187.803 280.053 187.383 284.472 211.839C286.176 221.268 284.866 235.254 284.866 235.254L288.431 234.741C290.407 207.329 279.896 184.538 279.896 184.538C279.896 184.538 297.731 172.127 289.839 158.272Z" fill="#A4C8FC"/>
<path d="M348.16 194.452C348.16 194.452 326.674 185.955 334.365 170.496C334.365 170.496 340.841 160.815 348.648 157.673C348.648 157.673 346.929 179.687 351.302 179.734C355.673 179.783 351.337 155.074 351.337 155.074C351.337 155.074 371.461 143.17 379.905 143.041C379.905 143.041 369.235 165.496 373.483 164.53C377.735 163.562 389.989 140.682 389.989 140.682C389.989 140.682 411.353 134.553 416.319 146.352C421.287 158.151 416.36 164.842 413.218 165.945C410.079 167.051 389.303 169.007 390.146 171.487C390.991 173.965 405.488 176.531 413.027 173.415C413.027 173.415 406.815 194.368 395.377 194.559C383.94 194.75 379.645 188.529 372.579 188.769C365.513 189.009 360.608 191.329 364.323 192.73C368.041 194.133 379.75 191.675 385.951 195.601C392.155 199.525 397.07 201.826 386.808 204.974C376.543 208.123 357.534 208.865 352.847 201.66L348.16 194.452Z" fill="#D2E3FC"/>
<path d="M406.81 151.218C406.81 151.218 352.309 174.492 348.16 194.453C348.16 194.453 349.465 203.046 344.998 213.539L345.456 217.344C345.456 217.344 349.827 203.779 352.847 201.66C352.847 201.66 338.172 186.271 406.81 151.218Z" fill="#A4C8FC"/>
<path d="M344.998 213.539C344.998 213.539 337.773 226.941 344.573 241.592L346.748 240.785C346.748 240.785 342.56 224.295 346.112 215.4C349.666 206.504 344.998 213.539 344.998 213.539Z" fill="#A4C8FC"/>
<path d="M266.239 102.399C275.044 111.22 270.464 128.738 270.464 128.738C270.464 128.738 251.605 131.954 242.798 123.134C233.993 114.313 238.573 96.7945 238.573 96.7945C238.573 96.7945 257.432 93.5783 266.239 102.399Z" fill="#A4C8FC"/>
<path d="M266.239 102.399C275.044 111.22 270.464 128.738 270.464 128.738L238.573 96.7945C238.573 96.7945 257.432 93.5783 266.239 102.399Z" fill="#D2E3FC"/>
<path d="M379.811 135.998C375.214 141.009 364.831 139.661 364.831 139.661C364.831 139.661 361.898 130.189 366.493 125.177C371.089 120.166 381.474 121.514 381.474 121.514C381.474 121.514 384.406 130.987 379.811 135.998Z" fill="#A4C8FC"/>
<path d="M325.497 180.079C322.416 180.883 318.849 177.909 318.849 177.909C318.849 177.909 320.278 173.63 323.359 172.826C326.438 172.02 330.005 174.996 330.005 174.996C330.005 174.996 328.576 179.275 325.497 180.079Z" fill="#A4C8FC"/>
<path d="M271.096 86.0401C273.207 90.7534 268.657 97.0604 268.657 97.0604C268.657 97.0604 260.683 95.7251 258.571 91.0117C256.46 86.2984 261.009 79.9914 261.009 79.9914C261.009 79.9914 268.984 81.3268 271.096 86.0401Z" fill="#A4C8FC"/>
<path d="M266.877 131.412C263.635 107.174 281.881 85.0511 307.632 81.9994C333.38 78.9474 356.882 96.1224 360.125 120.36C363.367 144.599 345.12 166.72 319.372 169.772C293.621 172.824 270.119 155.651 266.877 131.412Z" fill="#E2810E"/>
<path d="M262.811 131.894C259.569 107.656 277.813 85.5331 303.564 82.4814C329.312 79.4296 352.814 96.6044 356.056 120.843C359.299 145.08 341.055 167.202 315.304 170.254C289.556 173.306 266.054 156.133 262.811 131.894Z" fill="#FFB93E"/>
<path d="M304.475 89.2865C282.448 91.8971 266.786 110.888 269.557 131.621C272.331 152.354 292.508 167.098 314.533 164.487C336.559 161.876 352.222 142.885 349.448 122.153C346.674 101.42 326.499 86.6761 304.475 89.2865ZM314.851 166.872C303.505 168.218 292.281 165.322 283.248 158.721C274.214 152.12 268.453 142.602 267.023 131.921C265.596 121.241 268.67 110.676 275.684 102.173C282.696 93.6696 292.809 88.246 304.154 86.9011C315.502 85.5565 326.726 88.4513 335.758 95.0528C344.791 101.654 350.552 111.172 351.982 121.852C353.411 132.533 350.335 143.098 343.323 151.601C336.309 160.104 326.199 165.527 314.851 166.872Z" fill="#FFA412"/>
<path d="M316.903 137.799C316.897 136.924 316.759 136.154 316.494 135.489C316.226 134.824 315.792 134.222 315.193 133.685C314.591 133.147 313.82 132.652 312.874 132.2C311.929 131.748 310.776 131.308 309.414 130.879C307.074 130.124 304.945 129.33 303.034 128.499C301.119 127.668 299.481 126.705 298.114 125.609C296.748 124.514 295.683 123.229 294.92 121.755C294.16 120.28 293.77 118.522 293.754 116.48C293.741 114.709 294.062 113.091 294.72 111.628C295.375 110.165 296.319 108.888 297.55 107.795C298.781 106.704 300.256 105.813 301.98 105.124C303.703 104.436 305.636 103.99 307.78 103.788L307.728 97.0989L313.448 97.0604L313.5 103.843C315.55 104.08 317.413 104.578 319.089 105.337C320.762 106.097 322.187 107.088 323.364 108.309C324.54 109.532 325.453 110.979 326.096 112.652C326.741 114.325 327.07 116.204 327.088 118.287L316.755 118.357C316.738 115.856 316.132 113.99 314.944 112.758C313.755 111.527 312.171 110.917 310.192 110.93C309.12 110.937 308.198 111.084 307.425 111.371C306.654 111.657 306.02 112.048 305.523 112.54C305.026 113.033 304.66 113.614 304.427 114.283C304.194 114.951 304.08 115.671 304.087 116.442C304.091 117.213 304.215 117.91 304.459 118.533C304.701 119.157 305.117 119.732 305.706 120.26C306.294 120.787 307.072 121.282 308.042 121.744C309.009 122.207 310.212 122.684 311.646 123.174C313.962 123.971 316.071 124.791 317.973 125.632C319.873 126.474 321.507 127.448 322.876 128.553C324.242 129.659 325.305 130.949 326.068 132.423C326.83 133.898 327.218 135.646 327.234 137.667C327.249 139.501 326.922 141.15 326.253 142.612C325.584 144.076 324.634 145.343 323.403 146.414C322.172 147.485 320.684 148.35 318.936 149.008C317.191 149.665 315.245 150.095 313.101 150.297L313.149 156.516L307.464 156.555L307.418 150.366C305.438 150.193 303.522 149.799 301.67 149.186C299.82 148.573 298.175 147.684 296.735 146.516C295.297 145.348 294.142 143.871 293.271 142.084C292.399 140.298 291.952 138.155 291.935 135.654L302.265 135.585C302.276 137.064 302.505 138.298 302.954 139.284C303.403 140.271 304 141.059 304.743 141.648C305.486 142.237 306.329 142.648 307.272 142.881C308.214 143.115 309.175 143.228 310.153 143.221C311.273 143.213 312.253 143.072 313.099 142.795C313.942 142.519 314.648 142.139 315.217 141.655C315.786 141.172 316.21 140.601 316.491 139.943C316.773 139.285 316.91 138.571 316.903 137.799Z" fill="#FFA412"/>
<path d="M350.993 234.423L350.988 234.458L350.053 248.007L346.574 298.317H281.535L277.704 248.696L276.65 235.022L276.604 234.423H350.993Z" fill="#739AF0"/>
<path d="M350.988 234.458L350.054 248.007C345.153 246.401 331.537 242.541 313.798 242.541C291.395 242.541 277.704 248.696 277.704 248.696L276.65 235.022L350.988 234.458Z" fill="#618DD8"/>
<path d="M353.252 241.585H274.244L273.34 232.938H354.254L353.252 241.585Z" fill="#739AF0"/>
<path d="M347.574 301.002H280.138L279.367 297.991H348.43L347.574 301.002Z" fill="#618DD8"/>
<path d="M230.918 272.977C230.857 272.661 229.696 265.271 232.668 257.036C235.522 249.125 233.943 242.416 233.93 242.35H236.03C236.085 242.635 236.231 249.221 233.993 258.244C231.979 266.364 235.738 272.977 234.938 272.977H230.918Z" fill="#A4C8FC"/>
<path d="M235.331 251.162C235.342 251.121 236.344 245.706 239.041 245.091C237.836 245.238 236.305 246.05 235.446 247.564C234.81 248.688 235.032 249.006 235.021 249.051L235.331 251.162Z" fill="#A4C8FC"/>
<path d="M230.347 249.896C230.347 249.896 227.709 245.86 224.488 244.527C224.488 244.527 225.101 253.654 223.29 253.656C221.479 253.658 223.386 243.439 223.386 243.439C223.386 243.439 215.104 238.429 211.606 238.343C211.606 238.343 215.925 247.685 214.169 247.269C212.415 246.85 207.44 237.325 207.44 237.325C207.44 237.325 198.618 234.7 196.509 239.567C194.397 244.436 196.408 247.226 197.705 247.695C199.001 248.167 207.597 249.059 207.236 250.083C206.876 251.106 200.86 252.111 197.751 250.79C197.751 250.79 200.23 259.495 204.965 259.62C209.702 259.745 211.511 257.186 214.435 257.313C217.361 257.44 219.383 258.42 217.836 258.986C216.291 259.552 211.452 258.488 208.865 260.088C206.279 261.69 204.233 262.623 208.469 263.968C212.707 265.314 219.296 264.485 222.516 262.736C222.527 262.732 225.059 262.695 226.29 273.795C226.763 278.071 225.746 284.315 225.746 284.315L227.362 284.181C229.092 271.93 225.077 261.415 225.077 261.415C225.077 261.415 233.463 256.33 230.347 249.896Z" fill="#A4C8FC"/>
<path d="M240.575 246.61C239.19 246.971 237.584 245.634 237.584 245.634C237.584 245.634 238.226 243.71 239.612 243.347C240.998 242.986 242.602 244.323 242.602 244.323C242.602 244.323 241.959 246.249 240.575 246.61Z" fill="#A4C8FC"/>
<path d="M256.514 217.199C251.677 220.181 251.716 228.297 251.716 228.297C251.716 228.297 259.602 231.574 264.441 228.592C269.281 225.61 269.239 217.494 269.239 217.494C269.239 217.494 261.354 214.216 256.514 217.199Z" fill="#A4C8FC"/>
<path d="M256.514 217.199C251.677 220.181 251.716 228.297 251.716 228.297L269.239 217.494C269.239 217.494 261.354 214.216 256.514 217.199Z" fill="#D2E3FC"/>
<path d="M256.224 209.563C254.773 211.415 256.057 214.624 256.057 214.624C256.057 214.624 259.693 214.832 261.144 212.98C262.596 211.13 261.312 207.92 261.312 207.92C261.312 207.92 257.676 207.71 256.224 209.563Z" fill="#A4C8FC"/>
<path d="M214.208 224.72C212.748 213.816 220.956 203.867 232.539 202.493C244.12 201.12 254.693 208.847 256.15 219.748C257.608 230.651 249.402 240.603 237.819 241.975C226.238 243.347 215.666 235.623 214.208 224.72Z" fill="#E2810E"/>
<path d="M212.378 224.937C210.92 214.034 219.126 204.082 230.709 202.71C242.29 201.338 252.862 209.062 254.32 219.965C255.78 230.869 247.572 240.818 235.991 242.192C224.408 243.565 213.836 235.838 212.378 224.937Z" fill="#FFB93E"/>
<path d="M231.119 205.772C221.211 206.945 214.167 215.488 215.413 224.814C216.662 234.14 225.735 240.771 235.642 239.598C245.55 238.423 252.596 229.88 251.348 220.554C250.102 211.23 241.026 204.597 231.119 205.772ZM235.786 240.671C230.683 241.276 225.634 239.973 221.571 237.003C217.507 234.033 214.916 229.753 214.273 224.949C213.631 220.144 215.014 215.392 218.169 211.568C221.322 207.743 225.872 205.302 230.975 204.697C236.078 204.094 241.127 205.395 245.19 208.365C249.254 211.335 251.845 215.615 252.488 220.419C253.13 225.224 251.747 229.976 248.592 233.802C245.439 237.625 240.889 240.066 235.786 240.671Z" fill="#FFA412"/>
<path d="M236.71 227.593C236.706 227.199 236.645 226.853 236.525 226.553C236.405 226.254 236.209 225.983 235.939 225.741C235.668 225.499 235.322 225.278 234.897 225.074C234.472 224.871 233.954 224.672 233.341 224.48C232.287 224.139 231.33 223.782 230.472 223.409C229.609 223.036 228.872 222.603 228.258 222.109C227.643 221.616 227.164 221.04 226.822 220.376C226.478 219.713 226.303 218.921 226.297 218.002C226.29 217.207 226.436 216.479 226.73 215.82C227.025 215.162 227.45 214.587 228.003 214.097C228.556 213.605 229.221 213.205 229.997 212.895C230.772 212.586 231.642 212.385 232.605 212.294L232.583 209.286L235.154 209.267L235.178 212.319C236.1 212.426 236.939 212.649 237.693 212.992C238.444 213.332 239.085 213.779 239.617 214.327C240.144 214.879 240.554 215.529 240.846 216.282C241.133 217.034 241.284 217.879 241.29 218.817L236.642 218.848C236.634 217.724 236.364 216.883 235.828 216.329C235.294 215.775 234.581 215.5 233.69 215.506C233.208 215.51 232.794 215.576 232.446 215.705C232.099 215.835 231.814 216.009 231.59 216.23C231.367 216.452 231.202 216.714 231.097 217.014C230.992 217.315 230.942 217.639 230.945 217.986C230.947 218.333 231.003 218.647 231.112 218.928C231.221 219.206 231.409 219.467 231.672 219.703C231.936 219.941 232.287 220.162 232.723 220.371C233.158 220.579 233.699 220.794 234.344 221.013C235.385 221.372 236.335 221.742 237.189 222.119C238.046 222.498 238.78 222.937 239.394 223.434C240.011 223.93 240.488 224.51 240.833 225.175C241.175 225.837 241.349 226.625 241.355 227.534C241.362 228.358 241.216 229.101 240.915 229.757C240.615 230.415 240.188 230.986 239.634 231.468C239.078 231.95 238.41 232.339 237.623 232.635C236.839 232.93 235.963 233.123 235 233.215L235.021 236.013L232.463 236.029L232.444 233.246C231.552 233.168 230.69 232.989 229.857 232.715C229.025 232.44 228.284 232.04 227.637 231.513C226.99 230.988 226.471 230.323 226.079 229.519C225.687 228.717 225.486 227.753 225.478 226.627L230.125 226.596C230.13 227.263 230.234 227.817 230.435 228.26C230.637 228.705 230.905 229.06 231.239 229.324C231.574 229.589 231.953 229.773 232.376 229.878C232.801 229.983 233.232 230.034 233.673 230.032C234.176 230.028 234.618 229.964 234.997 229.839C235.376 229.716 235.695 229.544 235.952 229.326C236.207 229.109 236.396 228.852 236.523 228.557C236.651 228.262 236.712 227.94 236.71 227.593Z" fill="#FFA412"/>
<path d="M252.043 271.055L252.041 271.071L251.62 277.165L250.056 299.794H220.799L219.078 277.474L218.603 271.323L218.581 271.055H252.043Z" fill="#B4C9F7"/>
<path d="M252.041 271.071L251.62 277.165C249.415 276.443 243.29 274.706 235.313 274.706C225.236 274.706 219.078 277.474 219.078 277.474L218.603 271.323L252.041 271.071Z" fill="#9BB8EA"/>
<path d="M253.059 274.277H217.522L217.115 270.386H253.51L253.059 274.277Z" fill="#B4C9F7"/>
<path d="M250.505 301.002H220.172L219.825 299.648H250.89L250.505 301.002Z" fill="#B4C9F7"/>
<path d="M372.588 184.681C372.588 184.681 369.245 184.068 368.483 184.681C367.718 185.295 364.094 188.759 364.87 189.897C365.646 191.035 369.367 188.956 370.141 188.759C370.912 188.564 373.076 187.768 373.076 187.768L372.588 184.681Z" fill="#FFB27D"/>
<path d="M408.089 295.864L411.669 297.119C411.669 297.119 427.225 276.812 429.14 258.943C429.482 255.754 429.369 252.663 428.628 249.808C428.628 249.808 428.78 248.992 429.046 247.546C429.17 246.871 429.321 246.061 429.495 245.13C430.001 242.402 430.696 238.671 431.491 234.421C433.321 224.642 435.692 212.141 437.535 202.952L436.57 202.659L426.129 199.49L423.971 193.037L416.197 191.111C416.197 191.111 414.46 194.309 412.907 209.417C412.621 211.398 412.36 213.583 412.164 215.954C411.558 223.186 411.515 232.159 412.905 242.416C413.26 245.041 413.711 247.753 414.269 250.538C414.678 252.581 414.739 255.362 414.567 258.558C413.785 273.163 408.089 295.864 408.089 295.864Z" fill="#2B478B"/>
<path d="M412.164 215.954L429.046 247.546C429.17 246.871 429.321 246.061 429.495 245.13C430.001 242.402 430.696 238.671 431.491 234.421C433.321 224.642 435.692 212.141 437.535 202.952L436.57 202.659L426.129 199.49L423.972 193.037L416.197 191.111C416.197 191.111 414.461 194.309 412.907 209.417C412.621 211.398 412.36 213.583 412.164 215.954Z" fill="#233862"/>
<path d="M419.592 195.166L419.982 192.01C426.53 193.648 444.024 187.436 444.024 187.436C444.024 187.436 450.367 192.684 449.535 205.266C449.127 211.406 448.384 237.5 447.611 245.222C447.33 248.019 447.083 250.011 446.983 250.807C446.981 250.811 446.981 250.813 446.981 250.815C446.95 251.057 447.042 251.287 447.173 251.498C448.315 253.321 449.258 255.221 450.034 257.165C457.647 276.258 448.861 299.771 448.861 299.771L446.582 298.906C446.582 298.906 441.584 272.739 437.522 261.179C436.834 259.218 436.171 257.678 435.566 256.757C433.801 254.074 432.162 249.689 430.674 244.475C427.863 234.618 425.599 221.795 424.094 211.897C423.887 211.907 419.592 195.166 419.592 195.166Z" fill="#2B478B"/>
<path d="M372.588 184.681L373.076 187.768C373.076 187.768 373.292 187.768 373.671 187.741C374.865 187.666 377.765 187.514 381.044 187.181C385.975 186.722 391.83 185.906 394.162 184.554C397.711 182.513 403.54 176.262 407.333 170.012C407.442 169.858 407.523 169.705 407.603 169.553C409.582 166.236 410.966 162.944 411.072 160.317C411.155 158.709 410.965 157.333 410.613 156.133C410.153 154.552 409.392 153.301 408.608 152.358C408.499 152.204 408.39 152.051 408.227 151.924C406.926 150.47 405.653 149.857 405.653 149.857C405.002 149.602 404.298 149.908 403.566 150.648V150.674C402.969 151.261 402.319 152.153 401.696 153.276C401.668 153.301 401.642 153.327 401.642 153.352C401.507 153.582 401.369 153.837 401.208 154.118C401.154 154.169 401.128 154.246 401.099 154.296C400.801 154.883 400.502 155.495 400.206 156.133C396.872 162.971 393.321 173.329 390.366 176.416C389.093 177.741 383.267 180.343 378.632 182.284C375.299 183.66 372.588 184.681 372.588 184.681Z" fill="#FFB27D"/>
<path d="M407.083 156.9C409.137 157.798 411.621 158.41 414.624 158.563C425.88 159.144 428.436 149.855 428.9 143.69C427.277 143.137 425.856 143.189 425.037 143.23C424.239 143.271 423.407 143.348 422.719 143.428C421.341 142.751 418.868 139.462 417.439 133.961L416.953 134.172L408.83 137.767C408.83 137.767 409.693 140.255 410.331 142.636C410.828 144.499 411.185 146.299 410.887 146.803C410.246 147.047 409.863 147.202 409.863 147.202C409.863 147.202 409.863 147.204 409.861 147.21C409.778 147.405 408.013 151.641 407.083 156.9Z" fill="#FFB27D"/>
<path d="M404.267 163.853C404.352 164.064 404.446 164.271 404.548 164.483C407.399 170.263 412.676 194.204 412.676 194.204C411.924 198.509 447.042 193.359 447.134 189.44C448.371 185.284 442.745 178.608 439.573 175.259C439.176 174.836 438.819 174.385 438.509 173.909C437.725 172.716 437.228 171.366 437.069 169.957C436.446 164.401 436.683 159.195 436.631 156.028C436.012 155.596 435.411 155.197 434.853 154.817C433.999 154.231 433.245 153.683 432.689 153.127C432.079 152.522 431.696 151.902 431.652 151.203C431.62 150.675 431.637 150.133 431.696 149.591C431.722 149.335 431.757 149.079 431.798 148.823C432.236 146.134 433.43 143.695 433.43 143.695C430.408 142.545 425.037 143.23 425.037 143.23C425.037 143.23 425.044 143.511 425.048 143.97C425.065 145.817 425.048 150.559 424.418 151.457C423.632 152.574 409.244 157.47 408.484 155.954C407.734 154.462 409.784 147.474 409.861 147.21C409.863 147.204 409.863 147.202 409.863 147.202C405.045 148.982 403.322 150.477 403.322 150.477C406.226 152.249 402.021 158.246 404.267 163.853Z" fill="#F99746"/>
<path d="M413.959 113.911C413.977 113.452 414.354 108.502 422.363 108.243C422.363 108.243 418.426 108.685 417.744 110.315C417.744 110.315 420.426 108.301 422.612 108.949C424.795 109.597 426.079 113.199 426.092 114.383C426.105 115.568 424.891 119.388 423.505 119.712C422.98 119.835 422.374 119.802 421.825 119.714C422.193 120.256 422.555 120.854 422.902 121.522C426.098 127.698 422.801 133.734 420.095 133.068C418.361 132.64 417.868 135.427 417.868 135.427L401.008 122.579C401.008 122.579 407.2 110.517 413.959 113.911Z" fill="#2C3A64"/>
<path d="M408.83 137.769C408.83 137.769 409.695 140.254 410.331 142.637C415.079 141.39 416.52 136.692 416.953 134.174L408.83 137.769Z" fill="#ED985F"/>
<path d="M407.83 140.4C407.83 140.4 419.191 137.926 417.443 131.291C415.698 124.656 415.988 119.868 408.662 121.168C401.337 122.467 400.598 125.326 400.609 127.674C400.62 130.022 404.832 140.873 407.83 140.4Z" fill="#FFB27D"/>
<path d="M399.971 123.907C401.191 121.503 402.629 121.631 403.527 122.057C408.865 117.409 414.099 121.206 414.099 121.206C416.114 125.788 420.481 127.661 420.481 127.661C420.481 127.661 418.738 129.342 413.678 129.305C412.133 129.294 410.582 128.626 409.168 127.706C411.894 130.291 415.09 131.864 415.09 131.864C408.758 130.724 404.514 123.825 404.078 123.092C403.542 123.837 402.515 125.424 402.431 126.765C402.313 128.586 402.98 132.122 401.871 132.256C401.871 132.256 398.138 127.514 399.971 123.907Z" fill="#2C3A64"/>
<path d="M403.322 150.476C403.322 150.476 400.587 154.966 400.177 156.123C400.177 156.123 403.723 155.993 405.156 158.561C405.156 158.561 405.498 151.081 403.322 150.476Z" fill="#F99746"/>
<path d="M422.133 186.16C429.059 186.09 434.923 179.32 438.509 173.909C437.725 172.716 437.228 171.366 437.069 169.957C436.446 164.401 436.683 159.195 436.631 156.028C436.012 155.596 435.411 155.197 434.853 154.817C433.999 154.231 433.245 153.683 432.689 153.127C427.018 162.153 412.739 186.252 422.133 186.16Z" fill="#ED7D2B"/>
<path d="M395.95 189.706L396.898 192.972C396.898 192.972 398.09 192.769 399.988 192.436C400.557 192.334 400.884 192.258 400.884 192.258C402.4 191.977 404.215 191.595 406.194 191.187H406.222C409.61 190.42 413.404 189.503 416.602 188.482C418.851 187.741 420.803 186.952 422.13 186.16C422.268 186.084 422.374 186.008 422.509 185.906C425.682 183.738 429.449 177.359 432.376 170.521C432.783 169.577 433.162 168.634 433.541 167.715C434.897 164.296 435.98 160.93 436.631 158.022C437.036 156.287 437.309 154.704 437.363 153.403C437.389 152.944 437.418 152.511 437.389 152.102C437.335 144.704 433.432 143.684 433.432 143.684C433.352 143.658 433.271 143.632 433.162 143.607C432.485 143.505 431.779 143.939 431.049 144.781C430.127 145.826 429.151 147.536 428.148 149.602C426.604 152.893 424.976 157.154 423.459 161.39C422.618 163.709 421.806 166.031 420.993 168.175C420.531 169.475 420.071 170.699 419.638 171.823C418.797 173.967 418.038 175.7 417.361 176.797C416.927 177.513 415.681 178.508 414.027 179.63C411.155 181.594 406.954 183.968 403.296 185.906C401.777 186.722 400.341 187.463 399.149 188.074C397.223 189.068 395.95 189.706 395.95 189.706Z" fill="#FFB27D"/>
<path d="M428.157 149.613C433.376 148.259 437.4 152.093 437.4 152.093C437.335 144.707 433.428 143.696 433.428 143.696C431.857 143.084 430.035 145.645 428.157 149.613Z" fill="#F99746"/>
<path d="M435.609 301.523H453.648C453.648 301.523 454.08 298.937 453.139 296.972C452.234 295.089 450.82 294.233 451.16 291.953C450.014 293.064 448.145 294.307 445.539 293.977C445.218 294.465 443.475 297.074 442.407 297.796C441.229 298.594 435.973 298.311 435.609 301.523Z" fill="#233862"/>
<path d="M396.881 301.523H414.918C414.918 301.523 415.593 298.815 414.408 296.972C413.36 295.341 413.761 294.414 414.539 293.064C413.722 293.378 412.665 293.665 411.499 293.604C410.602 293.555 409.652 293.171 408.817 292.716C408.041 293.548 404.716 297.095 403.679 297.796C402.5 298.594 397.243 298.311 396.881 301.523Z" fill="#233862"/>
<path d="M371.669 196.858L366.794 198.741C365.469 199.25 364.772 200.608 365.112 201.881L364.591 202.082C362.606 195.597 365.027 189.056 370.468 186.958C371.233 186.663 372.019 186.468 372.815 186.373C375.32 186.064 377.931 186.697 380.277 188.076C382.509 189.384 384.498 191.364 385.932 193.847L385.213 194.124C384.507 192.996 383.001 192.488 381.676 192.998L376.798 194.881C376.416 194.005 375.512 193.474 374.562 193.474C374.261 193.474 373.952 193.529 373.658 193.642L372.982 193.903C371.758 194.377 371.167 195.704 371.669 196.858ZM394.876 204.837L390.59 194.994C390.033 193.71 388.536 193.043 387.145 193.402C385.727 190.89 383.77 188.849 381.554 187.415C379.216 185.902 376.595 185.067 374.007 185.077C372.638 185.083 371.276 185.325 369.978 185.828C363.883 188.178 361.151 195.427 363.389 202.546L363.055 202.673C363.055 202.673 362.012 202.605 360.264 202.605C354.745 202.605 342.196 203.297 333.393 209.052C333.393 209.052 332.84 209.606 332.818 210.453C332.807 210.734 332.857 211.047 333.003 211.382C333.003 211.382 347.136 202.767 360.207 211.62C361.009 212.161 361.787 212.664 362.545 213.127L363.718 215.822C365.663 220.287 371.132 222.443 375.878 220.613L387.849 215.995L390.344 215.033C394.569 213.402 396.611 208.814 394.876 204.837Z" fill="#C94C43"/>
<path d="M362.545 213.127C361.787 212.664 361.009 212.161 360.207 211.62C347.136 202.767 333.003 211.382 333.003 211.382C332.857 211.047 332.807 210.734 332.818 210.453C334.797 209.226 342.212 205.147 351.398 206.541C362.162 208.176 364.11 209.585 362.545 213.127Z" fill="#B23B38"/>
<path d="M390.344 215.033L387.849 215.995C391.588 214.073 386.956 205.953 384.247 200.591C381.539 195.232 377.443 197.681 377.443 197.681C376.504 195.884 374.492 195.983 374.492 195.983C374.386 194.251 372.982 193.903 372.982 193.903L373.658 193.642C373.952 193.529 374.261 193.474 374.562 193.474C375.512 193.474 376.416 194.005 376.798 194.881L381.676 192.998C383.001 192.488 384.507 192.996 385.213 194.124L385.932 193.847C384.498 191.364 382.509 189.384 380.277 188.076C377.931 186.697 375.32 186.064 372.815 186.373C373.205 186.076 373.627 185.66 374.006 185.077C376.595 185.067 379.216 185.902 381.554 187.415C383.77 188.849 385.727 190.89 387.145 193.402C388.536 193.043 390.032 193.71 390.59 194.994L394.876 204.837C396.611 208.814 394.569 213.402 390.344 215.033Z" fill="#B23B38"/>
<path d="M384.729 192.871C386.463 193.558 388.904 195.958 392.806 194.504C395.597 193.482 398.552 192.769 399.988 192.436C400.557 192.334 400.884 192.258 400.884 192.258L399.339 188.022C399.339 188.022 399.284 188.049 399.149 188.074C398.145 188.279 393.05 189.298 390.664 188.788C387.982 188.201 383.483 191.239 383.483 191.239C383.483 191.239 382.995 192.207 384.729 192.871Z" fill="#FFB27D"/>
<path d="M335.764 218.491C335.764 216.959 332.816 212.229 332.816 212.229C332.816 212.229 329.87 216.959 329.87 218.491C329.87 220.023 331.188 221.266 332.816 221.266C334.444 221.266 335.764 220.023 335.764 218.491Z" fill="#AFCDFB"/>
<path d="M407.102 54.2618C407.527 53.1817 408.172 52.1229 409.063 51.1161C409.251 50.9003 409.486 50.6808 409.743 50.4614C410.87 49.5294 412.51 48.6874 413.787 48.4311C423.557 46.4854 430.035 56.3959 423.961 63.6896C423.858 63.8083 423.758 63.9271 423.651 64.0444C422.664 65.146 420.618 66.2999 419.126 66.6131C418.343 66.7762 417.581 66.8627 416.846 66.8845C409.499 67.0676 404.69 60.4173 407.102 54.2618ZM415.8 34.7473L411.473 35.6346L411.371 35.6564C410.846 35.7675 410.493 36.229 410.549 36.7301L410.939 40.1904C410.946 40.2478 410.948 40.304 410.944 40.359C410.913 40.7431 410.649 41.0883 410.255 41.2147C407.939 41.9912 405.817 43.1886 404.002 44.7476C403.925 44.8112 403.843 44.8629 403.755 44.9037C403.424 45.055 403.021 45.0319 402.705 44.8364L400.147 43.2136C399.807 43.0026 399.371 42.9974 399.031 43.1775C398.931 43.2354 398.831 43.3084 398.748 43.4007L395.835 46.6551C395.475 47.0542 395.502 47.6547 395.9 48.0272L398.805 50.7571C399.09 51.0271 399.184 51.4252 399.047 51.7843C398.855 52.304 398.685 52.8283 398.543 53.3693C398.275 54.3844 398.112 55.3982 398.042 56.4032L398.04 56.408C398.012 56.828 397.718 57.1816 397.293 57.3057L393.31 58.4662L393.111 58.5265C392.597 58.6711 392.283 59.1717 392.399 59.6716L393.362 63.8342C393.482 64.3399 393.985 64.6859 394.534 64.6308L398.624 64.2226C399.079 64.1763 399.515 64.4099 399.698 64.7983C400.507 66.4295 401.572 67.9383 402.871 69.2624C403.198 69.6027 403.237 70.1052 402.964 70.4885L400.927 73.3473C400.618 73.7835 400.709 74.3586 401.13 74.6905L404.599 77.4457C405.01 77.7701 405.616 77.7437 405.991 77.3889L409.405 74.18C409.693 73.9068 410.122 73.8137 410.512 73.9349C410.989 74.0871 411.477 74.2212 411.976 74.3375C412.918 74.5568 413.857 74.7042 414.785 74.7838C415.208 74.8164 415.57 75.0837 415.689 75.4674L417.167 79.9734C417.332 80.4695 417.866 80.7616 418.402 80.6527L422.841 79.7461C423.309 79.6471 423.649 79.2586 423.669 78.816C423.671 78.7704 423.673 78.7202 423.662 78.6724L423.185 74.3988C423.137 74.0018 423.342 73.6172 423.71 73.4238C423.743 73.4059 423.773 73.3879 423.81 73.3758C423.913 73.3337 424.008 73.2952 424.109 73.2423C425.303 72.7279 426.438 72.0877 427.493 71.3426C427.839 71.0883 428.327 71.0801 428.695 71.3186L431.905 73.342C432.358 73.6307 432.975 73.5456 433.328 73.15L433.977 72.4272L436.234 69.8993C436.592 69.5051 436.561 68.9189 436.173 68.5489L433.313 65.8594C433.003 65.5741 432.929 65.1401 433.108 64.7698C433.578 63.8022 433.964 62.7691 434.247 61.6916C434.456 60.8921 434.605 60.083 434.692 59.2847L435.526 59.0425L438.954 58.0424C439.379 57.9231 439.668 57.5588 439.684 57.1556C439.69 57.0706 439.679 56.9868 439.658 56.9008L438.699 52.7083C438.581 52.2134 438.084 51.8842 437.553 51.933L434.757 52.2165C434.287 52.2642 433.827 51.9995 433.663 51.58C432.981 49.8405 432.014 48.218 430.802 46.7765C430.513 46.435 430.491 45.9673 430.75 45.6209L433.323 42.0084C433.609 41.6023 433.53 41.0604 433.134 40.7444L429.621 37.9642C429.205 37.6336 428.595 37.6588 428.22 38.0185L424.669 41.3578C424.366 41.6481 423.906 41.7291 423.507 41.5697C422.651 41.2282 421.753 40.9526 420.816 40.7343C420.313 40.617 419.81 40.5198 419.306 40.4431C418.912 40.3818 418.587 40.118 418.465 39.7595L417.049 35.4398C416.883 34.9391 416.345 34.6409 415.8 34.7473Z" fill="#DFEDFB"/>
<path d="M464.556 77.1903C465.426 75.6123 466.631 74.1064 468.202 72.7248C468.531 72.4278 468.936 72.1343 469.376 71.8447C471.289 70.6198 473.976 69.6261 475.983 69.4637C491.346 68.2464 499.254 84.5979 488.461 94.6754C488.28 94.8389 488.102 95.0024 487.914 95.1632C486.18 96.6727 482.809 98.0711 480.46 98.2818C479.227 98.3903 478.042 98.3853 476.913 98.2863C465.62 97.2407 459.606 86.185 464.556 77.1903ZM481.853 48.864L475.046 49.4426L474.884 49.4574C474.054 49.5327 473.42 50.1759 473.405 50.9538L473.298 56.3255C473.298 56.4145 473.287 56.5009 473.272 56.5846C473.146 57.1675 472.671 57.6486 472.041 57.7711C468.337 58.5429 464.839 59.994 461.743 62.0551C461.612 62.1388 461.475 62.2028 461.334 62.2497C460.795 62.4218 460.181 62.3135 459.736 61.9571L456.148 59.0091C455.673 58.6247 455.006 58.5384 454.45 58.7531C454.283 58.8233 454.113 58.9172 453.967 59.0433L448.842 63.5033C448.21 64.0499 448.127 64.9745 448.663 65.6171L452.555 70.3234C452.938 70.7884 453.001 71.4154 452.718 71.9409C452.319 72.7024 451.953 73.4751 451.624 74.2783C451.008 75.7852 450.55 77.3085 450.239 78.8357L450.236 78.8426C450.106 79.4809 449.585 79.9697 448.905 80.0829L442.569 81.1421L442.251 81.1985C441.436 81.3273 440.852 82.0375 440.928 82.8243L441.553 89.3749C441.636 90.1718 442.336 90.7922 443.187 90.807L449.539 90.92C450.245 90.9311 450.864 91.3675 451.066 91.9958C451.971 94.6406 453.298 97.1443 455.017 99.407C455.446 99.9872 455.407 100.764 454.91 101.302L451.206 105.314C450.644 105.927 450.668 106.824 451.243 107.408L456 112.255C456.562 112.827 457.497 112.896 458.142 112.42L464.025 108.12C464.521 107.753 465.199 107.688 465.77 107.944C466.471 108.263 467.193 108.557 467.934 108.825C469.33 109.331 470.738 109.726 472.145 110.016C472.786 110.142 473.287 110.617 473.392 111.226L474.736 118.396C474.891 119.186 475.647 119.729 476.49 119.66L483.476 119.072C484.215 119.004 484.814 118.471 484.934 117.796C484.945 117.726 484.958 117.65 484.953 117.575L485.09 110.942C485.099 110.325 485.489 109.772 486.095 109.543C486.147 109.521 486.2 109.499 486.256 109.487C486.422 109.441 486.579 109.4 486.742 109.337C488.675 108.764 490.544 107.988 492.311 107.037C492.895 106.71 493.645 106.785 494.164 107.217L498.667 110.896C499.301 111.42 500.262 111.401 500.883 110.859L502.025 109.868L505.999 106.403C506.627 105.864 506.701 104.96 506.18 104.324L502.345 99.6871C501.931 99.1943 501.905 98.5158 502.254 97.9811C503.171 96.5835 503.973 95.07 504.627 93.4706C505.11 92.2837 505.503 91.0709 505.797 89.8637L507.126 89.6434L512.58 88.7295C513.255 88.6234 513.774 88.1178 513.878 87.5025C513.905 87.3735 513.907 87.2435 513.894 87.1079L513.277 80.512C513.196 79.7324 512.504 79.1384 511.68 79.1177L507.34 79.0473C506.607 79.0352 505.958 78.5471 505.79 77.8743C505.1 75.0868 503.951 72.4266 502.385 69.9994C502.014 69.4243 502.075 68.7035 502.541 68.2197L507.222 63.1501C507.74 62.5793 507.732 61.7351 507.187 61.1791L502.372 56.2861C501.803 55.7049 500.862 55.6333 500.214 56.1165L494.094 60.5917C493.571 60.9814 492.852 61.0228 492.27 60.7063C491.03 60.0289 489.708 59.4441 488.32 58.941C487.572 58.6703 486.821 58.4307 486.064 58.2225C485.474 58.0572 485.029 57.5945 484.916 57.0233L483.624 50.15C483.474 49.3528 482.711 48.7994 481.853 48.864Z" fill="#CDE3FD"/>
</g>
<defs>
<clipPath id="clip0_14_59">
<rect width="618" height="301" fill="white"/>
</clipPath>
</defs>
</svg>
