<svg width="152" height="48" viewBox="0 0 152 48" fill="none" xmlns="http://www.w3.org/2000/svg">
<path d="M61.6 20V9.38H64.82V20H61.6ZM63.22 7.28C62.6067 7.28 62.1267 7.14 61.78 6.86C61.4467 6.56667 61.28 6.15333 61.28 5.62C61.28 5.12667 61.4533 4.72667 61.8 4.42C62.1467 4.11333 62.62 3.96 63.22 3.96C63.8067 3.96 64.2667 4.10667 64.6 4.4C64.9467 4.68 65.12 5.08667 65.12 5.62C65.12 6.11333 64.9467 6.51333 64.6 6.82C64.2667 7.12667 63.8067 7.28 63.22 7.28ZM68.1658 20V6H74.3658C75.3391 6 76.1524 6.14 76.8058 6.42C77.4724 6.68667 77.9791 7.08 78.3258 7.6C78.6724 8.10667 78.8458 8.72667 78.8458 9.46C78.8458 10.2467 78.6458 10.9067 78.2458 11.44C77.8591 11.9733 77.2991 12.3467 76.5658 12.56L76.5458 12.14C77.1458 12.2867 77.6724 12.5333 78.1258 12.88C78.5924 13.2133 78.9524 13.6267 79.2058 14.12C79.4591 14.6 79.5858 15.1467 79.5858 15.76C79.5858 16.4667 79.4591 17.0867 79.2058 17.62C78.9658 18.1533 78.6191 18.6 78.1658 18.96C77.7258 19.3067 77.1991 19.5667 76.5858 19.74C75.9858 19.9133 75.3191 20 74.5858 20H68.1658ZM71.4058 17.14H74.4458C75.0058 17.14 75.4391 17.0067 75.7458 16.74C76.0658 16.4733 76.2258 16.0933 76.2258 15.6C76.2258 15.2933 76.1458 15.0333 75.9858 14.82C75.8391 14.6067 75.6258 14.4467 75.3458 14.34C75.0658 14.2333 74.7324 14.18 74.3458 14.18H71.4058V17.14ZM71.4058 11.6H73.9058C74.2524 11.6 74.5458 11.5467 74.7858 11.44C75.0258 11.32 75.2058 11.16 75.3258 10.96C75.4591 10.7467 75.5258 10.5 75.5258 10.22C75.5258 9.79333 75.3791 9.46 75.0858 9.22C74.7924 8.98 74.3524 8.86 73.7658 8.86H71.4058V11.6ZM85.4892 20.2C84.7159 20.2 84.0492 20.0333 83.4892 19.7C82.9292 19.3533 82.4959 18.8667 82.1892 18.24C81.8959 17.6 81.7492 16.8333 81.7492 15.94V9.38H84.9692V15.46C84.9692 16.1133 85.1226 16.6267 85.4292 17C85.7492 17.36 86.1892 17.54 86.7492 17.54C87.0292 17.54 87.2826 17.5 87.5092 17.42C87.7359 17.3267 87.9292 17.2 88.0892 17.04C88.2626 16.8667 88.3959 16.6667 88.4892 16.44C88.5826 16.2133 88.6292 15.9667 88.6292 15.7V9.38H91.8492V20H88.8292L88.7092 17.82L89.2892 17.58C89.1426 18.0733 88.8759 18.52 88.4892 18.92C88.1159 19.32 87.6692 19.6333 87.1492 19.86C86.6292 20.0867 86.0759 20.2 85.4892 20.2ZM98.7608 20.2C97.8541 20.2 97.0341 19.9667 96.3008 19.5C95.5808 19.0333 95.0141 18.3867 94.6008 17.56C94.1874 16.72 93.9808 15.7667 93.9808 14.7C93.9808 13.6333 94.1874 12.6867 94.6008 11.86C95.0141 11.02 95.5808 10.36 96.3008 9.88C97.0341 9.4 97.8608 9.16 98.7808 9.16C99.2608 9.16 99.7208 9.23333 100.161 9.38C100.614 9.52667 101.014 9.72667 101.361 9.98C101.721 10.2333 102.014 10.52 102.241 10.84C102.467 11.16 102.607 11.5 102.661 11.86L101.881 12.04V5.2H105.101V20H102.101L101.921 17.6L102.561 17.72C102.534 18.04 102.414 18.3533 102.201 18.66C101.987 18.9533 101.701 19.22 101.341 19.46C100.994 19.6867 100.601 19.8667 100.161 20C99.7208 20.1333 99.2541 20.2 98.7608 20.2ZM99.5608 17.54C100.054 17.54 100.474 17.4267 100.821 17.2C101.181 16.96 101.461 16.6267 101.661 16.2C101.861 15.7733 101.961 15.2733 101.961 14.7C101.961 14.1133 101.861 13.6067 101.661 13.18C101.461 12.7533 101.181 12.4267 100.821 12.2C100.474 11.96 100.054 11.84 99.5608 11.84C99.0808 11.84 98.6608 11.96 98.3008 12.2C97.9541 12.4267 97.6808 12.7533 97.4808 13.18C97.2808 13.6067 97.1808 14.1133 97.1808 14.7C97.1808 15.2733 97.2808 15.7733 97.4808 16.2C97.6808 16.6267 97.9541 16.96 98.3008 17.2C98.6608 17.4267 99.0808 17.54 99.5608 17.54ZM112.667 24.6C111.813 24.6 110.953 24.4733 110.087 24.22C109.233 23.98 108.54 23.66 108.007 23.26L109.127 20.98C109.553 21.2733 110.033 21.5 110.567 21.66C111.113 21.8333 111.68 21.92 112.267 21.92C112.947 21.92 113.5 21.82 113.927 21.62C114.353 21.42 114.667 21.12 114.867 20.72C115.08 20.32 115.187 19.82 115.187 19.22V17.46L115.787 17.58C115.707 17.9933 115.48 18.38 115.107 18.74C114.747 19.1 114.3 19.3867 113.767 19.6C113.233 19.8133 112.673 19.92 112.087 19.92C111.127 19.92 110.267 19.7 109.507 19.26C108.747 18.8067 108.147 18.1867 107.707 17.4C107.28 16.6 107.067 15.68 107.067 14.64C107.067 13.5733 107.28 12.6267 107.707 11.8C108.147 10.9733 108.74 10.3267 109.487 9.86C110.233 9.39333 111.073 9.16 112.007 9.16C112.393 9.16 112.767 9.20667 113.127 9.3C113.5 9.38 113.84 9.5 114.147 9.66C114.467 9.82 114.747 10 114.987 10.2C115.24 10.4 115.447 10.62 115.607 10.86C115.767 11.1 115.867 11.34 115.907 11.58L115.247 11.78L115.367 9.38H118.427V19.12C118.427 19.9867 118.293 20.76 118.027 21.44C117.773 22.12 117.393 22.6933 116.887 23.16C116.393 23.6267 115.793 23.98 115.087 24.22C114.38 24.4733 113.573 24.6 112.667 24.6ZM112.747 17.42C113.267 17.42 113.713 17.3067 114.087 17.08C114.473 16.8533 114.767 16.5333 114.967 16.12C115.18 15.7067 115.287 15.2267 115.287 14.68C115.287 14.1067 115.18 13.6133 114.967 13.2C114.767 12.7867 114.473 12.4667 114.087 12.24C113.713 12 113.267 11.88 112.747 11.88C112.253 11.88 111.82 12 111.447 12.24C111.073 12.4667 110.78 12.7867 110.567 13.2C110.367 13.6133 110.267 14.1 110.267 14.66C110.267 15.22 110.367 15.7067 110.567 16.12C110.78 16.5333 111.073 16.8533 111.447 17.08C111.82 17.3067 112.253 17.42 112.747 17.42ZM126.265 20.2C125.092 20.2 124.065 19.9667 123.185 19.5C122.318 19.0333 121.645 18.3933 121.165 17.58C120.698 16.7533 120.465 15.8133 120.465 14.76C120.465 13.9333 120.598 13.18 120.865 12.5C121.132 11.8067 121.505 11.2133 121.985 10.72C122.478 10.2267 123.052 9.84667 123.705 9.58C124.372 9.3 125.098 9.16 125.885 9.16C126.632 9.16 127.312 9.29333 127.925 9.56C128.538 9.82667 129.072 10.2 129.525 10.68C129.978 11.16 130.325 11.7267 130.565 12.38C130.805 13.0333 130.918 13.7467 130.905 14.52L130.885 15.4H122.445L121.965 13.58H128.265L127.925 13.94V13.54C127.898 13.2067 127.792 12.92 127.605 12.68C127.432 12.4267 127.198 12.2267 126.905 12.08C126.625 11.9333 126.305 11.86 125.945 11.86C125.412 11.86 124.958 11.9667 124.585 12.18C124.225 12.38 123.952 12.6733 123.765 13.06C123.578 13.4467 123.485 13.9267 123.485 14.5C123.485 15.0733 123.605 15.58 123.845 16.02C124.098 16.46 124.458 16.8 124.925 17.04C125.405 17.28 125.972 17.4 126.625 17.4C127.065 17.4 127.465 17.3333 127.825 17.2C128.185 17.0667 128.572 16.84 128.985 16.52L130.485 18.64C130.072 18.9867 129.632 19.28 129.165 19.52C128.698 19.7467 128.218 19.9133 127.725 20.02C127.245 20.14 126.758 20.2 126.265 20.2ZM133.823 20V6.7H137.043V20H133.823ZM131.943 12.2V9.38H139.083V12.2H131.943Z" fill="#2B478B"/>
<circle cx="24" cy="24" r="24" fill="#2B478B"/>
<rect x="40.728" y="35.9772" width="19.9156" height="5.95542" transform="rotate(179.807 40.728 35.9772)" fill="#D2E3FC"/>
<rect x="34.3312" y="30.2345" width="7.06683" height="14.0378" transform="rotate(179.807 34.3312 30.2345)" fill="#D2E3FC"/>
<rect x="7.48053" y="12.2245" width="19.6926" height="5.95542" transform="rotate(-0.199509 7.48053 12.2245)" fill="white"/>
<rect x="13.8141" y="18.146" width="6.98771" height="14.0378" transform="rotate(-0.199509 13.8141 18.146)" fill="white"/>
<path d="M62.672 34.584C63.024 34.584 63.3333 34.6693 63.6 34.84C63.8667 35.0107 64.0747 35.2613 64.224 35.592C64.3733 35.9173 64.448 36.3093 64.448 36.768C64.448 37.2853 64.3573 37.72 64.176 38.072C64 38.424 63.7547 38.688 63.44 38.864C63.1307 39.04 62.7787 39.128 62.384 39.128C61.9893 39.128 61.6293 39.0213 61.304 38.808L61.192 39.008H60.752V32.6H61.464V35C61.8213 34.7227 62.224 34.584 62.672 34.584ZM62.328 38.584C62.8027 38.584 63.152 38.424 63.376 38.104C63.6053 37.7787 63.72 37.3333 63.72 36.768C63.72 36.1973 63.6133 35.784 63.4 35.528C63.192 35.2667 62.9333 35.136 62.624 35.136C62.3947 35.136 62.192 35.1707 62.016 35.24C61.8453 35.304 61.6613 35.4133 61.464 35.568V38.352C61.7253 38.5067 62.0133 38.584 62.328 38.584ZM69.0363 34.728L67.1803 39.592C66.999 40.0827 66.775 40.4373 66.5083 40.656C66.2416 40.8747 65.9163 40.984 65.5323 40.984C65.319 40.984 65.127 40.952 64.9563 40.888L65.0443 40.328C65.2043 40.3707 65.351 40.392 65.4843 40.392C65.751 40.392 65.975 40.312 66.1563 40.152C66.3376 39.992 66.5083 39.6987 66.6683 39.272L66.7323 39.088L65.0443 34.728H65.7803L67.0603 38.184L68.3163 34.728H69.0363ZM72.4881 41.892C72.2001 41.892 71.8521 41.86 71.4441 41.796L71.5761 40.62C71.8321 40.66 72.0561 40.68 72.2481 40.68C72.6401 40.68 72.9241 40.556 73.1001 40.308C73.2761 40.068 73.3641 39.688 73.3641 39.168V30.84H74.9961V39.192C74.9961 40.064 74.7881 40.732 74.3721 41.196C73.9641 41.66 73.3361 41.892 72.4881 41.892ZM82.687 37.836V39H77.419V30.84H82.447V32.004H79.051V34.104H81.967V35.268H79.051V37.836H82.687ZM91.6723 30.84V39L90.2203 39.012L86.0443 33.252L86.1643 36V39H84.5323V30.84H85.9843L90.1603 36.588L90.0403 33.684V30.84H91.6723ZM94.0831 30.84H95.7151V39H94.0831V30.84ZM106.502 30.84V39H104.906V36.492L105.014 33.36L102.914 36.696H101.714L99.5901 33.312L99.7221 36.492V39H98.1261V30.84H99.6381L102.314 35.028L104.99 30.84H106.502ZM112.519 39.168C111.623 39.168 110.859 38.98 110.227 38.604C109.595 38.22 109.115 37.708 108.787 37.068C108.467 36.42 108.307 35.708 108.307 34.932C108.307 34.148 108.467 33.436 108.787 32.796C109.107 32.156 109.583 31.648 110.215 31.272C110.855 30.888 111.623 30.696 112.519 30.696C113.407 30.696 114.167 30.888 114.799 31.272C115.439 31.648 115.919 32.156 116.239 32.796C116.567 33.436 116.731 34.144 116.731 34.92C116.731 35.704 116.567 36.42 116.239 37.068C115.919 37.708 115.443 38.22 114.811 38.604C114.179 38.98 113.415 39.168 112.519 39.168ZM112.531 37.968C113.067 37.968 113.527 37.836 113.911 37.572C114.303 37.308 114.599 36.948 114.799 36.492C115.007 36.028 115.111 35.504 115.111 34.92C115.111 34.344 115.007 33.828 114.799 33.372C114.599 32.916 114.303 32.556 113.911 32.292C113.527 32.028 113.067 31.896 112.531 31.896C111.987 31.896 111.519 32.028 111.127 32.292C110.743 32.556 110.451 32.916 110.251 33.372C110.051 33.828 109.951 34.344 109.951 34.92C109.951 35.504 110.051 36.028 110.251 36.492C110.451 36.948 110.743 37.308 111.127 37.572C111.519 37.836 111.987 37.968 112.531 37.968Z" fill="#2B478B"/>
</svg>
